<?xml version="1.0" standalone="no"?>
<!DOCTYPE svg PUBLIC "-//W3C//DTD SVG 20010904//EN"
 "http://www.w3.org/TR/2001/REC-SVG-20010904/DTD/svg10.dtd">
<svg version="1.0" xmlns="http://www.w3.org/2000/svg"
 width="1010.000000pt" height="158.000000pt" viewBox="0 0 1010.000000 158.000000"
 preserveAspectRatio="xMidYMid meet">

<g transform="translate(0.000000,158.000000) scale(0.100000,-0.100000)"
fill="#000000" stroke="none">
<path d="M4780 962 c-91 -31 -161 -74 -281 -174 -25 -21 -48 -38 -52 -38 -4 0
-7 19 -7 43 -1 54 -31 120 -66 143 -55 36 -142 17 -170 -38 -21 -40 -17 -57
20 -94 29 -29 38 -32 70 -27 46 7 47 -6 4 -53 -20 -21 -48 -38 -69 -43 -77
-17 -207 22 -271 82 -23 21 -28 35 -28 71 0 50 16 66 68 66 30 0 46 -22 54
-75 2 -12 11 -20 23 -20 16 0 21 8 23 37 6 72 -49 128 -127 128 -42 0 -70 -28
-91 -90 -10 -30 -23 -56 -28 -58 -5 -1 -56 22 -114 52 -180 94 -188 95 -718
92 -514 -3 -503 -2 -721 -91 -113 -46 -201 -75 -231 -75 -35 0 -18 31 27 50
36 16 45 24 45 44 0 64 -93 33 -165 -55 -47 -57 -61 -56 -182 17 l-32 19 -40
-39 -40 -39 -293 1 c-161 1 -410 4 -553 7 -383 10 -755 -13 -755 -46 0 -5 -1
-12 -2 -16 -2 -3 6 -8 17 -10 11 -3 373 -7 804 -10 l784 -6 33 -35 32 -35 60
40 c34 23 78 43 103 47 39 6 46 4 59 -16 52 -81 134 -109 254 -88 89 16 208
56 321 110 70 32 103 42 147 44 31 0 59 -2 62 -5 3 -3 -1 -20 -10 -38 -22 -44
-14 -114 17 -147 32 -35 82 -33 120 5 36 37 38 81 7 146 l-23 46 25 20 c90 71
194 84 305 38 33 -14 60 -31 60 -39 0 -7 -22 -19 -50 -27 -67 -20 -101 -46
-115 -88 -25 -76 52 -150 131 -126 44 13 79 55 61 73 -8 8 -23 7 -56 -2 -53
-14 -66 -9 -66 30 0 20 10 36 32 55 30 25 38 27 98 22 45 -3 112 -22 220 -61
407 -149 630 -171 815 -81 73 36 159 95 255 175 47 40 112 86 145 103 52 27
70 32 135 31 114 0 205 -54 127 -75 -37 -10 -52 -23 -100 -89 -45 -61 -61 -76
-94 -90 -40 -17 -53 -3 -46 46 7 55 -14 84 -62 84 -48 0 -80 -40 -79 -96 3
-124 137 -169 293 -99 l63 28 54 -26 c67 -33 82 -33 145 -2 l50 26 70 -26
c127 -45 227 -29 277 45 41 61 16 139 -50 155 -21 5 -33 1 -53 -19 -23 -23
-25 -31 -19 -71 4 -29 3 -45 -4 -45 -30 0 -73 28 -132 84 -36 34 -84 75 -107
90 -36 24 -41 31 -33 47 23 42 99 57 177 34 69 -20 146 -67 288 -174 135 -102
167 -121 275 -162 77 -30 95 -33 185 -32 178 2 366 44 615 137 211 79 255 83
284 28 23 -44 2 -76 -49 -80 -61 -4 -68 -8 -55 -32 9 -16 21 -20 66 -20 48 0
59 4 85 29 48 48 35 114 -30 158 -19 13 -49 23 -67 23 -55 0 -41 25 33 62 53
26 83 34 142 37 88 4 134 -8 181 -48 l35 -30 -38 -37 c-20 -20 -40 -47 -43
-60 -10 -40 5 -92 33 -114 37 -29 77 -26 115 9 32 29 33 31 31 105 l-2 76 27
-6 c57 -13 70 -18 177 -69 227 -110 399 -115 519 -15 26 22 55 40 62 40 8 0
46 -17 83 -37 l69 -38 74 38 73 37 772 -2 772 -3 6 23 c12 47 -6 52 -144 47
-590 -21 -1307 -11 -1441 21 -122 29 -131 29 -174 -5 -27 -22 -49 -31 -75 -31
-32 1 -39 6 -63 45 -32 53 -61 67 -140 69 -57 1 -74 -6 -80 -34 -2 -12 9 -14
60 -11 55 2 67 0 88 -20 13 -12 24 -31 24 -41 0 -33 -85 -23 -253 31 -270 87
-494 127 -777 138 -278 10 -472 -23 -662 -113 -64 -31 -121 -53 -127 -50 -5 3
-12 28 -16 56 -9 66 -47 100 -112 100 -38 0 -50 -5 -80 -35 -41 -41 -43 -78
-3 -83 19 -2 29 5 42 28 32 57 94 23 92 -51 -2 -50 -25 -76 -107 -120 -53 -29
-72 -34 -132 -34 -80 0 -134 26 -160 75 -23 44 -19 48 40 46 43 -1 59 3 76 21
45 45 -6 134 -85 148 -69 13 -132 -47 -143 -135 -3 -29 -11 -50 -18 -50 -14 0
-63 32 -135 89 -97 76 -243 130 -318 116 -20 -3 -65 -21 -100 -38 l-63 -32
-32 19 c-70 41 -94 50 -147 53 -34 2 -76 -4 -110 -15z m-1870 -67 c0 -7 -21
-25 -47 -39 -44 -25 -51 -26 -147 -20 -97 6 -105 5 -201 -29 -55 -19 -133 -49
-173 -66 -103 -43 -184 -56 -242 -39 -73 22 -59 39 56 69 56 15 150 43 210 62
183 60 231 70 384 76 80 4 148 5 153 3 4 -2 7 -9 7 -17z m562 11 c112 -22 208
-60 380 -152 202 -108 197 -106 303 -114 85 -6 88 -7 60 -19 -18 -8 -68 -13
-125 -13 -146 0 -239 28 -545 167 -88 40 -193 83 -233 95 -45 14 -72 27 -72
36 0 19 133 19 232 0z m3423 -5 c0 -7 -52 -36 -120 -66 -66 -28 -188 -82 -271
-118 -166 -73 -284 -107 -368 -107 -70 0 -79 15 -24 37 24 9 66 30 93 45 118
66 316 159 390 184 123 41 300 56 300 25z m680 -25 c55 -14 147 -41 205 -62
58 -20 148 -46 200 -57 52 -11 98 -25 102 -31 10 -15 -28 -34 -87 -41 -53 -7
-93 4 -344 94 -63 23 -141 44 -175 47 -33 3 -76 10 -93 16 -31 9 -63 41 -63
62 0 15 146 -1 255 -28z m810 -92 c20 -20 4 -44 -31 -44 -32 0 -38 16 -14 40
24 24 24 24 45 4z m-6581 -10 c23 -9 20 -23 -6 -33 -30 -11 -48 -3 -48 20 0
19 23 25 54 13z m5556 -52 c0 -41 -14 -62 -42 -62 -28 0 -25 64 4 84 33 23 38
20 38 -22z m-4526 2 c3 -9 6 -29 6 -46 0 -23 -4 -29 -17 -26 -24 4 -32 88 -10
88 8 0 18 -7 21 -16z"/>
</g>
</svg>
