<svg xmlns="http://www.w3.org/2000/svg" xmlns:xlink="http://www.w3.org/1999/xlink" zoomAndPan="magnify" preserveAspectRatio="xMidYMid meet" version="1.0" viewBox="75.09 75 72.87 72"><defs><g/><clipPath id="428d6ceaf1"><path d="M 75.085938 75 L 147.957031 75 L 147.957031 147 L 75.085938 147 Z M 75.085938 75 " clip-rule="nonzero"/></clipPath></defs><path fill="#000000" d="M 134.054688 78.597656 C 134.921875 78.648438 136.152344 79.054688 136.027344 79.917969 C 135.921875 80.300781 135.148438 80.476562 135.152344 79.6875 C 135.378906 79.65625 135.503906 79.851562 135.632812 79.996094 C 135.917969 79.644531 135.609375 79.070312 134.867188 79.472656 C 134.8125 79.664062 134.765625 79.863281 134.792969 80.0625 C 135.171875 80.90625 136.144531 80.671875 136.457031 80.136719 C 136.589844 79.257812 136.269531 78.925781 135.1875 78.347656 C 136.578125 78.34375 138.671875 78.328125 139.742188 79.230469 C 140.207031 79.667969 140.472656 80.410156 140.195312 81.015625 C 139.902344 81.664062 138.679688 81.726562 138.511719 80.660156 C 138.472656 80.425781 138.71875 80.148438 138.960938 80.269531 C 139.207031 80.390625 139.175781 80.714844 139.246094 80.941406 C 140.078125 80.527344 139.429688 79.164062 138.136719 79.757812 C 137.527344 80.269531 137.71875 81.539062 138.75 82.011719 C 139.320312 82.285156 140.773438 82.179688 140.96875 80.910156 C 141.265625 78.410156 139.058594 77.957031 136.566406 77.867188 C 134.804688 77.667969 131.265625 78.128906 129.457031 78.558594 C 128.058594 78.949219 128.234375 78.316406 128.429688 78.320312 C 128.496094 78.410156 128.542969 78.507812 128.59375 78.597656 C 128.664062 78.558594 128.734375 78.515625 128.804688 78.472656 C 128.816406 78.363281 128.832031 78.25 128.847656 78.140625 C 128.710938 77.96875 128.535156 77.644531 127.988281 77.910156 C 127.738281 78.140625 127.660156 78.542969 127.875 78.824219 C 128.625 79.757812 129.492188 78.550781 134.054688 78.597656 Z M 134.054688 78.597656 " fill-opacity="1" fill-rule="nonzero"/><path fill="#000000" d="M 78.800781 88.78125 C 78.851562 87.914062 79.261719 86.6875 80.125 86.8125 C 80.503906 86.917969 80.683594 87.691406 79.890625 87.683594 C 79.859375 87.457031 80.054688 87.335938 80.199219 87.203125 C 79.847656 86.917969 79.273438 87.226562 79.675781 87.96875 C 79.867188 88.027344 80.066406 88.074219 80.265625 88.042969 C 81.109375 87.664062 80.875 86.695312 80.339844 86.382812 C 79.460938 86.246094 79.128906 86.570312 78.550781 87.648438 C 78.550781 86.261719 78.53125 84.164062 79.433594 83.097656 C 79.871094 82.628906 80.613281 82.363281 81.21875 82.644531 C 81.867188 82.933594 81.929688 84.15625 80.863281 84.324219 C 80.628906 84.363281 80.351562 84.117188 80.472656 83.878906 C 80.59375 83.628906 80.917969 83.660156 81.144531 83.589844 C 80.730469 82.761719 79.367188 83.40625 79.960938 84.703125 C 80.472656 85.308594 81.742188 85.121094 82.214844 84.085938 C 82.488281 83.515625 82.382812 82.066406 81.113281 81.867188 C 78.613281 81.570312 78.160156 83.777344 78.070312 86.273438 C 77.871094 88.03125 78.335938 91.570312 78.765625 93.378906 C 79.152344 94.777344 78.523438 94.605469 78.523438 94.410156 C 78.613281 94.34375 78.710938 94.292969 78.804688 94.242188 C 78.761719 94.171875 78.71875 94.101562 78.675781 94.035156 C 78.566406 94.019531 78.457031 94.003906 78.34375 93.988281 C 78.171875 94.125 77.847656 94.300781 78.113281 94.847656 C 78.34375 95.097656 78.746094 95.175781 79.027344 94.964844 C 79.960938 94.210938 78.753906 93.347656 78.800781 88.78125 Z M 78.800781 88.78125 " fill-opacity="1" fill-rule="nonzero"/><path fill="#000000" d="M 88.984375 144.035156 C 88.117188 143.988281 86.890625 143.578125 87.015625 142.714844 C 87.121094 142.332031 87.894531 142.15625 87.886719 142.949219 C 87.660156 142.980469 87.539062 142.78125 87.40625 142.636719 C 87.121094 142.992188 87.429688 143.566406 88.171875 143.160156 C 88.230469 142.96875 88.277344 142.769531 88.25 142.570312 C 87.867188 141.730469 86.898438 141.964844 86.585938 142.496094 C 86.449219 143.378906 86.773438 143.707031 87.851562 144.289062 C 86.464844 144.289062 84.367188 144.304688 83.300781 143.402344 C 82.832031 142.96875 82.566406 142.222656 82.847656 141.621094 C 83.136719 140.972656 84.359375 140.90625 84.527344 141.976562 C 84.566406 142.210938 84.320312 142.484375 84.082031 142.363281 C 83.832031 142.242188 83.867188 141.917969 83.796875 141.691406 C 82.964844 142.105469 83.609375 143.46875 84.90625 142.875 C 85.511719 142.363281 85.324219 141.097656 84.289062 140.621094 C 83.71875 140.351562 82.269531 140.453125 82.070312 141.726562 C 81.773438 144.222656 83.980469 144.675781 86.476562 144.765625 C 88.234375 144.964844 91.773438 144.503906 93.582031 144.074219 C 94.980469 143.6875 94.808594 144.316406 94.613281 144.3125 C 94.546875 144.226562 94.5 144.128906 94.445312 144.035156 C 94.375 144.078125 94.308594 144.117188 94.238281 144.160156 C 94.222656 144.273438 94.207031 144.382812 94.191406 144.492188 C 94.328125 144.664062 94.503906 144.988281 95.050781 144.722656 C 95.300781 144.492188 95.378906 144.089844 95.167969 143.808594 C 94.414062 142.875 93.550781 144.082031 88.984375 144.035156 Z M 88.984375 144.035156 " fill-opacity="1" fill-rule="nonzero"/><path fill="#000000" d="M 144.242188 133.851562 C 144.191406 134.71875 143.78125 135.949219 142.917969 135.824219 C 142.535156 135.71875 142.359375 134.941406 143.152344 134.949219 C 143.183594 135.175781 142.984375 135.300781 142.839844 135.429688 C 143.195312 135.714844 143.769531 135.40625 143.363281 134.664062 C 143.171875 134.609375 142.972656 134.558594 142.773438 134.589844 C 141.933594 134.96875 142.167969 135.941406 142.699219 136.253906 C 143.582031 136.386719 143.910156 136.066406 144.492188 134.984375 C 144.492188 136.371094 144.507812 138.46875 143.605469 139.539062 C 143.171875 140.003906 142.429688 140.269531 141.824219 139.992188 C 141.175781 139.699219 141.109375 138.476562 142.179688 138.308594 C 142.414062 138.269531 142.6875 138.515625 142.566406 138.757812 C 142.445312 139.003906 142.121094 138.972656 141.894531 139.042969 C 142.308594 139.875 143.671875 139.226562 143.078125 137.929688 C 142.566406 137.324219 141.300781 137.515625 140.824219 138.546875 C 140.554688 139.117188 140.65625 140.570312 141.929688 140.765625 C 144.425781 141.0625 144.878906 138.855469 144.96875 136.363281 C 145.167969 134.601562 144.707031 131.0625 144.277344 129.253906 C 143.890625 127.855469 144.519531 128.027344 144.515625 128.226562 C 144.429688 128.289062 144.332031 128.339844 144.238281 128.390625 C 144.28125 128.460938 144.320312 128.53125 144.367188 128.597656 C 144.476562 128.613281 144.585938 128.628906 144.695312 128.644531 C 144.867188 128.507812 145.191406 128.332031 144.925781 127.785156 C 144.695312 127.535156 144.292969 127.457031 144.011719 127.671875 C 143.078125 128.421875 144.289062 129.289062 144.242188 133.851562 Z M 144.242188 133.851562 " fill-opacity="1" fill-rule="nonzero"/><path fill="#000000" d="M 144.242188 88.78125 C 144.191406 87.914062 143.78125 86.6875 142.917969 86.8125 C 142.535156 86.917969 142.359375 87.691406 143.152344 87.683594 C 143.183594 87.457031 142.984375 87.335938 142.839844 87.203125 C 143.195312 86.917969 143.769531 87.226562 143.363281 87.96875 C 143.171875 88.027344 142.972656 88.074219 142.773438 88.042969 C 141.933594 87.664062 142.167969 86.695312 142.699219 86.382812 C 143.582031 86.246094 143.910156 86.570312 144.492188 87.648438 C 144.492188 86.261719 144.507812 84.164062 143.605469 83.097656 C 143.171875 82.628906 142.429688 82.363281 141.824219 82.644531 C 141.175781 82.933594 141.109375 84.15625 142.179688 84.324219 C 142.414062 84.363281 142.6875 84.117188 142.566406 83.878906 C 142.445312 83.628906 142.121094 83.660156 141.894531 83.589844 C 142.308594 82.761719 143.671875 83.40625 143.078125 84.703125 C 142.566406 85.308594 141.300781 85.121094 140.824219 84.085938 C 140.554688 83.515625 140.65625 82.066406 141.929688 81.867188 C 144.425781 81.570312 144.878906 83.777344 144.96875 86.273438 C 145.167969 88.03125 144.707031 91.570312 144.277344 93.378906 C 143.890625 94.777344 144.519531 94.605469 144.515625 94.410156 C 144.429688 94.34375 144.332031 94.292969 144.238281 94.242188 C 144.28125 94.171875 144.320312 94.101562 144.367188 94.035156 C 144.476562 94.019531 144.585938 94.003906 144.695312 93.988281 C 144.867188 94.125 145.191406 94.300781 144.925781 94.847656 C 144.695312 95.097656 144.292969 95.175781 144.011719 94.964844 C 143.078125 94.210938 144.289062 93.347656 144.242188 88.78125 Z M 144.242188 88.78125 " fill-opacity="1" fill-rule="nonzero"/><path fill="#000000" d="M 88.984375 78.597656 C 88.117188 78.648438 86.890625 79.054688 87.015625 79.917969 C 87.121094 80.300781 87.894531 80.476562 87.886719 79.6875 C 87.660156 79.65625 87.539062 79.851562 87.40625 79.996094 C 87.121094 79.644531 87.429688 79.070312 88.171875 79.472656 C 88.230469 79.664062 88.277344 79.863281 88.25 80.0625 C 87.867188 80.90625 86.898438 80.671875 86.585938 80.136719 C 86.449219 79.257812 86.773438 78.925781 87.851562 78.347656 C 86.464844 78.34375 84.367188 78.328125 83.300781 79.230469 C 82.832031 79.667969 82.566406 80.410156 82.847656 81.015625 C 83.136719 81.664062 84.359375 81.726562 84.527344 80.660156 C 84.566406 80.425781 84.320312 80.148438 84.082031 80.269531 C 83.832031 80.390625 83.867188 80.714844 83.796875 80.941406 C 82.964844 80.527344 83.609375 79.164062 84.90625 79.757812 C 85.511719 80.269531 85.324219 81.539062 84.289062 82.011719 C 83.71875 82.285156 82.269531 82.179688 82.070312 80.910156 C 81.773438 78.410156 83.980469 77.957031 86.476562 77.867188 C 88.234375 77.667969 91.773438 78.128906 93.582031 78.558594 C 94.980469 78.949219 94.808594 78.316406 94.613281 78.320312 C 94.546875 78.410156 94.5 78.507812 94.445312 78.597656 C 94.375 78.558594 94.308594 78.515625 94.238281 78.472656 C 94.222656 78.363281 94.207031 78.25 94.191406 78.140625 C 94.328125 77.96875 94.503906 77.644531 95.050781 77.910156 C 95.300781 78.140625 95.378906 78.542969 95.167969 78.824219 C 94.414062 79.757812 93.550781 78.550781 88.984375 78.597656 Z M 88.984375 78.597656 " fill-opacity="1" fill-rule="nonzero"/><path fill="#000000" d="M 78.800781 133.851562 C 78.851562 134.71875 79.261719 135.949219 80.125 135.824219 C 80.503906 135.71875 80.683594 134.941406 79.890625 134.949219 C 79.859375 135.175781 80.054688 135.300781 80.199219 135.429688 C 79.847656 135.714844 79.273438 135.40625 79.675781 134.664062 C 79.867188 134.609375 80.066406 134.558594 80.265625 134.589844 C 81.109375 134.96875 80.875 135.941406 80.339844 136.253906 C 79.460938 136.386719 79.128906 136.066406 78.550781 134.984375 C 78.550781 136.371094 78.53125 138.46875 79.433594 139.539062 C 79.871094 140.003906 80.613281 140.269531 81.21875 139.992188 C 81.867188 139.699219 81.929688 138.476562 80.863281 138.308594 C 80.628906 138.269531 80.351562 138.515625 80.472656 138.757812 C 80.59375 139.003906 80.917969 138.972656 81.144531 139.042969 C 80.730469 139.875 79.367188 139.226562 79.960938 137.929688 C 80.472656 137.324219 81.742188 137.515625 82.214844 138.546875 C 82.488281 139.117188 82.382812 140.570312 81.113281 140.765625 C 78.613281 141.0625 78.160156 138.855469 78.070312 136.363281 C 77.871094 134.601562 78.335938 131.0625 78.765625 129.253906 C 79.152344 127.855469 78.523438 128.027344 78.523438 128.226562 C 78.613281 128.289062 78.710938 128.339844 78.804688 128.390625 C 78.761719 128.460938 78.71875 128.53125 78.675781 128.597656 C 78.566406 128.613281 78.457031 128.628906 78.34375 128.644531 C 78.171875 128.507812 77.847656 128.332031 78.113281 127.785156 C 78.34375 127.535156 78.746094 127.457031 79.027344 127.671875 C 79.960938 128.421875 78.753906 129.289062 78.800781 133.851562 Z M 78.800781 133.851562 " fill-opacity="1" fill-rule="nonzero"/><path fill="#000000" d="M 134.054688 144.035156 C 134.921875 143.988281 136.152344 143.578125 136.027344 142.714844 C 135.921875 142.332031 135.148438 142.15625 135.152344 142.949219 C 135.378906 142.980469 135.503906 142.78125 135.632812 142.636719 C 135.917969 142.992188 135.609375 143.566406 134.867188 143.160156 C 134.8125 142.96875 134.765625 142.769531 134.792969 142.570312 C 135.171875 141.730469 136.144531 141.964844 136.457031 142.496094 C 136.589844 143.378906 136.269531 143.707031 135.1875 144.289062 C 136.578125 144.289062 138.671875 144.304688 139.742188 143.402344 C 140.207031 142.96875 140.472656 142.222656 140.195312 141.621094 C 139.902344 140.972656 138.679688 140.90625 138.511719 141.976562 C 138.472656 142.210938 138.71875 142.484375 138.960938 142.363281 C 139.207031 142.242188 139.175781 141.917969 139.246094 141.691406 C 140.078125 142.105469 139.429688 143.46875 138.136719 142.875 C 137.527344 142.363281 137.71875 141.097656 138.75 140.621094 C 139.320312 140.351562 140.773438 140.453125 140.96875 141.726562 C 141.265625 144.222656 139.058594 144.675781 136.566406 144.765625 C 134.804688 144.964844 131.265625 144.503906 129.457031 144.074219 C 128.058594 143.6875 128.234375 144.316406 128.429688 144.3125 C 128.496094 144.226562 128.542969 144.128906 128.59375 144.035156 C 128.664062 144.078125 128.734375 144.117188 128.804688 144.160156 C 128.816406 144.273438 128.832031 144.382812 128.847656 144.492188 C 128.710938 144.664062 128.535156 144.988281 127.988281 144.722656 C 127.738281 144.492188 127.660156 144.089844 127.875 143.808594 C 128.625 142.875 129.492188 144.082031 134.054688 144.035156 Z M 134.054688 144.035156 " fill-opacity="1" fill-rule="nonzero"/><path fill="#000000" d="M 111.519531 79.367188 C 111.523438 79.359375 111.523438 79.351562 111.527344 79.34375 C 111.523438 79.335938 111.523438 79.324219 111.519531 79.3125 C 111.515625 79.324219 111.515625 79.335938 111.515625 79.34375 C 111.515625 79.351562 111.519531 79.359375 111.519531 79.367188 Z M 111.519531 79.367188 " fill-opacity="1" fill-rule="nonzero"/><path fill="#000000" d="M 143.472656 111.316406 C 143.476562 111.320312 143.484375 111.320312 143.492188 111.324219 C 143.503906 111.320312 143.515625 111.320312 143.527344 111.316406 C 143.515625 111.3125 143.503906 111.3125 143.492188 111.3125 C 143.484375 111.3125 143.476562 111.3125 143.472656 111.316406 Z M 143.472656 111.316406 " fill-opacity="1" fill-rule="nonzero"/><path fill="#000000" d="M 111.519531 143.265625 C 111.519531 143.273438 111.515625 143.28125 111.515625 143.289062 C 111.515625 143.300781 111.515625 143.308594 111.519531 143.324219 C 111.523438 143.308594 111.523438 143.300781 111.527344 143.289062 C 111.523438 143.28125 111.523438 143.273438 111.519531 143.265625 Z M 111.519531 143.265625 " fill-opacity="1" fill-rule="nonzero"/><path fill="#000000" d="M 79.570312 111.316406 C 79.5625 111.3125 79.554688 111.3125 79.546875 111.3125 C 79.539062 111.3125 79.527344 111.3125 79.515625 111.316406 C 79.527344 111.320312 79.539062 111.320312 79.546875 111.324219 C 79.554688 111.320312 79.5625 111.320312 79.570312 111.316406 Z M 79.570312 111.316406 " fill-opacity="1" fill-rule="nonzero"/><g clip-path="url(#428d6ceaf1)"><path fill="#000000" d="M 115.855469 78.894531 C 117.863281 78.65625 117.28125 78.609375 118.207031 78.730469 C 119.277344 78.957031 119.042969 79.847656 118.691406 80.039062 C 118.125 80.324219 117.566406 79.90625 117.859375 79.53125 C 118.292969 79.332031 118.21875 79.765625 118.222656 79.972656 C 118.796875 79.789062 118.777344 79.015625 117.796875 79.070312 C 116.316406 79.796875 117.980469 81.382812 119.285156 80.171875 C 119.515625 79.894531 119.503906 79.503906 119.46875 79.160156 C 119.953125 79.8125 120.757812 80.066406 121.5 80.292969 C 120.84375 80.515625 118.386719 80.816406 117.609375 80.75 C 117.125 80.699219 116.480469 80.269531 116.25 79.988281 C 116.011719 79.675781 115.808594 79.300781 115.855469 78.894531 Z M 79.097656 106.984375 C 78.859375 104.976562 78.8125 105.554688 78.933594 104.632812 C 79.160156 103.5625 80.050781 103.792969 80.242188 104.148438 C 80.527344 104.710938 80.109375 105.269531 79.734375 104.980469 C 79.535156 104.542969 79.972656 104.617188 80.175781 104.617188 C 79.992188 104.039062 79.21875 104.058594 79.273438 105.039062 C 80 106.519531 81.585938 104.855469 80.375 103.554688 C 80.097656 103.320312 79.707031 103.332031 79.363281 103.367188 C 80.015625 102.882812 80.269531 102.082031 80.496094 101.335938 C 80.71875 101.992188 81.019531 104.449219 80.953125 105.226562 C 80.902344 105.710938 80.472656 106.359375 80.191406 106.585938 C 79.882812 106.824219 79.503906 107.027344 79.097656 106.984375 Z M 107.1875 143.738281 C 105.179688 143.976562 105.757812 144.023438 104.835938 143.902344 C 103.765625 143.675781 104 142.789062 104.351562 142.597656 C 104.914062 142.3125 105.472656 142.730469 105.183594 143.101562 C 104.746094 143.300781 104.820312 142.867188 104.820312 142.660156 C 104.242188 142.84375 104.261719 143.621094 105.242188 143.5625 C 106.722656 142.835938 105.058594 141.25 103.757812 142.460938 C 103.527344 142.742188 103.535156 143.132812 103.570312 143.472656 C 103.085938 142.820312 102.285156 142.566406 101.542969 142.339844 C 102.195312 142.117188 104.652344 141.816406 105.433594 141.886719 C 105.914062 141.933594 106.5625 142.367188 106.789062 142.644531 C 107.027344 142.957031 107.234375 143.332031 107.1875 143.738281 Z M 143.941406 115.652344 C 144.179688 117.65625 144.226562 117.078125 144.105469 118.003906 C 143.882812 119.074219 142.992188 118.839844 142.800781 118.484375 C 142.515625 117.921875 142.933594 117.363281 143.304688 117.65625 C 143.503906 118.089844 143.070312 118.015625 142.863281 118.019531 C 143.046875 118.59375 143.824219 118.574219 143.765625 117.59375 C 143.039062 116.113281 141.453125 117.777344 142.664062 119.082031 C 142.945312 119.3125 143.335938 119.300781 143.675781 119.265625 C 143.027344 119.75 142.769531 120.554688 142.542969 121.296875 C 142.324219 120.640625 142.023438 118.183594 142.089844 117.40625 C 142.136719 116.921875 142.570312 116.273438 142.847656 116.046875 C 143.160156 115.808594 143.535156 115.605469 143.941406 115.652344 Z M 142.847656 106.585938 C 142.570312 106.359375 142.136719 105.710938 142.089844 105.226562 C 142.023438 104.449219 142.324219 101.992188 142.542969 101.335938 C 142.769531 102.082031 143.027344 102.882812 143.675781 103.367188 C 143.335938 103.332031 142.945312 103.320312 142.664062 103.554688 C 141.453125 104.855469 143.039062 106.519531 143.765625 105.039062 C 143.824219 104.058594 143.046875 104.039062 142.863281 104.617188 C 143.070312 104.617188 143.503906 104.542969 143.304688 104.980469 C 142.933594 105.269531 142.515625 104.710938 142.800781 104.148438 C 142.992188 103.792969 143.882812 103.5625 144.105469 104.632812 C 144.226562 105.554688 144.179688 104.976562 143.941406 106.984375 C 143.535156 107.027344 143.160156 106.824219 142.847656 106.585938 Z M 106.789062 79.988281 C 106.5625 80.269531 105.914062 80.699219 105.433594 80.75 C 104.652344 80.816406 102.195312 80.515625 101.542969 80.292969 C 102.285156 80.066406 103.085938 79.8125 103.570312 79.160156 C 103.535156 79.503906 103.527344 79.894531 103.757812 80.171875 C 105.058594 81.382812 106.722656 79.796875 105.242188 79.070312 C 104.261719 79.015625 104.242188 79.789062 104.820312 79.972656 C 104.820312 79.765625 104.746094 79.332031 105.183594 79.53125 C 105.472656 79.90625 104.914062 80.324219 104.351562 80.039062 C 104 79.847656 103.765625 78.957031 104.835938 78.730469 C 105.757812 78.609375 105.179688 78.65625 107.1875 78.894531 C 107.234375 79.300781 107.027344 79.675781 106.789062 79.988281 Z M 80.191406 116.046875 C 80.472656 116.273438 80.902344 116.921875 80.953125 117.40625 C 81.019531 118.183594 80.71875 120.640625 80.496094 121.296875 C 80.269531 120.554688 80.015625 119.75 79.363281 119.265625 C 79.707031 119.300781 80.097656 119.3125 80.375 119.082031 C 81.585938 117.777344 80 116.113281 79.273438 117.59375 C 79.21875 118.574219 79.992188 118.59375 80.175781 118.019531 C 79.972656 118.015625 79.535156 118.089844 79.734375 117.65625 C 80.109375 117.363281 80.527344 117.921875 80.242188 118.484375 C 80.050781 118.839844 79.160156 119.074219 78.933594 118.003906 C 78.8125 117.078125 78.859375 117.65625 79.097656 115.652344 C 79.503906 115.605469 79.882812 115.808594 80.191406 116.046875 Z M 116.25 142.644531 C 116.480469 142.367188 117.125 141.933594 117.609375 141.886719 C 118.386719 141.816406 120.84375 142.117188 121.5 142.339844 C 120.757812 142.566406 119.953125 142.820312 119.46875 143.472656 C 119.503906 143.132812 119.515625 142.742188 119.285156 142.460938 C 117.980469 141.25 116.316406 142.835938 117.796875 143.5625 C 118.777344 143.621094 118.796875 142.84375 118.222656 142.660156 C 118.21875 142.867188 118.292969 143.300781 117.859375 143.101562 C 117.566406 142.730469 118.125 142.3125 118.691406 142.597656 C 119.042969 142.789062 119.277344 143.675781 118.207031 143.902344 C 117.28125 144.023438 117.863281 143.976562 115.855469 143.738281 C 115.808594 143.332031 116.011719 142.957031 116.25 142.644531 Z M 112.414062 78.28125 C 113.054688 78.457031 113.742188 78.742188 115.222656 78.910156 C 115.316406 79.691406 115.859375 80.347656 116.511719 80.746094 C 113.960938 80.957031 112.335938 79.230469 112.414062 78.28125 Z M 78.484375 110.421875 C 78.660156 109.78125 78.945312 109.097656 79.117188 107.613281 C 79.898438 107.519531 80.550781 106.976562 80.949219 106.324219 C 81.160156 108.875 79.433594 110.503906 78.484375 110.421875 Z M 110.625 144.351562 C 109.984375 144.179688 109.300781 143.890625 107.816406 143.722656 C 107.722656 142.941406 107.179688 142.289062 106.527344 141.886719 C 109.078125 141.675781 110.707031 143.402344 110.625 144.351562 Z M 144.558594 112.210938 C 144.382812 112.851562 144.09375 113.539062 143.925781 115.019531 C 143.144531 115.113281 142.492188 115.65625 142.089844 116.308594 C 141.878906 113.757812 143.605469 112.132812 144.558594 112.210938 Z M 142.089844 106.324219 C 142.492188 106.976562 143.144531 107.519531 143.925781 107.613281 C 144.09375 109.097656 144.382812 109.78125 144.558594 110.421875 C 143.605469 110.503906 141.878906 108.875 142.089844 106.324219 Z M 106.527344 80.746094 C 107.179688 80.347656 107.722656 79.691406 107.816406 78.910156 C 109.300781 78.742188 109.984375 78.457031 110.625 78.28125 C 110.707031 79.230469 109.078125 80.957031 106.527344 80.746094 Z M 80.949219 116.308594 C 80.550781 115.65625 79.898438 115.113281 79.117188 115.019531 C 78.945312 113.539062 78.660156 112.851562 78.484375 112.210938 C 79.433594 112.132812 81.160156 113.757812 80.949219 116.308594 Z M 116.511719 141.886719 C 115.859375 142.289062 115.316406 142.941406 115.222656 143.722656 C 113.742188 143.890625 113.054688 144.179688 112.414062 144.351562 C 112.335938 143.402344 113.960938 141.675781 116.511719 141.886719 Z M 111.519531 77.929688 C 111.546875 77.945312 111.574219 77.960938 111.601562 77.976562 C 111.84375 78.402344 111.597656 78.898438 113.050781 80.207031 C 112.667969 80.15625 112.066406 79.984375 111.519531 79.984375 C 110.976562 79.984375 110.375 80.15625 109.988281 80.207031 C 111.445312 78.898438 111.199219 78.402344 111.441406 77.976562 C 111.46875 77.960938 111.492188 77.945312 111.519531 77.929688 Z M 78.132812 111.316406 C 78.148438 111.289062 78.164062 111.265625 78.179688 111.238281 C 78.605469 110.996094 79.101562 111.238281 80.410156 109.785156 C 80.359375 110.167969 80.1875 110.773438 80.1875 111.316406 C 80.1875 111.863281 80.359375 112.464844 80.410156 112.847656 C 79.101562 111.394531 78.605469 111.636719 78.179688 111.394531 C 78.164062 111.371094 78.148438 111.34375 78.132812 111.316406 Z M 111.519531 144.703125 C 111.492188 144.6875 111.46875 144.675781 111.441406 144.660156 C 111.199219 144.234375 111.445312 143.738281 109.988281 142.425781 C 110.375 142.480469 110.976562 142.648438 111.519531 142.648438 C 112.066406 142.648438 112.667969 142.480469 113.050781 142.425781 C 111.597656 143.738281 111.84375 144.234375 111.601562 144.660156 C 111.574219 144.675781 111.546875 144.6875 111.519531 144.703125 Z M 144.90625 111.316406 C 144.890625 111.34375 144.878906 111.371094 144.863281 111.394531 C 144.4375 111.636719 143.941406 111.394531 142.628906 112.847656 C 142.683594 112.464844 142.851562 111.863281 142.851562 111.316406 C 142.851562 110.773438 142.683594 110.167969 142.628906 109.785156 C 143.941406 111.238281 144.4375 110.996094 144.863281 111.238281 C 144.878906 111.265625 144.890625 111.289062 144.90625 111.316406 Z M 111.519531 81.09375 C 111.523438 81.09375 111.53125 81.09375 111.535156 81.097656 C 111.53125 81.101562 111.523438 81.109375 111.519531 81.113281 C 111.515625 81.109375 111.511719 81.101562 111.507812 81.097656 C 111.511719 81.09375 111.515625 81.09375 111.519531 81.09375 Z M 81.296875 111.316406 C 81.296875 111.3125 81.300781 111.308594 81.300781 111.304688 C 81.304688 111.308594 81.3125 111.3125 81.316406 111.316406 C 81.3125 111.320312 81.304688 111.324219 81.300781 111.332031 C 81.300781 111.328125 81.296875 111.320312 81.296875 111.316406 Z M 111.519531 80.382812 C 111.640625 80.378906 111.78125 80.390625 111.9375 80.417969 C 112.601562 80.46875 115.304688 81.484375 118.902344 81.175781 C 122.589844 80.902344 127.421875 78.609375 128.996094 79.992188 C 129.257812 80.246094 129.410156 80.671875 129.203125 81.007812 C 128.765625 81.8125 127.1875 81.417969 127.5625 80.402344 C 127.671875 80.417969 127.777344 80.425781 127.878906 80.457031 C 128.007812 80.601562 128.03125 80.808594 128.097656 80.980469 C 128.191406 80.859375 128.273438 80.730469 128.355469 80.597656 C 128.140625 79.8125 127.84375 79.84375 127.230469 80.054688 C 127.144531 80.1875 127.058594 80.324219 126.992188 80.46875 C 126.917969 81.054688 127.042969 81.570312 127.675781 81.828125 C 130.085938 82.769531 131.152344 78.851562 127.238281 79.117188 C 128.050781 78.171875 127.316406 77.304688 126.324219 77.363281 C 126.050781 77.429688 125.894531 77.691406 125.765625 77.917969 C 125.714844 78.167969 125.777344 78.414062 125.898438 78.632812 C 126.132812 78.71875 126.402344 78.886719 126.644531 78.722656 C 126.824219 78.640625 126.84375 78.429688 126.855469 78.253906 C 126.667969 78.289062 126.476562 78.390625 126.285156 78.328125 C 126.027344 77.964844 126.574219 77.546875 127.027344 78.046875 C 127.441406 78.894531 125.734375 79.222656 125.003906 79.429688 C 122.855469 80.097656 121.035156 79.746094 120.398438 79.375 C 119.867188 79.0625 119.546875 78.320312 119.925781 77.769531 C 120.601562 77.136719 121.398438 78.070312 120.957031 78.457031 C 120.851562 78.578125 120.691406 78.472656 120.5625 78.457031 C 120.582031 78.277344 120.695312 78.101562 120.632812 77.917969 C 120.488281 77.964844 120.363281 78.046875 120.238281 78.125 C 120.222656 78.613281 120.183594 78.574219 120.597656 78.9375 C 120.789062 78.941406 120.976562 78.933594 121.164062 78.910156 C 122.089844 78 120.9375 76.65625 119.695312 77.25 C 119.203125 77.746094 119.082031 78.125 119.296875 78.875 C 118.980469 78.566406 118.5625 78.410156 118.132812 78.335938 C 118.554688 78.066406 119.691406 77.425781 119.164062 76.351562 C 118.191406 74.882812 115.820312 76.546875 117.472656 77.53125 C 118.289062 77.742188 118.46875 77.441406 118.550781 76.738281 C 118.003906 76.175781 117.78125 76.46875 117.585938 76.761719 C 117.71875 76.78125 117.855469 76.796875 117.988281 76.816406 C 117.984375 76.863281 117.972656 76.957031 117.96875 77.003906 C 116.921875 77.070312 117.515625 75.746094 118.582031 76.382812 C 119.375 77.957031 116.550781 79.277344 111.792969 77.621094 C 111.695312 77.585938 111.605469 77.558594 111.519531 77.523438 C 111.433594 77.558594 111.34375 77.585938 111.25 77.621094 C 106.488281 79.277344 103.664062 77.957031 104.460938 76.382812 C 105.523438 75.746094 106.121094 77.070312 105.070312 77.003906 C 105.066406 76.957031 105.058594 76.863281 105.054688 76.816406 C 105.1875 76.796875 105.320312 76.78125 105.457031 76.761719 C 105.261719 76.46875 105.039062 76.175781 104.492188 76.738281 C 104.570312 77.441406 104.753906 77.742188 105.570312 77.53125 C 107.222656 76.546875 104.847656 74.882812 103.875 76.351562 C 103.347656 77.425781 104.488281 78.066406 104.90625 78.335938 C 104.480469 78.410156 104.058594 78.566406 103.742188 78.875 C 103.960938 78.125 103.835938 77.746094 103.34375 77.25 C 102.101562 76.65625 100.949219 78 101.878906 78.910156 C 102.066406 78.933594 102.253906 78.941406 102.441406 78.9375 C 102.855469 78.574219 102.816406 78.613281 102.804688 78.125 C 102.679688 78.046875 102.550781 77.964844 102.410156 77.917969 C 102.347656 78.101562 102.460938 78.277344 102.476562 78.457031 C 102.347656 78.472656 102.191406 78.578125 102.082031 78.457031 C 101.640625 78.070312 102.4375 77.136719 103.113281 77.769531 C 103.492188 78.320312 103.171875 79.0625 102.640625 79.375 C 102.003906 79.746094 100.1875 80.097656 98.039062 79.429688 C 97.308594 79.222656 95.601562 78.894531 96.011719 78.046875 C 96.46875 77.546875 97.011719 77.964844 96.757812 78.328125 C 96.5625 78.390625 96.371094 78.289062 96.183594 78.253906 C 96.199219 78.429688 96.21875 78.640625 96.398438 78.722656 C 96.636719 78.886719 96.910156 78.71875 97.144531 78.632812 C 97.261719 78.414062 97.328125 78.167969 97.273438 77.917969 C 97.148438 77.691406 96.988281 77.429688 96.714844 77.363281 C 95.722656 77.304688 94.992188 78.171875 95.804688 79.117188 C 91.886719 78.851562 92.953125 82.769531 95.363281 81.828125 C 95.996094 81.570312 96.121094 81.054688 96.046875 80.46875 C 95.980469 80.324219 95.898438 80.1875 95.8125 80.054688 C 95.199219 79.84375 94.898438 79.8125 94.683594 80.597656 C 94.765625 80.730469 94.847656 80.859375 94.945312 80.980469 C 95.011719 80.808594 95.03125 80.601562 95.160156 80.457031 C 95.261719 80.425781 95.371094 80.417969 95.476562 80.402344 C 95.851562 81.417969 94.273438 81.8125 93.835938 81.007812 C 93.628906 80.671875 93.78125 80.246094 94.046875 79.992188 C 95.621094 78.609375 100.453125 80.902344 104.136719 81.175781 C 107.738281 81.484375 110.4375 80.46875 111.101562 80.417969 C 111.257812 80.390625 111.398438 80.378906 111.519531 80.382812 Z M 80.585938 111.316406 C 80.582031 111.195312 80.59375 111.054688 80.621094 110.898438 C 80.671875 110.234375 81.6875 107.535156 81.378906 103.933594 C 81.109375 100.25 78.8125 95.417969 80.195312 93.84375 C 80.449219 93.578125 80.875 93.425781 81.210938 93.632812 C 82.015625 94.070312 81.621094 95.648438 80.609375 95.273438 C 80.621094 95.167969 80.628906 95.058594 80.660156 94.957031 C 80.804688 94.828125 81.011719 94.808594 81.183594 94.742188 C 81.0625 94.644531 80.933594 94.5625 80.804688 94.480469 C 80.015625 94.695312 80.046875 94.996094 80.257812 95.609375 C 80.390625 95.695312 80.527344 95.777344 80.671875 95.84375 C 81.257812 95.917969 81.773438 95.792969 82.035156 95.160156 C 82.972656 92.75 79.054688 91.683594 79.324219 95.601562 C 78.375 94.789062 77.507812 95.519531 77.566406 96.511719 C 77.632812 96.785156 77.894531 96.945312 78.125 97.070312 C 78.371094 97.121094 78.617188 97.058594 78.835938 96.9375 C 78.921875 96.703125 79.089844 96.433594 78.925781 96.195312 C 78.84375 96.015625 78.632812 95.996094 78.460938 95.980469 C 78.492188 96.167969 78.59375 96.359375 78.53125 96.554688 C 78.167969 96.808594 77.753906 96.265625 78.25 95.808594 C 79.101562 95.398438 79.425781 97.105469 79.636719 97.835938 C 80.300781 99.984375 79.949219 101.800781 79.578125 102.4375 C 79.265625 102.96875 78.523438 103.289062 77.976562 102.910156 C 77.339844 102.234375 78.273438 101.4375 78.664062 101.878906 C 78.78125 101.984375 78.675781 102.144531 78.660156 102.273438 C 78.480469 102.257812 78.304688 102.144531 78.121094 102.207031 C 78.171875 102.347656 78.25 102.472656 78.328125 102.601562 C 78.820312 102.613281 78.777344 102.652344 79.140625 102.238281 C 79.144531 102.050781 79.136719 101.863281 79.113281 101.675781 C 78.203125 100.746094 76.859375 101.898438 77.453125 103.140625 C 77.949219 103.632812 78.328125 103.757812 79.078125 103.539062 C 78.769531 103.855469 78.613281 104.277344 78.539062 104.703125 C 78.269531 104.285156 77.628906 103.144531 76.554688 103.671875 C 75.085938 104.644531 76.75 107.015625 77.734375 105.367188 C 77.945312 104.546875 77.648438 104.367188 76.941406 104.285156 C 76.378906 104.835938 76.671875 105.054688 76.964844 105.253906 C 76.984375 105.117188 77 104.984375 77.019531 104.851562 C 77.066406 104.855469 77.160156 104.863281 77.207031 104.867188 C 77.273438 105.917969 75.949219 105.320312 76.585938 104.257812 C 78.160156 103.460938 79.480469 106.285156 77.824219 111.046875 C 77.789062 111.140625 77.761719 111.230469 77.726562 111.316406 C 77.761719 111.402344 77.789062 111.492188 77.824219 111.589844 C 79.480469 116.347656 78.160156 119.171875 76.585938 118.378906 C 75.949219 117.3125 77.273438 116.71875 77.207031 117.765625 C 77.160156 117.769531 77.066406 117.78125 77.019531 117.785156 C 77 117.648438 76.984375 117.515625 76.964844 117.382812 C 76.671875 117.578125 76.378906 117.800781 76.941406 118.347656 C 77.648438 118.265625 77.945312 118.085938 77.734375 117.269531 C 76.75 115.617188 75.085938 117.988281 76.554688 118.960938 C 77.628906 119.488281 78.269531 118.351562 78.539062 117.929688 C 78.613281 118.359375 78.769531 118.777344 79.078125 119.09375 C 78.328125 118.878906 77.949219 119 77.453125 119.492188 C 76.859375 120.734375 78.203125 121.886719 79.113281 120.957031 C 79.136719 120.773438 79.144531 120.582031 79.140625 120.394531 C 78.777344 119.980469 78.820312 120.019531 78.328125 120.035156 C 78.25 120.160156 78.171875 120.285156 78.121094 120.429688 C 78.304688 120.492188 78.480469 120.378906 78.660156 120.359375 C 78.675781 120.488281 78.78125 120.648438 78.664062 120.753906 C 78.273438 121.195312 77.339844 120.398438 77.976562 119.722656 C 78.523438 119.34375 79.265625 119.664062 79.578125 120.195312 C 79.949219 120.832031 80.300781 122.652344 79.636719 124.800781 C 79.425781 125.527344 79.101562 127.238281 78.25 126.824219 C 77.753906 126.371094 78.167969 125.824219 78.53125 126.082031 C 78.59375 126.273438 78.492188 126.464844 78.460938 126.652344 C 78.632812 126.640625 78.84375 126.621094 78.925781 126.441406 C 79.089844 126.199219 78.921875 125.929688 78.835938 125.695312 C 78.617188 125.574219 78.371094 125.511719 78.125 125.5625 C 77.894531 125.6875 77.632812 125.847656 77.566406 126.121094 C 77.507812 127.113281 78.375 127.847656 79.324219 127.035156 C 79.054688 130.949219 82.972656 129.882812 82.035156 127.472656 C 81.773438 126.839844 81.257812 126.714844 80.671875 126.789062 C 80.527344 126.855469 80.390625 126.941406 80.257812 127.027344 C 80.046875 127.640625 80.015625 127.9375 80.804688 128.152344 C 80.933594 128.070312 81.0625 127.988281 81.183594 127.894531 C 81.011719 127.824219 80.804688 127.804688 80.660156 127.675781 C 80.628906 127.574219 80.621094 127.464844 80.609375 127.359375 C 81.621094 126.984375 82.015625 128.5625 81.210938 129 C 80.875 129.207031 80.449219 129.054688 80.195312 128.789062 C 78.8125 127.21875 81.109375 122.386719 81.378906 118.699219 C 81.6875 115.101562 80.671875 112.398438 80.621094 111.734375 C 80.59375 111.578125 80.582031 111.4375 80.585938 111.316406 Z M 111.519531 142.253906 C 111.398438 142.253906 111.257812 142.246094 111.101562 142.214844 C 110.4375 142.164062 107.738281 141.152344 104.136719 141.457031 C 100.453125 141.730469 95.621094 144.023438 94.046875 142.640625 C 93.78125 142.386719 93.628906 141.964844 93.835938 141.628906 C 94.273438 140.820312 95.851562 141.21875 95.476562 142.230469 C 95.371094 142.214844 95.261719 142.210938 95.160156 142.175781 C 95.03125 142.03125 95.011719 141.828125 94.945312 141.652344 C 94.847656 141.773438 94.765625 141.902344 94.683594 142.035156 C 94.898438 142.820312 95.199219 142.789062 95.8125 142.582031 C 95.898438 142.449219 95.980469 142.3125 96.046875 142.167969 C 96.121094 141.578125 95.996094 141.066406 95.363281 140.804688 C 92.953125 139.863281 91.886719 143.78125 95.804688 143.515625 C 94.992188 144.460938 95.722656 145.328125 96.714844 145.273438 C 96.988281 145.203125 97.148438 144.945312 97.273438 144.714844 C 97.328125 144.464844 97.261719 144.21875 97.144531 144 C 96.910156 143.917969 96.636719 143.746094 96.398438 143.914062 C 96.21875 143.996094 96.199219 144.207031 96.183594 144.378906 C 96.371094 144.34375 96.5625 144.246094 96.757812 144.304688 C 97.011719 144.667969 96.46875 145.085938 96.011719 144.585938 C 95.601562 143.738281 97.308594 143.410156 98.039062 143.203125 C 100.1875 142.535156 102.003906 142.890625 102.640625 143.257812 C 103.171875 143.570312 103.492188 144.3125 103.113281 144.863281 C 102.4375 145.496094 101.640625 144.5625 102.082031 144.175781 C 102.191406 144.054688 102.347656 144.164062 102.476562 144.175781 C 102.460938 144.355469 102.347656 144.535156 102.410156 144.714844 C 102.550781 144.667969 102.679688 144.585938 102.804688 144.507812 C 102.816406 144.019531 102.855469 144.058594 102.441406 143.695312 C 102.253906 143.695312 102.066406 143.703125 101.878906 143.722656 C 100.949219 144.632812 102.101562 145.980469 103.34375 145.382812 C 103.835938 144.890625 103.960938 144.507812 103.742188 143.761719 C 104.058594 144.066406 104.480469 144.226562 104.90625 144.300781 C 104.488281 144.566406 103.347656 145.207031 103.875 146.285156 C 104.847656 147.75 107.222656 146.085938 105.570312 145.101562 C 104.753906 144.890625 104.570312 145.191406 104.492188 145.894531 C 105.039062 146.460938 105.261719 146.164062 105.457031 145.875 C 105.320312 145.855469 105.1875 145.835938 105.054688 145.816406 C 105.058594 145.769531 105.066406 145.675781 105.070312 145.628906 C 106.121094 145.566406 105.523438 146.890625 104.460938 146.25 C 103.664062 144.675781 106.488281 143.355469 111.25 145.011719 C 111.34375 145.046875 111.433594 145.078125 111.519531 145.109375 C 111.605469 145.078125 111.695312 145.046875 111.792969 145.011719 C 116.550781 143.355469 119.375 144.675781 118.582031 146.25 C 117.515625 146.890625 116.921875 145.566406 117.96875 145.628906 C 117.972656 145.675781 117.984375 145.769531 117.988281 145.816406 C 117.855469 145.835938 117.71875 145.855469 117.585938 145.875 C 117.78125 146.164062 118.003906 146.460938 118.550781 145.894531 C 118.46875 145.191406 118.289062 144.890625 117.472656 145.101562 C 115.820312 146.085938 118.191406 147.75 119.164062 146.285156 C 119.691406 145.207031 118.554688 144.566406 118.132812 144.300781 C 118.5625 144.226562 118.980469 144.066406 119.296875 143.761719 C 119.082031 144.507812 119.203125 144.890625 119.695312 145.382812 C 120.9375 145.980469 122.089844 144.632812 121.164062 143.722656 C 120.976562 143.703125 120.789062 143.695312 120.597656 143.695312 C 120.183594 144.058594 120.222656 144.019531 120.238281 144.507812 C 120.363281 144.585938 120.488281 144.667969 120.632812 144.714844 C 120.695312 144.535156 120.582031 144.355469 120.5625 144.175781 C 120.691406 144.164062 120.851562 144.054688 120.957031 144.175781 C 121.398438 144.5625 120.601562 145.496094 119.925781 144.863281 C 119.546875 144.3125 119.867188 143.570312 120.402344 143.257812 C 121.035156 142.890625 122.855469 142.535156 125.003906 143.203125 C 125.734375 143.410156 127.441406 143.738281 127.027344 144.585938 C 126.574219 145.085938 126.027344 144.667969 126.285156 144.304688 C 126.476562 144.246094 126.667969 144.34375 126.855469 144.378906 C 126.84375 144.207031 126.824219 143.996094 126.644531 143.914062 C 126.402344 143.746094 126.132812 143.917969 125.898438 144 C 125.777344 144.21875 125.714844 144.464844 125.765625 144.714844 C 125.894531 144.945312 126.050781 145.203125 126.324219 145.273438 C 127.320312 145.328125 128.050781 144.460938 127.238281 143.515625 C 131.152344 143.78125 130.085938 139.863281 127.675781 140.804688 C 127.042969 141.066406 126.917969 141.578125 126.992188 142.167969 C 127.058594 142.3125 127.144531 142.449219 127.230469 142.582031 C 127.84375 142.789062 128.140625 142.820312 128.355469 142.035156 C 128.277344 141.902344 128.191406 141.773438 128.097656 141.652344 C 128.03125 141.828125 128.007812 142.03125 127.878906 142.175781 C 127.777344 142.210938 127.671875 142.214844 127.5625 142.230469 C 127.1875 141.21875 128.765625 140.820312 129.203125 141.628906 C 129.410156 141.964844 129.257812 142.386719 128.996094 142.640625 C 127.421875 144.023438 122.589844 141.730469 118.902344 141.457031 C 115.304688 141.152344 112.601562 142.164062 111.9375 142.214844 C 111.78125 142.246094 111.640625 142.253906 111.519531 142.253906 Z M 142.457031 111.316406 C 142.460938 111.4375 142.449219 111.578125 142.417969 111.734375 C 142.367188 112.398438 141.355469 115.101562 141.660156 118.699219 C 141.933594 122.386719 144.226562 127.21875 142.84375 128.789062 C 142.589844 129.054688 142.167969 129.207031 141.832031 129 C 141.023438 128.5625 141.421875 126.984375 142.433594 127.359375 C 142.417969 127.464844 142.414062 127.574219 142.378906 127.675781 C 142.234375 127.804688 142.03125 127.824219 141.855469 127.894531 C 141.976562 127.988281 142.105469 128.070312 142.238281 128.152344 C 143.023438 127.9375 142.996094 127.640625 142.785156 127.027344 C 142.652344 126.941406 142.515625 126.855469 142.371094 126.789062 C 141.78125 126.714844 141.269531 126.839844 141.007812 127.472656 C 140.066406 129.882812 143.984375 130.949219 143.71875 127.03125 C 144.664062 127.847656 145.53125 127.113281 145.476562 126.121094 C 145.410156 125.847656 145.148438 125.6875 144.917969 125.5625 C 144.667969 125.511719 144.421875 125.574219 144.203125 125.695312 C 144.121094 125.929688 143.949219 126.199219 144.117188 126.441406 C 144.199219 126.621094 144.410156 126.640625 144.582031 126.652344 C 144.546875 126.464844 144.449219 126.273438 144.511719 126.082031 C 144.871094 125.824219 145.289062 126.371094 144.789062 126.824219 C 143.941406 127.234375 143.613281 125.527344 143.40625 124.800781 C 142.738281 122.652344 143.09375 120.832031 143.460938 120.195312 C 143.773438 119.664062 144.519531 119.34375 145.066406 119.722656 C 145.703125 120.398438 144.765625 121.195312 144.378906 120.753906 C 144.257812 120.648438 144.367188 120.488281 144.378906 120.359375 C 144.558594 120.378906 144.738281 120.492188 144.917969 120.429688 C 144.871094 120.285156 144.789062 120.160156 144.710938 120.035156 C 144.222656 120.019531 144.261719 119.980469 143.898438 120.394531 C 143.898438 120.582031 143.90625 120.773438 143.925781 120.957031 C 144.835938 121.886719 146.183594 120.734375 145.585938 119.492188 C 145.09375 119 144.710938 118.878906 143.964844 119.09375 C 144.269531 118.777344 144.429688 118.359375 144.503906 117.929688 C 144.769531 118.351562 145.410156 119.488281 146.488281 118.960938 C 147.953125 117.988281 146.289062 115.617188 145.304688 117.269531 C 145.09375 118.085938 145.394531 118.265625 146.097656 118.347656 C 146.664062 117.800781 146.367188 117.578125 146.078125 117.382812 C 146.058594 117.515625 146.039062 117.648438 146.019531 117.785156 C 145.972656 117.78125 145.878906 117.769531 145.832031 117.765625 C 145.769531 116.71875 147.09375 117.3125 146.453125 118.378906 C 144.878906 119.171875 143.558594 116.347656 145.21875 111.589844 C 145.25 111.492188 145.28125 111.402344 145.3125 111.316406 C 145.28125 111.230469 145.25 111.140625 145.21875 111.046875 C 143.558594 106.285156 144.878906 103.460938 146.453125 104.257812 C 147.09375 105.320312 145.769531 105.917969 145.832031 104.867188 C 145.878906 104.863281 145.972656 104.855469 146.019531 104.851562 C 146.039062 104.984375 146.058594 105.117188 146.078125 105.253906 C 146.367188 105.054688 146.664062 104.835938 146.097656 104.285156 C 145.394531 104.367188 145.09375 104.546875 145.304688 105.367188 C 146.289062 107.015625 147.953125 104.644531 146.488281 103.671875 C 145.410156 103.144531 144.769531 104.285156 144.503906 104.703125 C 144.429688 104.277344 144.269531 103.855469 143.964844 103.539062 C 144.710938 103.757812 145.09375 103.632812 145.585938 103.140625 C 146.183594 101.898438 144.835938 100.746094 143.925781 101.675781 C 143.90625 101.863281 143.898438 102.050781 143.898438 102.238281 C 144.261719 102.652344 144.222656 102.613281 144.710938 102.601562 C 144.789062 102.472656 144.871094 102.347656 144.917969 102.207031 C 144.738281 102.144531 144.558594 102.257812 144.378906 102.273438 C 144.367188 102.144531 144.257812 101.984375 144.378906 101.878906 C 144.765625 101.4375 145.703125 102.234375 145.066406 102.910156 C 144.519531 103.289062 143.773438 102.96875 143.460938 102.4375 C 143.09375 101.800781 142.738281 99.984375 143.40625 97.835938 C 143.613281 97.105469 143.941406 95.398438 144.789062 95.808594 C 145.289062 96.265625 144.871094 96.808594 144.511719 96.554688 C 144.449219 96.359375 144.546875 96.167969 144.582031 95.980469 C 144.410156 95.996094 144.199219 96.015625 144.117188 96.195312 C 143.949219 96.433594 144.121094 96.703125 144.203125 96.9375 C 144.421875 97.058594 144.667969 97.121094 144.917969 97.070312 C 145.148438 96.945312 145.410156 96.785156 145.476562 96.511719 C 145.53125 95.519531 144.664062 94.789062 143.71875 95.601562 C 143.984375 91.683594 140.066406 92.75 141.007812 95.160156 C 141.269531 95.792969 141.78125 95.917969 142.371094 95.84375 C 142.515625 95.777344 142.652344 95.695312 142.785156 95.609375 C 142.996094 94.996094 143.023438 94.695312 142.238281 94.480469 C 142.105469 94.5625 141.976562 94.644531 141.855469 94.742188 C 142.03125 94.808594 142.234375 94.828125 142.378906 94.957031 C 142.414062 95.058594 142.417969 95.167969 142.433594 95.273438 C 141.421875 95.648438 141.023438 94.070312 141.832031 93.632812 C 142.167969 93.425781 142.589844 93.578125 142.84375 93.84375 C 144.226562 95.417969 141.933594 100.25 141.660156 103.933594 C 141.355469 107.535156 142.367188 110.234375 142.417969 110.898438 C 142.449219 111.054688 142.460938 111.195312 142.457031 111.316406 Z M 142.457031 111.316406 " fill-opacity="1" fill-rule="nonzero"/></g><g fill="#000000" fill-opacity="1"><g transform="translate(90.611735, 99.802091)"><g><path d="M 2.917969 -5.082031 C 2.917969 -5.144531 2.878906 -5.183594 2.8125 -5.183594 L 0.425781 -5.183594 C 0.355469 -5.183594 0.324219 -5.144531 0.324219 -5.082031 L 0.324219 -0.105469 C 0.324219 -0.0390625 0.355469 0 0.425781 0 L 1.101562 0 C 1.167969 0 1.207031 -0.0390625 1.207031 -0.105469 L 1.207031 -2.171875 L 2.421875 -2.171875 C 2.488281 -2.171875 2.527344 -2.203125 2.527344 -2.273438 L 2.527344 -2.921875 C 2.527344 -2.988281 2.488281 -3.027344 2.421875 -3.027344 L 1.207031 -3.027344 L 1.207031 -4.328125 L 2.8125 -4.328125 C 2.878906 -4.328125 2.917969 -4.367188 2.917969 -4.433594 Z M 2.917969 -5.082031 "/></g></g></g><g fill="#000000" fill-opacity="1"><g transform="translate(93.851516, 99.802091)"><g><path d="M 1.207031 -0.855469 L 2.746094 -0.855469 C 2.820312 -0.855469 2.851562 -0.816406 2.851562 -0.75 L 2.851562 -0.105469 C 2.851562 -0.03125 2.820312 0 2.746094 0 L 0.425781 0 C 0.363281 0 0.324219 -0.03125 0.324219 -0.105469 L 0.324219 -5.082031 C 0.324219 -5.144531 0.363281 -5.183594 0.425781 -5.183594 L 1.101562 -5.183594 C 1.171875 -5.183594 1.207031 -5.144531 1.207031 -5.082031 Z M 1.207031 -0.855469 "/></g></g></g><g fill="#000000" fill-opacity="1"><g transform="translate(97.026501, 99.802091)"><g><path d="M 3.449219 0 C 3.523438 0 3.550781 -0.0390625 3.539062 -0.109375 L 2.460938 -5.09375 C 2.449219 -5.160156 2.410156 -5.183594 2.351562 -5.183594 L 1.453125 -5.183594 C 1.394531 -5.183594 1.355469 -5.160156 1.339844 -5.09375 L 0.265625 -0.109375 C 0.246094 -0.0390625 0.277344 0 0.351562 0 L 1.042969 0 C 1.101562 0 1.132812 -0.03125 1.148438 -0.0898438 L 1.320312 -1.035156 L 2.476562 -1.035156 L 2.65625 -0.0898438 C 2.667969 -0.03125 2.703125 0 2.761719 0 Z M 2.3125 -1.789062 L 1.484375 -1.789062 L 1.898438 -4.050781 Z M 2.3125 -1.789062 "/></g></g></g><g fill="#000000" fill-opacity="1"><g transform="translate(100.823523, 99.802091)"><g><path d="M 0.296875 -5.183594 C 0.234375 -5.183594 0.195312 -5.144531 0.195312 -5.082031 L 0.195312 -4.433594 C 0.195312 -4.367188 0.234375 -4.328125 0.296875 -4.328125 L 1.050781 -4.328125 L 1.050781 -0.105469 C 1.050781 -0.03125 1.089844 0 1.152344 0 L 1.828125 0 C 1.898438 0 1.929688 -0.03125 1.929688 -0.105469 L 1.929688 -4.328125 L 2.683594 -4.328125 C 2.753906 -4.328125 2.785156 -4.367188 2.785156 -4.433594 L 2.785156 -5.082031 C 2.785156 -5.144531 2.753906 -5.183594 2.683594 -5.183594 Z M 0.296875 -5.183594 "/></g></g></g><g fill="#000000" fill-opacity="1"><g transform="translate(103.804121, 99.802091)"><g/></g></g><g fill="#000000" fill-opacity="1"><g transform="translate(105.42401, 99.802091)"><g><path d="M 3.03125 -5.183594 C 2.953125 -5.183594 2.910156 -5.144531 2.890625 -5.066406 L 2.171875 -1.839844 L 1.453125 -5.066406 C 1.433594 -5.144531 1.386719 -5.183594 1.308594 -5.183594 L 0.453125 -5.183594 C 0.371094 -5.183594 0.324219 -5.140625 0.324219 -5.054688 L 0.324219 -0.128906 C 0.324219 -0.046875 0.371094 0 0.453125 0 L 1.050781 0 C 1.132812 0 1.179688 -0.046875 1.179688 -0.128906 L 1.179688 -3.046875 L 1.226562 -3.046875 L 1.867188 -0.117188 C 1.886719 -0.0390625 1.929688 0 2.007812 0 L 2.328125 0 C 2.402344 0 2.449219 -0.0390625 2.46875 -0.117188 L 3.109375 -3.046875 L 3.15625 -3.046875 L 3.15625 -0.128906 C 3.15625 -0.046875 3.203125 0 3.285156 0 L 3.886719 0 C 3.972656 0 4.019531 -0.046875 4.019531 -0.128906 L 4.019531 -5.054688 C 4.019531 -5.140625 3.972656 -5.183594 3.886719 -5.183594 Z M 3.03125 -5.183594 "/></g></g></g><g fill="#000000" fill-opacity="1"><g transform="translate(109.765316, 99.802091)"><g><path d="M 0.324219 -0.933594 C 0.324219 -0.324219 0.648438 0 1.257812 0 L 1.984375 0 C 2.59375 0 2.917969 -0.324219 2.917969 -0.933594 L 2.917969 -4.25 C 2.917969 -4.859375 2.59375 -5.183594 1.984375 -5.183594 L 1.257812 -5.183594 C 0.648438 -5.183594 0.324219 -4.859375 0.324219 -4.25 Z M 1.445312 -0.835938 C 1.277344 -0.835938 1.1875 -0.921875 1.1875 -1.09375 L 1.1875 -4.089844 C 1.1875 -4.257812 1.277344 -4.347656 1.445312 -4.347656 L 1.820312 -4.347656 C 1.988281 -4.347656 2.082031 -4.257812 2.082031 -4.089844 L 2.082031 -1.09375 C 2.082031 -0.921875 1.988281 -0.835938 1.820312 -0.835938 Z M 1.445312 -0.835938 "/></g></g></g><g fill="#000000" fill-opacity="1"><g transform="translate(113.005097, 99.802091)"><g><path d="M 2.3125 -5.183594 C 2.242188 -5.183594 2.210938 -5.144531 2.210938 -5.082031 L 2.210938 -2.347656 L 2.171875 -2.347656 L 1.1875 -5.101562 C 1.167969 -5.160156 1.128906 -5.183594 1.070312 -5.183594 L 0.425781 -5.183594 C 0.363281 -5.183594 0.324219 -5.144531 0.324219 -5.082031 L 0.324219 -0.105469 C 0.324219 -0.0390625 0.363281 0 0.425781 0 L 1.101562 0 C 1.171875 0 1.207031 -0.0390625 1.207031 -0.105469 L 1.207031 -2.851562 L 1.238281 -2.851562 L 2.230469 -0.0859375 C 2.25 -0.0273438 2.289062 0 2.347656 0 L 2.988281 0 C 3.050781 0 3.089844 -0.0390625 3.089844 -0.105469 L 3.089844 -5.082031 C 3.089844 -5.144531 3.050781 -5.183594 2.988281 -5.183594 Z M 2.3125 -5.183594 "/></g></g></g><g fill="#000000" fill-opacity="1"><g transform="translate(116.419824, 99.802091)"><g><path d="M 0.296875 -5.183594 C 0.234375 -5.183594 0.195312 -5.144531 0.195312 -5.082031 L 0.195312 -4.433594 C 0.195312 -4.367188 0.234375 -4.328125 0.296875 -4.328125 L 1.050781 -4.328125 L 1.050781 -0.105469 C 1.050781 -0.03125 1.089844 0 1.152344 0 L 1.828125 0 C 1.898438 0 1.929688 -0.03125 1.929688 -0.105469 L 1.929688 -4.328125 L 2.683594 -4.328125 C 2.753906 -4.328125 2.785156 -4.367188 2.785156 -4.433594 L 2.785156 -5.082031 C 2.785156 -5.144531 2.753906 -5.183594 2.683594 -5.183594 Z M 0.296875 -5.183594 "/></g></g></g><g fill="#000000" fill-opacity="1"><g transform="translate(119.400422, 99.802091)"><g><path d="M 2.035156 -3.019531 L 1.207031 -3.019531 L 1.207031 -5.082031 C 1.207031 -5.144531 1.167969 -5.183594 1.101562 -5.183594 L 0.433594 -5.183594 C 0.355469 -5.183594 0.324219 -5.144531 0.324219 -5.082031 L 0.324219 -0.105469 C 0.324219 -0.0390625 0.355469 0 0.433594 0 L 1.101562 0 C 1.167969 0 1.207031 -0.0390625 1.207031 -0.105469 L 1.207031 -2.164062 L 2.035156 -2.164062 L 2.035156 -0.105469 C 2.035156 -0.0390625 2.074219 0 2.136719 0 L 2.804688 0 C 2.882812 0 2.917969 -0.0390625 2.917969 -0.105469 L 2.917969 -5.082031 C 2.917969 -5.144531 2.882812 -5.183594 2.804688 -5.183594 L 2.136719 -5.183594 C 2.074219 -5.183594 2.035156 -5.144531 2.035156 -5.082031 Z M 2.035156 -3.019531 "/></g></g></g><g fill="#000000" fill-opacity="1"><g transform="translate(122.640203, 99.802091)"><g><path d="M 0.324219 -2.035156 C 0.324219 -1.949219 0.371094 -1.90625 0.453125 -1.90625 L 1.476562 -1.90625 C 1.5625 -1.90625 1.605469 -1.949219 1.605469 -2.035156 L 1.605469 -2.632812 C 1.605469 -2.714844 1.5625 -2.761719 1.476562 -2.761719 L 0.453125 -2.761719 C 0.371094 -2.761719 0.324219 -2.714844 0.324219 -2.632812 Z M 0.324219 -2.035156 "/></g></g></g><g fill="#000000" fill-opacity="1"><g transform="translate(124.571112, 99.802091)"><g><path d="M 0.296875 -5.183594 C 0.234375 -5.183594 0.195312 -5.144531 0.195312 -5.082031 L 0.195312 -4.433594 C 0.195312 -4.367188 0.234375 -4.328125 0.296875 -4.328125 L 1.050781 -4.328125 L 1.050781 -0.105469 C 1.050781 -0.03125 1.089844 0 1.152344 0 L 1.828125 0 C 1.898438 0 1.929688 -0.03125 1.929688 -0.105469 L 1.929688 -4.328125 L 2.683594 -4.328125 C 2.753906 -4.328125 2.785156 -4.367188 2.785156 -4.433594 L 2.785156 -5.082031 C 2.785156 -5.144531 2.753906 -5.183594 2.683594 -5.183594 Z M 0.296875 -5.183594 "/></g></g></g><g fill="#000000" fill-opacity="1"><g transform="translate(127.55171, 99.802091)"><g><path d="M 0.324219 -0.933594 C 0.324219 -0.324219 0.648438 0 1.257812 0 L 1.984375 0 C 2.59375 0 2.917969 -0.324219 2.917969 -0.933594 L 2.917969 -4.25 C 2.917969 -4.859375 2.59375 -5.183594 1.984375 -5.183594 L 1.257812 -5.183594 C 0.648438 -5.183594 0.324219 -4.859375 0.324219 -4.25 Z M 1.445312 -0.835938 C 1.277344 -0.835938 1.1875 -0.921875 1.1875 -1.09375 L 1.1875 -4.089844 C 1.1875 -4.257812 1.277344 -4.347656 1.445312 -4.347656 L 1.820312 -4.347656 C 1.988281 -4.347656 2.082031 -4.257812 2.082031 -4.089844 L 2.082031 -1.09375 C 2.082031 -0.921875 1.988281 -0.835938 1.820312 -0.835938 Z M 1.445312 -0.835938 "/></g></g></g><g fill="#000000" fill-opacity="1"><g transform="translate(130.79149, 99.802091)"><g><path d="M 0.324219 -2.035156 C 0.324219 -1.949219 0.371094 -1.90625 0.453125 -1.90625 L 1.476562 -1.90625 C 1.5625 -1.90625 1.605469 -1.949219 1.605469 -2.035156 L 1.605469 -2.632812 C 1.605469 -2.714844 1.5625 -2.761719 1.476562 -2.761719 L 0.453125 -2.761719 C 0.371094 -2.761719 0.324219 -2.714844 0.324219 -2.632812 Z M 0.324219 -2.035156 "/></g></g></g><g fill="#000000" fill-opacity="1"><g transform="translate(90.548987, 108.679262)"><g><path d="M 3.03125 -5.183594 C 2.953125 -5.183594 2.910156 -5.144531 2.890625 -5.066406 L 2.171875 -1.839844 L 1.453125 -5.066406 C 1.433594 -5.144531 1.386719 -5.183594 1.308594 -5.183594 L 0.453125 -5.183594 C 0.371094 -5.183594 0.324219 -5.140625 0.324219 -5.054688 L 0.324219 -0.128906 C 0.324219 -0.046875 0.371094 0 0.453125 0 L 1.050781 0 C 1.132812 0 1.179688 -0.046875 1.179688 -0.128906 L 1.179688 -3.046875 L 1.226562 -3.046875 L 1.867188 -0.117188 C 1.886719 -0.0390625 1.929688 0 2.007812 0 L 2.328125 0 C 2.402344 0 2.449219 -0.0390625 2.46875 -0.117188 L 3.109375 -3.046875 L 3.15625 -3.046875 L 3.15625 -0.128906 C 3.15625 -0.046875 3.203125 0 3.285156 0 L 3.886719 0 C 3.972656 0 4.019531 -0.046875 4.019531 -0.128906 L 4.019531 -5.054688 C 4.019531 -5.140625 3.972656 -5.183594 3.886719 -5.183594 Z M 3.03125 -5.183594 "/></g></g></g><g fill="#000000" fill-opacity="1"><g transform="translate(94.890293, 108.679262)"><g><path d="M 0.324219 -0.933594 C 0.324219 -0.324219 0.648438 0 1.257812 0 L 1.984375 0 C 2.59375 0 2.917969 -0.324219 2.917969 -0.933594 L 2.917969 -4.25 C 2.917969 -4.859375 2.59375 -5.183594 1.984375 -5.183594 L 1.257812 -5.183594 C 0.648438 -5.183594 0.324219 -4.859375 0.324219 -4.25 Z M 1.445312 -0.835938 C 1.277344 -0.835938 1.1875 -0.921875 1.1875 -1.09375 L 1.1875 -4.089844 C 1.1875 -4.257812 1.277344 -4.347656 1.445312 -4.347656 L 1.820312 -4.347656 C 1.988281 -4.347656 2.082031 -4.257812 2.082031 -4.089844 L 2.082031 -1.09375 C 2.082031 -0.921875 1.988281 -0.835938 1.820312 -0.835938 Z M 1.445312 -0.835938 "/></g></g></g><g fill="#000000" fill-opacity="1"><g transform="translate(98.130074, 108.679262)"><g><path d="M 2.3125 -5.183594 C 2.242188 -5.183594 2.210938 -5.144531 2.210938 -5.082031 L 2.210938 -2.347656 L 2.171875 -2.347656 L 1.1875 -5.101562 C 1.167969 -5.160156 1.128906 -5.183594 1.070312 -5.183594 L 0.425781 -5.183594 C 0.363281 -5.183594 0.324219 -5.144531 0.324219 -5.082031 L 0.324219 -0.105469 C 0.324219 -0.0390625 0.363281 0 0.425781 0 L 1.101562 0 C 1.171875 0 1.207031 -0.0390625 1.207031 -0.105469 L 1.207031 -2.851562 L 1.238281 -2.851562 L 2.230469 -0.0859375 C 2.25 -0.0273438 2.289062 0 2.347656 0 L 2.988281 0 C 3.050781 0 3.089844 -0.0390625 3.089844 -0.105469 L 3.089844 -5.082031 C 3.089844 -5.144531 3.050781 -5.183594 2.988281 -5.183594 Z M 2.3125 -5.183594 "/></g></g></g><g fill="#000000" fill-opacity="1"><g transform="translate(101.544801, 108.679262)"><g><path d="M 0.296875 -5.183594 C 0.234375 -5.183594 0.195312 -5.144531 0.195312 -5.082031 L 0.195312 -4.433594 C 0.195312 -4.367188 0.234375 -4.328125 0.296875 -4.328125 L 1.050781 -4.328125 L 1.050781 -0.105469 C 1.050781 -0.03125 1.089844 0 1.152344 0 L 1.828125 0 C 1.898438 0 1.929688 -0.03125 1.929688 -0.105469 L 1.929688 -4.328125 L 2.683594 -4.328125 C 2.753906 -4.328125 2.785156 -4.367188 2.785156 -4.433594 L 2.785156 -5.082031 C 2.785156 -5.144531 2.753906 -5.183594 2.683594 -5.183594 Z M 0.296875 -5.183594 "/></g></g></g><g fill="#000000" fill-opacity="1"><g transform="translate(104.525399, 108.679262)"><g><path d="M 2.035156 -3.019531 L 1.207031 -3.019531 L 1.207031 -5.082031 C 1.207031 -5.144531 1.167969 -5.183594 1.101562 -5.183594 L 0.433594 -5.183594 C 0.355469 -5.183594 0.324219 -5.144531 0.324219 -5.082031 L 0.324219 -0.105469 C 0.324219 -0.0390625 0.355469 0 0.433594 0 L 1.101562 0 C 1.167969 0 1.207031 -0.0390625 1.207031 -0.105469 L 1.207031 -2.164062 L 2.035156 -2.164062 L 2.035156 -0.105469 C 2.035156 -0.0390625 2.074219 0 2.136719 0 L 2.804688 0 C 2.882812 0 2.917969 -0.0390625 2.917969 -0.105469 L 2.917969 -5.082031 C 2.917969 -5.144531 2.882812 -5.183594 2.804688 -5.183594 L 2.136719 -5.183594 C 2.074219 -5.183594 2.035156 -5.144531 2.035156 -5.082031 Z M 2.035156 -3.019531 "/></g></g></g><g fill="#000000" fill-opacity="1"><g transform="translate(107.76518, 108.679262)"><g/></g></g><g fill="#000000" fill-opacity="1"><g transform="translate(109.385069, 108.679262)"><g><path d="M 0.324219 -0.105469 C 0.324219 -0.0390625 0.363281 0 0.425781 0 L 1.101562 0 C 1.171875 0 1.207031 -0.0390625 1.207031 -0.105469 L 1.207031 -1.738281 L 1.984375 -1.738281 C 2.59375 -1.738281 2.917969 -2.066406 2.917969 -2.667969 L 2.917969 -4.25 C 2.917969 -4.859375 2.59375 -5.183594 1.984375 -5.183594 L 0.425781 -5.183594 C 0.363281 -5.183594 0.324219 -5.144531 0.324219 -5.082031 Z M 1.207031 -2.59375 L 1.207031 -4.328125 L 1.777344 -4.328125 C 1.949219 -4.328125 2.035156 -4.238281 2.035156 -4.070312 L 2.035156 -2.851562 C 2.035156 -2.6875 1.949219 -2.59375 1.777344 -2.59375 Z M 1.207031 -2.59375 "/></g></g></g><g fill="#000000" fill-opacity="1"><g transform="translate(112.624849, 108.679262)"><g><path d="M 1.207031 -0.855469 L 2.746094 -0.855469 C 2.820312 -0.855469 2.851562 -0.816406 2.851562 -0.75 L 2.851562 -0.105469 C 2.851562 -0.03125 2.820312 0 2.746094 0 L 0.425781 0 C 0.363281 0 0.324219 -0.03125 0.324219 -0.105469 L 0.324219 -5.082031 C 0.324219 -5.144531 0.363281 -5.183594 0.425781 -5.183594 L 1.101562 -5.183594 C 1.171875 -5.183594 1.207031 -5.144531 1.207031 -5.082031 Z M 1.207031 -0.855469 "/></g></g></g><g fill="#000000" fill-opacity="1"><g transform="translate(115.799834, 108.679262)"><g><path d="M 3.449219 0 C 3.523438 0 3.550781 -0.0390625 3.539062 -0.109375 L 2.460938 -5.09375 C 2.449219 -5.160156 2.410156 -5.183594 2.351562 -5.183594 L 1.453125 -5.183594 C 1.394531 -5.183594 1.355469 -5.160156 1.339844 -5.09375 L 0.265625 -0.109375 C 0.246094 -0.0390625 0.277344 0 0.351562 0 L 1.042969 0 C 1.101562 0 1.132812 -0.03125 1.148438 -0.0898438 L 1.320312 -1.035156 L 2.476562 -1.035156 L 2.65625 -0.0898438 C 2.667969 -0.03125 2.703125 0 2.761719 0 Z M 2.3125 -1.789062 L 1.484375 -1.789062 L 1.898438 -4.050781 Z M 2.3125 -1.789062 "/></g></g></g><g fill="#000000" fill-opacity="1"><g transform="translate(119.596857, 108.679262)"><g><path d="M 2.3125 -5.183594 C 2.242188 -5.183594 2.210938 -5.144531 2.210938 -5.082031 L 2.210938 -2.347656 L 2.171875 -2.347656 L 1.1875 -5.101562 C 1.167969 -5.160156 1.128906 -5.183594 1.070312 -5.183594 L 0.425781 -5.183594 C 0.363281 -5.183594 0.324219 -5.144531 0.324219 -5.082031 L 0.324219 -0.105469 C 0.324219 -0.0390625 0.363281 0 0.425781 0 L 1.101562 0 C 1.171875 0 1.207031 -0.0390625 1.207031 -0.105469 L 1.207031 -2.851562 L 1.238281 -2.851562 L 2.230469 -0.0859375 C 2.25 -0.0273438 2.289062 0 2.347656 0 L 2.988281 0 C 3.050781 0 3.089844 -0.0390625 3.089844 -0.105469 L 3.089844 -5.082031 C 3.089844 -5.144531 3.050781 -5.183594 2.988281 -5.183594 Z M 2.3125 -5.183594 "/></g></g></g><g fill="#000000" fill-opacity="1"><g transform="translate(123.011584, 108.679262)"><g><path d="M 0.324219 -0.128906 C 0.324219 -0.046875 0.371094 0 0.453125 0 L 1.042969 0 C 1.128906 0 1.171875 -0.046875 1.171875 -0.128906 L 1.171875 -0.726562 C 1.171875 -0.808594 1.128906 -0.855469 1.042969 -0.855469 L 0.453125 -0.855469 C 0.371094 -0.855469 0.324219 -0.808594 0.324219 -0.726562 Z M 0.324219 -0.128906 "/></g></g></g><g fill="#000000" fill-opacity="1"><g transform="translate(124.508364, 108.679262)"><g/></g></g><g fill="#000000" fill-opacity="1"><g transform="translate(126.128253, 108.679262)"><g><path d="M 2.3125 -5.183594 C 2.242188 -5.183594 2.210938 -5.144531 2.210938 -5.082031 L 2.210938 -2.347656 L 2.171875 -2.347656 L 1.1875 -5.101562 C 1.167969 -5.160156 1.128906 -5.183594 1.070312 -5.183594 L 0.425781 -5.183594 C 0.363281 -5.183594 0.324219 -5.144531 0.324219 -5.082031 L 0.324219 -0.105469 C 0.324219 -0.0390625 0.363281 0 0.425781 0 L 1.101562 0 C 1.171875 0 1.207031 -0.0390625 1.207031 -0.105469 L 1.207031 -2.851562 L 1.238281 -2.851562 L 2.230469 -0.0859375 C 2.25 -0.0273438 2.289062 0 2.347656 0 L 2.988281 0 C 3.050781 0 3.089844 -0.0390625 3.089844 -0.105469 L 3.089844 -5.082031 C 3.089844 -5.144531 3.050781 -5.183594 2.988281 -5.183594 Z M 2.3125 -5.183594 "/></g></g></g><g fill="#000000" fill-opacity="1"><g transform="translate(129.54298, 108.679262)"><g><path d="M 0.324219 -0.933594 C 0.324219 -0.324219 0.648438 0 1.257812 0 L 1.984375 0 C 2.59375 0 2.917969 -0.324219 2.917969 -0.933594 L 2.917969 -4.25 C 2.917969 -4.859375 2.59375 -5.183594 1.984375 -5.183594 L 1.257812 -5.183594 C 0.648438 -5.183594 0.324219 -4.859375 0.324219 -4.25 Z M 1.445312 -0.835938 C 1.277344 -0.835938 1.1875 -0.921875 1.1875 -1.09375 L 1.1875 -4.089844 C 1.1875 -4.257812 1.277344 -4.347656 1.445312 -4.347656 L 1.820312 -4.347656 C 1.988281 -4.347656 2.082031 -4.257812 2.082031 -4.089844 L 2.082031 -1.09375 C 2.082031 -0.921875 1.988281 -0.835938 1.820312 -0.835938 Z M 1.445312 -0.835938 "/></g></g></g><g fill="#000000" fill-opacity="1"><g transform="translate(90.189012, 117.556433)"><g><path d="M 2.035156 -3.019531 L 1.207031 -3.019531 L 1.207031 -5.082031 C 1.207031 -5.144531 1.167969 -5.183594 1.101562 -5.183594 L 0.433594 -5.183594 C 0.355469 -5.183594 0.324219 -5.144531 0.324219 -5.082031 L 0.324219 -0.105469 C 0.324219 -0.0390625 0.355469 0 0.433594 0 L 1.101562 0 C 1.167969 0 1.207031 -0.0390625 1.207031 -0.105469 L 1.207031 -2.164062 L 2.035156 -2.164062 L 2.035156 -0.105469 C 2.035156 -0.0390625 2.074219 0 2.136719 0 L 2.804688 0 C 2.882812 0 2.917969 -0.0390625 2.917969 -0.105469 L 2.917969 -5.082031 C 2.917969 -5.144531 2.882812 -5.183594 2.804688 -5.183594 L 2.136719 -5.183594 C 2.074219 -5.183594 2.035156 -5.144531 2.035156 -5.082031 Z M 2.035156 -3.019531 "/></g></g></g><g fill="#000000" fill-opacity="1"><g transform="translate(93.428793, 117.556433)"><g><path d="M 0.425781 -5.183594 C 0.355469 -5.183594 0.324219 -5.144531 0.324219 -5.082031 L 0.324219 -0.105469 C 0.324219 -0.0390625 0.355469 0 0.425781 0 L 1.101562 0 C 1.167969 0 1.207031 -0.0390625 1.207031 -0.105469 L 1.207031 -5.082031 C 1.207031 -5.144531 1.167969 -5.183594 1.101562 -5.183594 Z M 0.425781 -5.183594 "/></g></g></g><g fill="#000000" fill-opacity="1"><g transform="translate(94.957969, 117.556433)"><g><path d="M 0.324219 -0.105469 C 0.324219 -0.03125 0.355469 0 0.425781 0 L 1.984375 0 C 2.59375 0 2.917969 -0.324219 2.917969 -0.933594 L 2.917969 -4.246094 C 2.917969 -4.855469 2.59375 -5.183594 1.984375 -5.183594 L 0.425781 -5.183594 C 0.355469 -5.183594 0.324219 -5.144531 0.324219 -5.082031 Z M 1.207031 -0.855469 L 1.207031 -4.328125 L 1.800781 -4.328125 C 1.96875 -4.328125 2.0625 -4.238281 2.0625 -4.0625 L 2.0625 -1.113281 C 2.0625 -0.941406 1.96875 -0.855469 1.800781 -0.855469 Z M 1.207031 -0.855469 "/></g></g></g><g fill="#000000" fill-opacity="1"><g transform="translate(98.19775, 117.556433)"><g><path d="M 0.324219 -0.105469 C 0.324219 -0.03125 0.355469 0 0.425781 0 L 1.984375 0 C 2.59375 0 2.917969 -0.324219 2.917969 -0.933594 L 2.917969 -4.246094 C 2.917969 -4.855469 2.59375 -5.183594 1.984375 -5.183594 L 0.425781 -5.183594 C 0.355469 -5.183594 0.324219 -5.144531 0.324219 -5.082031 Z M 1.207031 -0.855469 L 1.207031 -4.328125 L 1.800781 -4.328125 C 1.96875 -4.328125 2.0625 -4.238281 2.0625 -4.0625 L 2.0625 -1.113281 C 2.0625 -0.941406 1.96875 -0.855469 1.800781 -0.855469 Z M 1.207031 -0.855469 "/></g></g></g><g fill="#000000" fill-opacity="1"><g transform="translate(101.437531, 117.556433)"><g><path d="M 2.910156 -5.082031 C 2.910156 -5.144531 2.882812 -5.183594 2.804688 -5.183594 L 0.421875 -5.183594 C 0.363281 -5.183594 0.324219 -5.144531 0.324219 -5.082031 L 0.324219 -0.105469 C 0.324219 -0.0390625 0.363281 0 0.421875 0 L 2.804688 0 C 2.882812 0 2.910156 -0.0390625 2.910156 -0.105469 L 2.910156 -0.75 C 2.910156 -0.824219 2.882812 -0.855469 2.804688 -0.855469 L 1.1875 -0.855469 L 1.1875 -2.164062 L 2.421875 -2.164062 C 2.488281 -2.164062 2.527344 -2.203125 2.527344 -2.273438 L 2.527344 -2.917969 C 2.527344 -2.988281 2.488281 -3.027344 2.421875 -3.027344 L 1.1875 -3.027344 L 1.1875 -4.324219 L 2.804688 -4.324219 C 2.882812 -4.324219 2.910156 -4.367188 2.910156 -4.433594 Z M 2.910156 -5.082031 "/></g></g></g><g fill="#000000" fill-opacity="1"><g transform="translate(104.670832, 117.556433)"><g><path d="M 2.3125 -5.183594 C 2.242188 -5.183594 2.210938 -5.144531 2.210938 -5.082031 L 2.210938 -2.347656 L 2.171875 -2.347656 L 1.1875 -5.101562 C 1.167969 -5.160156 1.128906 -5.183594 1.070312 -5.183594 L 0.425781 -5.183594 C 0.363281 -5.183594 0.324219 -5.144531 0.324219 -5.082031 L 0.324219 -0.105469 C 0.324219 -0.0390625 0.363281 0 0.425781 0 L 1.101562 0 C 1.171875 0 1.207031 -0.0390625 1.207031 -0.105469 L 1.207031 -2.851562 L 1.238281 -2.851562 L 2.230469 -0.0859375 C 2.25 -0.0273438 2.289062 0 2.347656 0 L 2.988281 0 C 3.050781 0 3.089844 -0.0390625 3.089844 -0.105469 L 3.089844 -5.082031 C 3.089844 -5.144531 3.050781 -5.183594 2.988281 -5.183594 Z M 2.3125 -5.183594 "/></g></g></g><g fill="#000000" fill-opacity="1"><g transform="translate(108.08556, 117.556433)"><g/></g></g><g fill="#000000" fill-opacity="1"><g transform="translate(109.705448, 117.556433)"><g><path d="M 2.921875 -4.25 C 2.921875 -4.859375 2.59375 -5.183594 1.988281 -5.183594 L 1.261719 -5.183594 C 0.65625 -5.183594 0.324219 -4.859375 0.324219 -4.25 L 0.324219 -0.933594 C 0.324219 -0.324219 0.65625 0 1.261719 0 L 1.988281 0 C 2.59375 0 2.921875 -0.324219 2.921875 -0.933594 L 2.921875 -1.632812 C 2.921875 -1.699219 2.882812 -1.738281 2.820312 -1.738281 L 2.171875 -1.738281 C 2.101562 -1.738281 2.066406 -1.699219 2.066406 -1.632812 L 2.066406 -1.113281 C 2.066406 -0.941406 1.976562 -0.855469 1.808594 -0.855469 L 1.472656 -0.855469 C 1.300781 -0.855469 1.210938 -0.941406 1.210938 -1.113281 L 1.210938 -4.070312 C 1.210938 -4.238281 1.296875 -4.328125 1.472656 -4.328125 L 1.808594 -4.328125 C 1.976562 -4.328125 2.066406 -4.238281 2.066406 -4.070312 L 2.066406 -3.550781 C 2.066406 -3.488281 2.101562 -3.449219 2.171875 -3.449219 L 2.820312 -3.449219 C 2.882812 -3.449219 2.921875 -3.488281 2.921875 -3.550781 Z M 2.921875 -4.25 "/></g></g></g><g fill="#000000" fill-opacity="1"><g transform="translate(112.951708, 117.556433)"><g><path d="M 2.035156 -3.019531 L 1.207031 -3.019531 L 1.207031 -5.082031 C 1.207031 -5.144531 1.167969 -5.183594 1.101562 -5.183594 L 0.433594 -5.183594 C 0.355469 -5.183594 0.324219 -5.144531 0.324219 -5.082031 L 0.324219 -0.105469 C 0.324219 -0.0390625 0.355469 0 0.433594 0 L 1.101562 0 C 1.167969 0 1.207031 -0.0390625 1.207031 -0.105469 L 1.207031 -2.164062 L 2.035156 -2.164062 L 2.035156 -0.105469 C 2.035156 -0.0390625 2.074219 0 2.136719 0 L 2.804688 0 C 2.882812 0 2.917969 -0.0390625 2.917969 -0.105469 L 2.917969 -5.082031 C 2.917969 -5.144531 2.882812 -5.183594 2.804688 -5.183594 L 2.136719 -5.183594 C 2.074219 -5.183594 2.035156 -5.144531 2.035156 -5.082031 Z M 2.035156 -3.019531 "/></g></g></g><g fill="#000000" fill-opacity="1"><g transform="translate(116.191489, 117.556433)"><g><path d="M 3.449219 0 C 3.523438 0 3.550781 -0.0390625 3.539062 -0.109375 L 2.460938 -5.09375 C 2.449219 -5.160156 2.410156 -5.183594 2.351562 -5.183594 L 1.453125 -5.183594 C 1.394531 -5.183594 1.355469 -5.160156 1.339844 -5.09375 L 0.265625 -0.109375 C 0.246094 -0.0390625 0.277344 0 0.351562 0 L 1.042969 0 C 1.101562 0 1.132812 -0.03125 1.148438 -0.0898438 L 1.320312 -1.035156 L 2.476562 -1.035156 L 2.65625 -0.0898438 C 2.667969 -0.03125 2.703125 0 2.761719 0 Z M 2.3125 -1.789062 L 1.484375 -1.789062 L 1.898438 -4.050781 Z M 2.3125 -1.789062 "/></g></g></g><g fill="#000000" fill-opacity="1"><g transform="translate(119.988512, 117.556433)"><g><path d="M 2.988281 -4.25 C 2.988281 -4.859375 2.664062 -5.183594 2.054688 -5.183594 L 0.425781 -5.183594 C 0.363281 -5.183594 0.324219 -5.144531 0.324219 -5.082031 L 0.324219 -0.105469 C 0.324219 -0.0390625 0.363281 0 0.425781 0 L 1.101562 0 C 1.167969 0 1.207031 -0.0390625 1.207031 -0.105469 L 1.207031 -1.738281 L 1.652344 -1.738281 L 2.085938 -0.0898438 C 2.101562 -0.03125 2.132812 0 2.195312 0 L 2.871094 0 C 2.941406 0 2.980469 -0.0390625 2.960938 -0.117188 L 2.515625 -1.816406 C 2.824219 -1.949219 2.988281 -2.234375 2.988281 -2.667969 Z M 1.207031 -2.59375 L 1.207031 -4.328125 L 1.847656 -4.328125 C 2.015625 -4.328125 2.105469 -4.238281 2.105469 -4.070312 L 2.105469 -2.851562 C 2.105469 -2.683594 2.015625 -2.59375 1.847656 -2.59375 Z M 1.207031 -2.59375 "/></g></g></g><g fill="#000000" fill-opacity="1"><g transform="translate(123.299568, 117.556433)"><g><path d="M 0.324219 -0.933594 C 0.324219 -0.324219 0.648438 0 1.257812 0 L 2.113281 0 C 2.714844 0 3.046875 -0.324219 3.046875 -0.933594 L 3.046875 -2.734375 C 3.046875 -2.804688 3.007812 -2.839844 2.941406 -2.839844 L 1.851562 -2.839844 C 1.78125 -2.839844 1.75 -2.804688 1.75 -2.734375 L 1.75 -2.085938 C 1.75 -2.023438 1.78125 -1.984375 1.851562 -1.984375 L 2.191406 -1.984375 L 2.191406 -1.113281 C 2.191406 -0.941406 2.101562 -0.855469 1.929688 -0.855469 L 1.464844 -0.855469 C 1.296875 -0.855469 1.207031 -0.941406 1.207031 -1.113281 L 1.207031 -4.070312 C 1.207031 -4.238281 1.289062 -4.328125 1.464844 -4.328125 L 1.929688 -4.328125 C 2.101562 -4.328125 2.191406 -4.238281 2.191406 -4.070312 L 2.191406 -3.578125 C 2.191406 -3.511719 2.222656 -3.472656 2.292969 -3.472656 L 2.941406 -3.472656 C 3.007812 -3.472656 3.046875 -3.511719 3.046875 -3.578125 L 3.046875 -4.25 C 3.046875 -4.859375 2.714844 -5.183594 2.113281 -5.183594 L 1.257812 -5.183594 C 0.648438 -5.183594 0.324219 -4.859375 0.324219 -4.25 Z M 0.324219 -0.933594 "/></g></g></g><g fill="#000000" fill-opacity="1"><g transform="translate(126.66894, 117.556433)"><g><path d="M 2.910156 -5.082031 C 2.910156 -5.144531 2.882812 -5.183594 2.804688 -5.183594 L 0.421875 -5.183594 C 0.363281 -5.183594 0.324219 -5.144531 0.324219 -5.082031 L 0.324219 -0.105469 C 0.324219 -0.0390625 0.363281 0 0.421875 0 L 2.804688 0 C 2.882812 0 2.910156 -0.0390625 2.910156 -0.105469 L 2.910156 -0.75 C 2.910156 -0.824219 2.882812 -0.855469 2.804688 -0.855469 L 1.1875 -0.855469 L 1.1875 -2.164062 L 2.421875 -2.164062 C 2.488281 -2.164062 2.527344 -2.203125 2.527344 -2.273438 L 2.527344 -2.917969 C 2.527344 -2.988281 2.488281 -3.027344 2.421875 -3.027344 L 1.1875 -3.027344 L 1.1875 -4.324219 L 2.804688 -4.324219 C 2.882812 -4.324219 2.910156 -4.367188 2.910156 -4.433594 Z M 2.910156 -5.082031 "/></g></g></g><g fill="#000000" fill-opacity="1"><g transform="translate(129.902242, 117.556433)"><g><path d="M 1.257812 -5.183594 C 0.65625 -5.183594 0.324219 -4.859375 0.324219 -4.25 L 0.324219 -2.722656 C 0.324219 -2.597656 0.382812 -2.519531 0.5 -2.480469 L 2.035156 -1.976562 L 2.035156 -1.113281 C 2.035156 -0.941406 1.945312 -0.855469 1.777344 -0.855469 L 1.464844 -0.855469 C 1.300781 -0.855469 1.207031 -0.941406 1.207031 -1.113281 L 1.207031 -1.613281 C 1.207031 -1.683594 1.171875 -1.71875 1.101562 -1.71875 L 0.425781 -1.71875 C 0.363281 -1.71875 0.324219 -1.683594 0.324219 -1.613281 L 0.324219 -0.933594 C 0.324219 -0.324219 0.65625 0 1.257812 0 L 1.984375 0 C 2.59375 0 2.917969 -0.324219 2.917969 -0.933594 L 2.917969 -2.429688 C 2.917969 -2.554688 2.859375 -2.625 2.746094 -2.667969 L 1.207031 -3.175781 L 1.207031 -4.070312 C 1.207031 -4.238281 1.300781 -4.328125 1.464844 -4.328125 L 1.777344 -4.328125 C 1.949219 -4.328125 2.035156 -4.238281 2.035156 -4.070312 L 2.035156 -3.5625 C 2.035156 -3.5 2.074219 -3.460938 2.136719 -3.460938 L 2.8125 -3.460938 C 2.882812 -3.460938 2.917969 -3.5 2.917969 -3.5625 L 2.917969 -4.25 C 2.917969 -4.859375 2.59375 -5.183594 1.984375 -5.183594 Z M 1.257812 -5.183594 "/></g></g></g><g fill="#000000" fill-opacity="1"><g transform="translate(91.163255, 125.165437)"><g><path d="M 1.039062 -4.28125 C 0.539062 -4.28125 0.269531 -4.015625 0.269531 -3.511719 L 0.269531 -2.25 C 0.269531 -2.148438 0.316406 -2.082031 0.414062 -2.050781 L 1.679688 -1.632812 L 1.679688 -0.921875 C 1.679688 -0.777344 1.605469 -0.707031 1.46875 -0.707031 L 1.210938 -0.707031 C 1.074219 -0.707031 0.996094 -0.777344 0.996094 -0.921875 L 0.996094 -1.332031 C 0.996094 -1.390625 0.96875 -1.417969 0.910156 -1.417969 L 0.351562 -1.417969 C 0.300781 -1.417969 0.269531 -1.390625 0.269531 -1.332031 L 0.269531 -0.769531 C 0.269531 -0.269531 0.539062 0 1.039062 0 L 1.636719 0 C 2.140625 0 2.410156 -0.269531 2.410156 -0.769531 L 2.410156 -2.007812 C 2.410156 -2.109375 2.359375 -2.167969 2.269531 -2.207031 L 0.996094 -2.625 L 0.996094 -3.363281 C 0.996094 -3.5 1.074219 -3.578125 1.210938 -3.578125 L 1.46875 -3.578125 C 1.613281 -3.578125 1.679688 -3.5 1.679688 -3.363281 L 1.679688 -2.945312 C 1.679688 -2.890625 1.714844 -2.859375 1.765625 -2.859375 L 2.324219 -2.859375 C 2.382812 -2.859375 2.410156 -2.890625 2.410156 -2.945312 L 2.410156 -3.511719 C 2.410156 -4.015625 2.140625 -4.28125 1.636719 -4.28125 Z M 1.039062 -4.28125 "/></g></g></g><g fill="#000000" fill-opacity="1"><g transform="translate(93.83995, 125.165437)"><g><path d="M 2.847656 0 C 2.914062 0 2.933594 -0.03125 2.921875 -0.0898438 L 2.035156 -4.207031 C 2.023438 -4.261719 1.992188 -4.28125 1.945312 -4.28125 L 1.199219 -4.28125 C 1.152344 -4.28125 1.117188 -4.261719 1.109375 -4.207031 L 0.21875 -0.0898438 C 0.203125 -0.03125 0.230469 0 0.289062 0 L 0.863281 0 C 0.910156 0 0.9375 -0.0273438 0.949219 -0.0742188 L 1.09375 -0.855469 L 2.046875 -0.855469 L 2.195312 -0.0742188 C 2.207031 -0.0273438 2.234375 0 2.28125 0 Z M 1.910156 -1.476562 L 1.226562 -1.476562 L 1.570312 -3.347656 Z M 1.910156 -1.476562 "/></g></g></g><g fill="#000000" fill-opacity="1"><g transform="translate(96.977037, 125.165437)"><g><path d="M 2.503906 -4.28125 C 2.441406 -4.28125 2.402344 -4.25 2.386719 -4.1875 L 1.792969 -1.519531 L 1.199219 -4.1875 C 1.183594 -4.25 1.144531 -4.28125 1.082031 -4.28125 L 0.375 -4.28125 C 0.304688 -4.28125 0.269531 -4.246094 0.269531 -4.175781 L 0.269531 -0.105469 C 0.269531 -0.0390625 0.304688 0 0.375 0 L 0.867188 0 C 0.9375 0 0.972656 -0.0390625 0.972656 -0.105469 L 0.972656 -2.515625 L 1.011719 -2.515625 L 1.542969 -0.0976562 C 1.558594 -0.03125 1.59375 0 1.660156 0 L 1.921875 0 C 1.984375 0 2.023438 -0.03125 2.039062 -0.0976562 L 2.570312 -2.515625 L 2.605469 -2.515625 L 2.605469 -0.105469 C 2.605469 -0.0390625 2.644531 0 2.714844 0 L 3.210938 0 C 3.28125 0 3.320312 -0.0390625 3.320312 -0.105469 L 3.320312 -4.175781 C 3.320312 -4.246094 3.28125 -4.28125 3.210938 -4.28125 Z M 2.503906 -4.28125 "/></g></g></g><g fill="#000000" fill-opacity="1"><g transform="translate(100.563808, 125.165437)"><g><path d="M 2.402344 -4.199219 C 2.402344 -4.25 2.382812 -4.28125 2.316406 -4.28125 L 0.347656 -4.28125 C 0.300781 -4.28125 0.269531 -4.25 0.269531 -4.199219 L 0.269531 -0.0859375 C 0.269531 -0.03125 0.300781 0 0.347656 0 L 2.316406 0 C 2.382812 0 2.402344 -0.03125 2.402344 -0.0859375 L 2.402344 -0.621094 C 2.402344 -0.679688 2.382812 -0.707031 2.316406 -0.707031 L 0.980469 -0.707031 L 0.980469 -1.789062 L 2.003906 -1.789062 C 2.054688 -1.789062 2.089844 -1.820312 2.089844 -1.878906 L 2.089844 -2.410156 C 2.089844 -2.46875 2.054688 -2.5 2.003906 -2.5 L 0.980469 -2.5 L 0.980469 -3.570312 L 2.316406 -3.570312 C 2.382812 -3.570312 2.402344 -3.609375 2.402344 -3.660156 Z M 2.402344 -4.199219 "/></g></g></g><g fill="#000000" fill-opacity="1"><g transform="translate(103.235149, 125.165437)"><g/></g></g><g fill="#000000" fill-opacity="1"><g transform="translate(104.573498, 125.165437)"><g><path d="M 0.269531 -0.0859375 C 0.269531 -0.0273438 0.292969 0 0.351562 0 L 1.636719 0 C 2.140625 0 2.410156 -0.269531 2.410156 -0.769531 L 2.410156 -3.507812 C 2.410156 -4.011719 2.140625 -4.28125 1.636719 -4.28125 L 0.351562 -4.28125 C 0.292969 -4.28125 0.269531 -4.25 0.269531 -4.199219 Z M 0.996094 -0.707031 L 0.996094 -3.578125 L 1.488281 -3.578125 C 1.628906 -3.578125 1.703125 -3.5 1.703125 -3.355469 L 1.703125 -0.921875 C 1.703125 -0.777344 1.628906 -0.707031 1.488281 -0.707031 Z M 0.996094 -0.707031 "/></g></g></g><g fill="#000000" fill-opacity="1"><g transform="translate(107.250193, 125.165437)"><g><path d="M 2.847656 0 C 2.914062 0 2.933594 -0.03125 2.921875 -0.0898438 L 2.035156 -4.207031 C 2.023438 -4.261719 1.992188 -4.28125 1.945312 -4.28125 L 1.199219 -4.28125 C 1.152344 -4.28125 1.117188 -4.261719 1.109375 -4.207031 L 0.21875 -0.0898438 C 0.203125 -0.03125 0.230469 0 0.289062 0 L 0.863281 0 C 0.910156 0 0.9375 -0.0273438 0.949219 -0.0742188 L 1.09375 -0.855469 L 2.046875 -0.855469 L 2.195312 -0.0742188 C 2.207031 -0.0273438 2.234375 0 2.28125 0 Z M 1.910156 -1.476562 L 1.226562 -1.476562 L 1.570312 -3.347656 Z M 1.910156 -1.476562 "/></g></g></g><g fill="#000000" fill-opacity="1"><g transform="translate(110.38728, 125.165437)"><g><path d="M 2.183594 -4.28125 C 2.121094 -4.28125 2.082031 -4.257812 2.0625 -4.199219 L 1.460938 -2.660156 L 0.863281 -4.199219 C 0.839844 -4.257812 0.804688 -4.28125 0.738281 -4.28125 L 0.203125 -4.28125 C 0.125 -4.28125 0.0859375 -4.234375 0.117188 -4.160156 L 1.097656 -1.777344 L 1.097656 -0.105469 C 1.097656 -0.0390625 1.136719 0 1.203125 0 L 1.71875 0 C 1.789062 0 1.824219 -0.0390625 1.824219 -0.105469 L 1.824219 -1.777344 L 2.804688 -4.160156 C 2.835938 -4.234375 2.800781 -4.28125 2.71875 -4.28125 Z M 2.183594 -4.28125 "/></g></g></g><g fill="#000000" fill-opacity="1"><g transform="translate(113.310232, 125.165437)"><g/></g></g><g fill="#000000" fill-opacity="1"><g transform="translate(114.648581, 125.165437)"><g><path d="M 2.503906 -4.28125 C 2.441406 -4.28125 2.402344 -4.25 2.386719 -4.1875 L 1.792969 -1.519531 L 1.199219 -4.1875 C 1.183594 -4.25 1.144531 -4.28125 1.082031 -4.28125 L 0.375 -4.28125 C 0.304688 -4.28125 0.269531 -4.246094 0.269531 -4.175781 L 0.269531 -0.105469 C 0.269531 -0.0390625 0.304688 0 0.375 0 L 0.867188 0 C 0.9375 0 0.972656 -0.0390625 0.972656 -0.105469 L 0.972656 -2.515625 L 1.011719 -2.515625 L 1.542969 -0.0976562 C 1.558594 -0.03125 1.59375 0 1.660156 0 L 1.921875 0 C 1.984375 0 2.023438 -0.03125 2.039062 -0.0976562 L 2.570312 -2.515625 L 2.605469 -2.515625 L 2.605469 -0.105469 C 2.605469 -0.0390625 2.644531 0 2.714844 0 L 3.210938 0 C 3.28125 0 3.320312 -0.0390625 3.320312 -0.105469 L 3.320312 -4.175781 C 3.320312 -4.246094 3.28125 -4.28125 3.210938 -4.28125 Z M 2.503906 -4.28125 "/></g></g></g><g fill="#000000" fill-opacity="1"><g transform="translate(118.235352, 125.165437)"><g><path d="M 0.269531 -0.769531 C 0.269531 -0.269531 0.535156 0 1.039062 0 L 1.636719 0 C 2.140625 0 2.410156 -0.269531 2.410156 -0.769531 L 2.410156 -3.511719 C 2.410156 -4.015625 2.140625 -4.28125 1.636719 -4.28125 L 1.039062 -4.28125 C 0.535156 -4.28125 0.269531 -4.015625 0.269531 -3.511719 Z M 1.195312 -0.691406 C 1.054688 -0.691406 0.980469 -0.761719 0.980469 -0.90625 L 0.980469 -3.378906 C 0.980469 -3.515625 1.054688 -3.59375 1.195312 -3.59375 L 1.503906 -3.59375 C 1.644531 -3.59375 1.71875 -3.515625 1.71875 -3.378906 L 1.71875 -0.90625 C 1.71875 -0.761719 1.644531 -0.691406 1.503906 -0.691406 Z M 1.195312 -0.691406 "/></g></g></g><g fill="#000000" fill-opacity="1"><g transform="translate(120.912047, 125.165437)"><g><path d="M 2.136719 -4.28125 C 2.070312 -4.28125 2.035156 -4.25 2.019531 -4.1875 L 1.449219 -1.316406 L 0.890625 -4.1875 C 0.871094 -4.25 0.835938 -4.28125 0.769531 -4.28125 L 0.261719 -4.28125 C 0.183594 -4.28125 0.148438 -4.238281 0.164062 -4.164062 L 1.066406 -0.0976562 C 1.082031 -0.03125 1.117188 0 1.183594 0 L 1.71875 0 C 1.78125 0 1.820312 -0.03125 1.835938 -0.0976562 L 2.742188 -4.164062 C 2.757812 -4.238281 2.726562 -4.28125 2.644531 -4.28125 Z M 2.136719 -4.28125 "/></g></g></g><g fill="#000000" fill-opacity="1"><g transform="translate(123.818938, 125.165437)"><g><path d="M 2.402344 -4.199219 C 2.402344 -4.25 2.382812 -4.28125 2.316406 -4.28125 L 0.347656 -4.28125 C 0.300781 -4.28125 0.269531 -4.25 0.269531 -4.199219 L 0.269531 -0.0859375 C 0.269531 -0.03125 0.300781 0 0.347656 0 L 2.316406 0 C 2.382812 0 2.402344 -0.03125 2.402344 -0.0859375 L 2.402344 -0.621094 C 2.402344 -0.679688 2.382812 -0.707031 2.316406 -0.707031 L 0.980469 -0.707031 L 0.980469 -1.789062 L 2.003906 -1.789062 C 2.054688 -1.789062 2.089844 -1.820312 2.089844 -1.878906 L 2.089844 -2.410156 C 2.089844 -2.46875 2.054688 -2.5 2.003906 -2.5 L 0.980469 -2.5 L 0.980469 -3.570312 L 2.316406 -3.570312 C 2.382812 -3.570312 2.402344 -3.609375 2.402344 -3.660156 Z M 2.402344 -4.199219 "/></g></g></g><g fill="#000000" fill-opacity="1"><g transform="translate(126.490279, 125.165437)"><g><path d="M 0.269531 -1.679688 C 0.269531 -1.613281 0.304688 -1.574219 0.375 -1.574219 L 1.21875 -1.574219 C 1.289062 -1.574219 1.328125 -1.613281 1.328125 -1.679688 L 1.328125 -2.171875 C 1.328125 -2.242188 1.289062 -2.28125 1.21875 -2.28125 L 0.375 -2.28125 C 0.304688 -2.28125 0.269531 -2.242188 0.269531 -2.171875 Z M 0.269531 -1.679688 "/></g></g></g><g fill="#000000" fill-opacity="1"><g transform="translate(128.085589, 125.165437)"><g><path d="M 0.351562 -4.28125 C 0.292969 -4.28125 0.269531 -4.25 0.269531 -4.199219 L 0.269531 -0.0859375 C 0.269531 -0.03125 0.292969 0 0.351562 0 L 0.910156 0 C 0.964844 0 0.996094 -0.03125 0.996094 -0.0859375 L 0.996094 -4.199219 C 0.996094 -4.25 0.964844 -4.28125 0.910156 -4.28125 Z M 0.351562 -4.28125 "/></g></g></g><g fill="#000000" fill-opacity="1"><g transform="translate(129.348989, 125.165437)"><g><path d="M 1.910156 -4.28125 C 1.851562 -4.28125 1.824219 -4.25 1.824219 -4.199219 L 1.824219 -1.9375 L 1.792969 -1.9375 L 0.980469 -4.214844 C 0.964844 -4.261719 0.929688 -4.28125 0.882812 -4.28125 L 0.351562 -4.28125 C 0.300781 -4.28125 0.269531 -4.25 0.269531 -4.199219 L 0.269531 -0.0859375 C 0.269531 -0.03125 0.300781 0 0.351562 0 L 0.910156 0 C 0.96875 0 0.996094 -0.03125 0.996094 -0.0859375 L 0.996094 -2.355469 L 1.023438 -2.355469 L 1.839844 -0.0703125 C 1.859375 -0.0195312 1.890625 0 1.9375 0 L 2.46875 0 C 2.523438 0 2.554688 -0.03125 2.554688 -0.0859375 L 2.554688 -4.199219 C 2.554688 -4.25 2.523438 -4.28125 2.46875 -4.28125 Z M 1.910156 -4.28125 "/></g></g></g></svg>