<svg xmlns="http://www.w3.org/2000/svg" xmlns:xlink="http://www.w3.org/1999/xlink" zoomAndPan="magnify" preserveAspectRatio="xMidYMid meet" version="1.0" viewBox="76.06 76.14 71.39 71.39"><defs><g/></defs><path fill="#000000" d="M 134.386719 78.980469 C 135.257812 79.03125 136.488281 79.441406 136.363281 80.308594 C 136.257812 80.691406 135.480469 80.871094 135.488281 80.074219 C 135.714844 80.042969 135.839844 80.242188 135.96875 80.386719 C 136.257812 80.03125 135.945312 79.453125 135.199219 79.863281 C 135.144531 80.054688 135.097656 80.253906 135.125 80.453125 C 135.507812 81.296875 136.480469 81.0625 136.796875 80.527344 C 136.929688 79.644531 136.609375 79.3125 135.523438 78.730469 C 136.917969 78.726562 139.019531 78.710938 140.09375 79.617188 C 140.5625 80.054688 140.832031 80.800781 140.550781 81.410156 C 140.257812 82.058594 139.03125 82.125 138.863281 81.050781 C 138.824219 80.816406 139.070312 80.539062 139.3125 80.660156 C 139.558594 80.78125 139.527344 81.109375 139.597656 81.335938 C 140.433594 80.921875 139.785156 79.550781 138.480469 80.148438 C 137.871094 80.660156 138.0625 81.933594 139.101562 82.410156 C 139.671875 82.683594 141.128906 82.578125 141.328125 81.300781 C 141.625 78.792969 139.410156 78.339844 136.90625 78.25 C 135.140625 78.050781 131.585938 78.511719 129.769531 78.945312 C 128.363281 79.332031 128.539062 78.699219 128.734375 78.703125 C 128.800781 78.792969 128.851562 78.890625 128.902344 78.984375 C 128.972656 78.941406 129.042969 78.898438 129.109375 78.855469 C 129.125 78.746094 129.140625 78.632812 129.15625 78.523438 C 129.019531 78.351562 128.84375 78.023438 128.292969 78.292969 C 128.042969 78.523438 127.964844 78.925781 128.179688 79.210938 C 128.933594 80.144531 129.800781 78.933594 134.386719 78.980469 Z M 134.386719 78.980469 " fill-opacity="1" fill-rule="nonzero"/><path fill="#000000" d="M 78.902344 89.207031 C 78.949219 88.335938 79.363281 87.105469 80.230469 87.230469 C 80.613281 87.335938 80.789062 88.113281 79.996094 88.105469 C 79.964844 87.878906 80.160156 87.753906 80.308594 87.625 C 79.953125 87.335938 79.375 87.648438 79.78125 88.394531 C 79.972656 88.449219 80.171875 88.496094 80.371094 88.46875 C 81.21875 88.085938 80.984375 87.113281 80.445312 86.796875 C 79.5625 86.664062 79.230469 86.984375 78.648438 88.070312 C 78.648438 86.675781 78.632812 84.574219 79.539062 83.5 C 79.972656 83.03125 80.722656 82.761719 81.328125 83.042969 C 81.980469 83.335938 82.042969 84.5625 80.972656 84.730469 C 80.734375 84.773438 80.457031 84.523438 80.582031 84.285156 C 80.703125 84.035156 81.027344 84.066406 81.253906 83.996094 C 80.839844 83.160156 79.472656 83.808594 80.066406 85.113281 C 80.582031 85.722656 81.851562 85.53125 82.328125 84.492188 C 82.601562 83.921875 82.496094 82.464844 81.222656 82.265625 C 78.714844 81.96875 78.257812 84.183594 78.167969 86.6875 C 77.96875 88.453125 78.433594 92.007812 78.863281 93.824219 C 79.253906 95.230469 78.621094 95.054688 78.625 94.859375 C 78.710938 94.792969 78.808594 94.746094 78.902344 94.691406 C 78.859375 94.621094 78.820312 94.550781 78.773438 94.484375 C 78.664062 94.46875 78.554688 94.453125 78.441406 94.4375 C 78.269531 94.574219 77.945312 94.75 78.210938 95.300781 C 78.441406 95.550781 78.847656 95.628906 79.128906 95.414062 C 80.066406 94.660156 78.851562 93.792969 78.902344 89.207031 Z M 78.902344 89.207031 " fill-opacity="1" fill-rule="nonzero"/><path fill="#000000" d="M 89.128906 144.691406 C 88.257812 144.644531 87.023438 144.230469 87.148438 143.363281 C 87.253906 142.980469 88.03125 142.804688 88.027344 143.601562 C 87.796875 143.628906 87.675781 143.433594 87.542969 143.285156 C 87.257812 143.644531 87.566406 144.21875 88.3125 143.8125 C 88.367188 143.621094 88.417969 143.421875 88.386719 143.222656 C 88.007812 142.375 87.03125 142.613281 86.71875 143.148438 C 86.582031 144.03125 86.90625 144.363281 87.992188 144.945312 C 86.597656 144.945312 84.492188 144.960938 83.417969 144.058594 C 82.949219 143.621094 82.683594 142.875 82.964844 142.265625 C 83.257812 141.613281 84.484375 141.550781 84.652344 142.625 C 84.691406 142.859375 84.445312 143.136719 84.203125 143.011719 C 83.953125 142.890625 83.988281 142.566406 83.917969 142.339844 C 83.082031 142.753906 83.730469 144.121094 85.03125 143.527344 C 85.640625 143.011719 85.449219 141.742188 84.414062 141.265625 C 83.839844 140.992188 82.382812 141.097656 82.183594 142.371094 C 81.886719 144.882812 84.105469 145.335938 86.609375 145.425781 C 88.375 145.625 91.929688 145.160156 93.746094 144.730469 C 95.148438 144.339844 94.976562 144.972656 94.777344 144.96875 C 94.710938 144.882812 94.664062 144.785156 94.609375 144.691406 C 94.542969 144.734375 94.472656 144.773438 94.402344 144.820312 C 94.386719 144.929688 94.371094 145.039062 94.355469 145.152344 C 94.492188 145.324219 94.671875 145.648438 95.21875 145.382812 C 95.46875 145.152344 95.550781 144.746094 95.335938 144.464844 C 94.578125 143.527344 93.710938 144.742188 89.128906 144.691406 Z M 89.128906 144.691406 " fill-opacity="1" fill-rule="nonzero"/><path fill="#000000" d="M 144.613281 134.464844 C 144.5625 135.335938 144.152344 136.570312 143.285156 136.445312 C 142.902344 136.339844 142.722656 135.5625 143.519531 135.570312 C 143.550781 135.796875 143.351562 135.917969 143.207031 136.050781 C 143.5625 136.335938 144.140625 136.027344 143.730469 135.28125 C 143.539062 135.226562 143.339844 135.175781 143.140625 135.207031 C 142.296875 135.585938 142.53125 136.5625 143.066406 136.875 C 143.949219 137.011719 144.28125 136.6875 144.863281 135.601562 C 144.867188 136.996094 144.882812 139.101562 143.976562 140.175781 C 143.539062 140.644531 142.792969 140.910156 142.1875 140.628906 C 141.535156 140.335938 141.46875 139.109375 142.542969 138.941406 C 142.777344 138.902344 143.054688 139.148438 142.933594 139.390625 C 142.8125 139.640625 142.484375 139.605469 142.257812 139.679688 C 142.671875 140.511719 144.042969 139.863281 143.445312 138.5625 C 142.933594 137.953125 141.660156 138.144531 141.183594 139.179688 C 140.910156 139.753906 141.015625 141.210938 142.292969 141.410156 C 144.800781 141.707031 145.253906 139.488281 145.34375 136.984375 C 145.546875 135.21875 145.082031 131.664062 144.648438 129.847656 C 144.261719 128.445312 144.894531 128.617188 144.890625 128.816406 C 144.800781 128.882812 144.703125 128.929688 144.609375 128.984375 C 144.652344 129.054688 144.695312 129.121094 144.738281 129.191406 C 144.847656 129.207031 144.960938 129.222656 145.070312 129.238281 C 145.242188 129.101562 145.570312 128.921875 145.304688 128.375 C 145.070312 128.125 144.667969 128.042969 144.382812 128.257812 C 143.449219 129.015625 144.660156 129.882812 144.613281 134.464844 Z M 144.613281 134.464844 " fill-opacity="1" fill-rule="nonzero"/><path fill="#000000" d="M 144.613281 89.207031 C 144.5625 88.335938 144.152344 87.105469 143.285156 87.230469 C 142.902344 87.335938 142.722656 88.113281 143.519531 88.105469 C 143.550781 87.878906 143.351562 87.753906 143.207031 87.625 C 143.5625 87.335938 144.140625 87.648438 143.730469 88.394531 C 143.539062 88.449219 143.339844 88.496094 143.140625 88.46875 C 142.296875 88.085938 142.53125 87.113281 143.066406 86.796875 C 143.949219 86.664062 144.28125 86.984375 144.863281 88.070312 C 144.867188 86.675781 144.882812 84.574219 143.976562 83.5 C 143.539062 83.03125 142.792969 82.761719 142.1875 83.042969 C 141.535156 83.335938 141.46875 84.5625 142.542969 84.730469 C 142.777344 84.773438 143.054688 84.523438 142.933594 84.285156 C 142.8125 84.035156 142.484375 84.066406 142.257812 83.996094 C 142.671875 83.160156 144.042969 83.808594 143.445312 85.113281 C 142.933594 85.722656 141.660156 85.53125 141.183594 84.492188 C 140.910156 83.921875 141.015625 82.464844 142.292969 82.265625 C 144.800781 81.96875 145.253906 84.183594 145.34375 86.6875 C 145.546875 88.453125 145.082031 92.007812 144.648438 93.824219 C 144.261719 95.230469 144.894531 95.054688 144.890625 94.859375 C 144.800781 94.792969 144.703125 94.746094 144.609375 94.691406 C 144.652344 94.621094 144.695312 94.550781 144.738281 94.484375 C 144.847656 94.46875 144.960938 94.453125 145.070312 94.4375 C 145.242188 94.574219 145.570312 94.75 145.304688 95.300781 C 145.070312 95.550781 144.667969 95.628906 144.382812 95.414062 C 143.449219 94.660156 144.660156 93.792969 144.613281 89.207031 Z M 144.613281 89.207031 " fill-opacity="1" fill-rule="nonzero"/><path fill="#000000" d="M 89.128906 78.980469 C 88.257812 79.03125 87.023438 79.441406 87.148438 80.308594 C 87.253906 80.691406 88.03125 80.871094 88.027344 80.074219 C 87.796875 80.042969 87.675781 80.242188 87.542969 80.386719 C 87.257812 80.03125 87.566406 79.453125 88.3125 79.863281 C 88.367188 80.054688 88.417969 80.253906 88.386719 80.453125 C 88.007812 81.296875 87.03125 81.0625 86.71875 80.527344 C 86.582031 79.644531 86.90625 79.3125 87.992188 78.730469 C 86.597656 78.726562 84.492188 78.710938 83.417969 79.617188 C 82.949219 80.054688 82.683594 80.800781 82.964844 81.410156 C 83.257812 82.058594 84.484375 82.125 84.652344 81.050781 C 84.691406 80.816406 84.445312 80.539062 84.203125 80.660156 C 83.953125 80.78125 83.988281 81.109375 83.917969 81.335938 C 83.082031 80.921875 83.730469 79.550781 85.03125 80.148438 C 85.640625 80.660156 85.449219 81.933594 84.414062 82.410156 C 83.839844 82.683594 82.382812 82.578125 82.183594 81.300781 C 81.886719 78.792969 84.105469 78.339844 86.609375 78.25 C 88.375 78.050781 91.929688 78.511719 93.746094 78.945312 C 95.148438 79.332031 94.976562 78.699219 94.777344 78.703125 C 94.710938 78.792969 94.664062 78.890625 94.609375 78.984375 C 94.542969 78.941406 94.472656 78.898438 94.402344 78.855469 C 94.386719 78.746094 94.371094 78.632812 94.355469 78.523438 C 94.492188 78.351562 94.671875 78.023438 95.21875 78.292969 C 95.46875 78.523438 95.550781 78.925781 95.335938 79.210938 C 94.578125 80.144531 93.710938 78.933594 89.128906 78.980469 Z M 89.128906 78.980469 " fill-opacity="1" fill-rule="nonzero"/><path fill="#000000" d="M 78.902344 134.464844 C 78.949219 135.335938 79.363281 136.570312 80.230469 136.445312 C 80.613281 136.339844 80.789062 135.5625 79.996094 135.570312 C 79.964844 135.796875 80.160156 135.917969 80.308594 136.050781 C 79.953125 136.335938 79.375 136.027344 79.78125 135.28125 C 79.972656 135.226562 80.171875 135.175781 80.371094 135.207031 C 81.21875 135.585938 80.984375 136.5625 80.445312 136.875 C 79.5625 137.011719 79.230469 136.6875 78.648438 135.601562 C 78.648438 136.996094 78.632812 139.101562 79.539062 140.175781 C 79.972656 140.644531 80.722656 140.910156 81.328125 140.628906 C 81.980469 140.335938 82.042969 139.109375 80.972656 138.941406 C 80.734375 138.902344 80.457031 139.148438 80.582031 139.390625 C 80.703125 139.640625 81.027344 139.605469 81.253906 139.679688 C 80.839844 140.511719 79.472656 139.863281 80.066406 138.5625 C 80.582031 137.953125 81.851562 138.144531 82.328125 139.179688 C 82.601562 139.753906 82.496094 141.210938 81.222656 141.410156 C 78.714844 141.707031 78.257812 139.488281 78.167969 136.984375 C 77.96875 135.21875 78.433594 131.664062 78.863281 129.847656 C 79.253906 128.445312 78.621094 128.617188 78.625 128.816406 C 78.710938 128.882812 78.808594 128.929688 78.902344 128.984375 C 78.859375 129.054688 78.820312 129.121094 78.773438 129.191406 C 78.664062 129.207031 78.554688 129.222656 78.441406 129.238281 C 78.269531 129.101562 77.945312 128.921875 78.210938 128.375 C 78.441406 128.125 78.847656 128.042969 79.128906 128.257812 C 80.066406 129.015625 78.851562 129.882812 78.902344 134.464844 Z M 78.902344 134.464844 " fill-opacity="1" fill-rule="nonzero"/><path fill="#000000" d="M 134.386719 144.691406 C 135.257812 144.644531 136.488281 144.230469 136.363281 143.363281 C 136.257812 142.980469 135.480469 142.804688 135.488281 143.601562 C 135.714844 143.628906 135.839844 143.433594 135.96875 143.285156 C 136.257812 143.644531 135.945312 144.21875 135.199219 143.8125 C 135.144531 143.621094 135.097656 143.421875 135.125 143.222656 C 135.507812 142.375 136.480469 142.613281 136.796875 143.148438 C 136.929688 144.03125 136.609375 144.363281 135.523438 144.945312 C 136.917969 144.945312 139.019531 144.960938 140.09375 144.058594 C 140.5625 143.621094 140.832031 142.875 140.550781 142.265625 C 140.257812 141.613281 139.03125 141.550781 138.863281 142.625 C 138.824219 142.859375 139.070312 143.136719 139.3125 143.011719 C 139.558594 142.890625 139.527344 142.566406 139.597656 142.339844 C 140.433594 142.753906 139.785156 144.121094 138.480469 143.527344 C 137.871094 143.011719 138.0625 141.742188 139.101562 141.265625 C 139.671875 140.992188 141.128906 141.097656 141.328125 142.371094 C 141.625 144.882812 139.410156 145.335938 136.90625 145.425781 C 135.140625 145.625 131.585938 145.160156 129.769531 144.730469 C 128.363281 144.339844 128.539062 144.972656 128.734375 144.96875 C 128.800781 144.882812 128.851562 144.785156 128.902344 144.691406 C 128.972656 144.734375 129.042969 144.773438 129.109375 144.820312 C 129.125 144.929688 129.140625 145.039062 129.15625 145.152344 C 129.019531 145.324219 128.84375 145.648438 128.292969 145.382812 C 128.042969 145.152344 127.964844 144.746094 128.179688 144.464844 C 128.933594 143.527344 129.800781 144.742188 134.386719 144.691406 Z M 134.386719 144.691406 " fill-opacity="1" fill-rule="nonzero"/><path fill="#000000" d="M 111.757812 79.753906 C 111.757812 79.746094 111.761719 79.738281 111.761719 79.734375 C 111.761719 79.722656 111.761719 79.710938 111.757812 79.699219 C 111.753906 79.710938 111.753906 79.722656 111.75 79.734375 C 111.753906 79.738281 111.753906 79.746094 111.757812 79.753906 Z M 111.757812 79.753906 " fill-opacity="1" fill-rule="nonzero"/><path fill="#000000" d="M 143.839844 111.835938 C 143.847656 111.839844 143.855469 111.839844 143.863281 111.84375 C 143.871094 111.84375 143.882812 111.839844 143.894531 111.835938 C 143.882812 111.835938 143.871094 111.832031 143.863281 111.832031 C 143.855469 111.832031 143.847656 111.835938 143.839844 111.835938 Z M 143.839844 111.835938 " fill-opacity="1" fill-rule="nonzero"/><path fill="#000000" d="M 111.757812 143.921875 C 111.753906 143.925781 111.753906 143.933594 111.75 143.941406 C 111.753906 143.953125 111.753906 143.964844 111.757812 143.976562 C 111.761719 143.964844 111.761719 143.953125 111.761719 143.941406 C 111.761719 143.933594 111.757812 143.925781 111.757812 143.921875 Z M 111.757812 143.921875 " fill-opacity="1" fill-rule="nonzero"/><path fill="#000000" d="M 79.671875 111.835938 C 79.667969 111.835938 79.660156 111.832031 79.652344 111.832031 C 79.640625 111.832031 79.628906 111.835938 79.617188 111.835938 C 79.628906 111.839844 79.640625 111.84375 79.652344 111.84375 C 79.660156 111.839844 79.667969 111.839844 79.671875 111.835938 Z M 79.671875 111.835938 " fill-opacity="1" fill-rule="nonzero"/><path fill="#000000" d="M 116.109375 79.28125 C 118.125 79.039062 117.542969 78.996094 118.46875 79.117188 C 119.546875 79.34375 119.308594 80.234375 118.957031 80.425781 C 118.390625 80.714844 117.828125 80.292969 118.121094 79.917969 C 118.558594 79.71875 118.484375 80.15625 118.484375 80.363281 C 119.066406 80.179688 119.042969 79.398438 118.0625 79.457031 C 116.574219 80.1875 118.242188 81.78125 119.550781 80.5625 C 119.785156 80.28125 119.773438 79.890625 119.738281 79.546875 C 120.226562 80.199219 121.03125 80.457031 121.777344 80.683594 C 121.121094 80.90625 118.652344 81.207031 117.871094 81.140625 C 117.386719 81.09375 116.734375 80.660156 116.507812 80.378906 C 116.265625 80.066406 116.0625 79.6875 116.109375 79.28125 Z M 79.199219 107.484375 C 78.960938 105.46875 78.914062 106.050781 79.035156 105.125 C 79.261719 104.050781 80.15625 104.285156 80.347656 104.636719 C 80.632812 105.203125 80.214844 105.765625 79.839844 105.472656 C 79.640625 105.035156 80.078125 105.109375 80.28125 105.109375 C 80.097656 104.53125 79.320312 104.550781 79.375 105.535156 C 80.105469 107.019531 81.699219 105.351562 80.484375 104.042969 C 80.203125 103.808594 79.808594 103.820312 79.46875 103.855469 C 80.121094 103.367188 80.378906 102.5625 80.605469 101.816406 C 80.828125 102.472656 81.128906 104.941406 81.0625 105.722656 C 81.011719 106.207031 80.578125 106.859375 80.300781 107.085938 C 79.984375 107.328125 79.609375 107.53125 79.199219 107.484375 Z M 107.40625 144.394531 C 105.390625 144.632812 105.96875 144.679688 105.042969 144.558594 C 103.96875 144.332031 104.203125 143.4375 104.558594 143.246094 C 105.125 142.960938 105.683594 143.378906 105.394531 143.753906 C 104.953125 143.953125 105.027344 143.519531 105.027344 143.3125 C 104.449219 143.496094 104.46875 144.273438 105.453125 144.21875 C 106.941406 143.488281 105.269531 141.894531 103.960938 143.113281 C 103.730469 143.390625 103.738281 143.785156 103.773438 144.125 C 103.289062 143.472656 102.480469 143.214844 101.734375 142.988281 C 102.394531 142.765625 104.859375 142.464844 105.644531 142.53125 C 106.128906 142.582031 106.777344 143.015625 107.007812 143.292969 C 107.246094 143.609375 107.449219 143.984375 107.40625 144.394531 Z M 144.3125 116.191406 C 144.554688 118.203125 144.597656 117.625 144.476562 118.550781 C 144.253906 119.625 143.359375 119.390625 143.167969 119.035156 C 142.878906 118.46875 143.300781 117.910156 143.675781 118.203125 C 143.875 118.640625 143.4375 118.566406 143.230469 118.566406 C 143.414062 119.144531 144.195312 119.125 144.136719 118.140625 C 143.40625 116.65625 141.8125 118.324219 143.03125 119.632812 C 143.3125 119.867188 143.703125 119.855469 144.046875 119.820312 C 143.394531 120.304688 143.136719 121.113281 142.910156 121.859375 C 142.6875 121.199219 142.386719 118.734375 142.453125 117.953125 C 142.5 117.464844 142.933594 116.816406 143.214844 116.585938 C 143.527344 116.347656 143.90625 116.144531 144.3125 116.191406 Z M 143.214844 107.085938 C 142.933594 106.859375 142.5 106.207031 142.453125 105.722656 C 142.386719 104.941406 142.6875 102.472656 142.910156 101.816406 C 143.136719 102.5625 143.394531 103.367188 144.046875 103.855469 C 143.703125 103.820312 143.3125 103.808594 143.03125 104.042969 C 141.8125 105.351562 143.40625 107.019531 144.136719 105.535156 C 144.195312 104.550781 143.414062 104.53125 143.230469 105.109375 C 143.4375 105.109375 143.875 105.035156 143.675781 105.472656 C 143.300781 105.765625 142.878906 105.203125 143.167969 104.636719 C 143.359375 104.285156 144.253906 104.050781 144.476562 105.125 C 144.597656 106.050781 144.554688 105.46875 144.3125 107.484375 C 143.90625 107.53125 143.527344 107.328125 143.214844 107.085938 Z M 107.007812 80.378906 C 106.777344 80.660156 106.128906 81.09375 105.644531 81.140625 C 104.859375 81.207031 102.394531 80.90625 101.734375 80.683594 C 102.480469 80.457031 103.289062 80.203125 103.773438 79.546875 C 103.738281 79.890625 103.730469 80.28125 103.960938 80.5625 C 105.269531 81.78125 106.941406 80.1875 105.453125 79.457031 C 104.46875 79.398438 104.449219 80.179688 105.027344 80.363281 C 105.027344 80.15625 104.953125 79.71875 105.394531 79.917969 C 105.683594 80.292969 105.125 80.714844 104.558594 80.425781 C 104.203125 80.234375 103.96875 79.34375 105.042969 79.117188 C 105.96875 78.996094 105.390625 79.039062 107.402344 79.28125 C 107.449219 79.6875 107.246094 80.066406 107.007812 80.378906 Z M 80.300781 116.585938 C 80.578125 116.816406 81.011719 117.464844 81.0625 117.953125 C 81.128906 118.734375 80.828125 121.199219 80.605469 121.859375 C 80.378906 121.113281 80.121094 120.304688 79.46875 119.820312 C 79.808594 119.855469 80.203125 119.867188 80.484375 119.632812 C 81.699219 118.324219 80.105469 116.65625 79.375 118.140625 C 79.320312 119.125 80.097656 119.144531 80.28125 118.566406 C 80.078125 118.566406 79.640625 118.640625 79.839844 118.203125 C 80.214844 117.910156 80.632812 118.46875 80.347656 119.035156 C 80.15625 119.390625 79.261719 119.625 79.035156 118.550781 C 78.914062 117.625 78.960938 118.203125 79.199219 116.191406 C 79.609375 116.144531 79.984375 116.347656 80.300781 116.585938 Z M 116.507812 143.292969 C 116.734375 143.015625 117.386719 142.582031 117.871094 142.53125 C 118.652344 142.464844 121.121094 142.765625 121.777344 142.988281 C 121.03125 143.214844 120.226562 143.472656 119.738281 144.125 C 119.773438 143.785156 119.785156 143.390625 119.550781 143.113281 C 118.242188 141.894531 116.574219 143.488281 118.0625 144.21875 C 119.042969 144.273438 119.066406 143.496094 118.484375 143.3125 C 118.484375 143.519531 118.558594 143.953125 118.121094 143.753906 C 117.828125 143.378906 118.390625 142.960938 118.957031 143.246094 C 119.308594 143.4375 119.546875 144.332031 118.46875 144.558594 C 117.542969 144.679688 118.125 144.632812 116.109375 144.394531 C 116.0625 143.984375 116.265625 143.609375 116.507812 143.292969 Z M 112.65625 78.664062 C 113.296875 78.839844 113.988281 79.128906 115.476562 79.296875 C 115.570312 80.082031 116.113281 80.738281 116.769531 81.140625 C 114.207031 81.351562 112.574219 79.617188 112.65625 78.664062 Z M 78.582031 110.9375 C 78.757812 110.296875 79.046875 109.605469 79.21875 108.117188 C 80 108.027344 80.65625 107.480469 81.058594 106.824219 C 81.269531 109.386719 79.535156 111.019531 78.582031 110.9375 Z M 110.859375 145.011719 C 110.214844 144.835938 109.527344 144.546875 108.039062 144.378906 C 107.945312 143.59375 107.398438 142.9375 106.742188 142.535156 C 109.304688 142.324219 110.9375 144.058594 110.859375 145.011719 Z M 144.929688 112.734375 C 144.753906 113.378906 144.46875 114.066406 144.296875 115.554688 C 143.511719 115.648438 142.855469 116.195312 142.453125 116.851562 C 142.242188 114.289062 143.976562 112.65625 144.929688 112.734375 Z M 142.453125 106.824219 C 142.855469 107.480469 143.511719 108.027344 144.296875 108.117188 C 144.46875 109.605469 144.753906 110.296875 144.929688 110.9375 C 143.976562 111.019531 142.242188 109.386719 142.453125 106.824219 Z M 106.742188 81.140625 C 107.398438 80.738281 107.945312 80.082031 108.039062 79.296875 C 109.527344 79.128906 110.214844 78.839844 110.859375 78.664062 C 110.9375 79.617188 109.304688 81.351562 106.742188 81.140625 Z M 81.058594 116.851562 C 80.65625 116.195312 80 115.648438 79.21875 115.554688 C 79.046875 114.066406 78.757812 113.378906 78.582031 112.734375 C 79.535156 112.65625 81.269531 114.289062 81.058594 116.851562 Z M 116.769531 142.535156 C 116.113281 142.9375 115.570312 143.59375 115.476562 144.378906 C 113.988281 144.546875 113.296875 144.835938 112.65625 145.011719 C 112.574219 144.058594 114.207031 142.324219 116.769531 142.535156 Z M 111.757812 78.3125 C 111.785156 78.328125 111.808594 78.339844 111.835938 78.355469 C 112.078125 78.785156 111.832031 79.28125 113.292969 80.597656 C 112.910156 80.546875 112.304688 80.375 111.757812 80.375 C 111.210938 80.375 110.605469 80.546875 110.21875 80.597656 C 111.679688 79.28125 111.433594 78.785156 111.675781 78.355469 C 111.703125 78.339844 111.730469 78.328125 111.757812 78.3125 Z M 78.230469 111.835938 C 78.246094 111.8125 78.261719 111.785156 78.277344 111.757812 C 78.703125 111.515625 79.203125 111.761719 80.519531 110.300781 C 80.464844 110.683594 80.292969 111.289062 80.292969 111.835938 C 80.292969 112.386719 80.464844 112.988281 80.519531 113.375 C 79.203125 111.914062 78.703125 112.160156 78.277344 111.917969 C 78.261719 111.890625 78.246094 111.863281 78.230469 111.835938 Z M 111.757812 145.363281 C 111.730469 145.347656 111.703125 145.332031 111.675781 145.316406 C 111.433594 144.890625 111.679688 144.390625 110.21875 143.074219 C 110.605469 143.128906 111.210938 143.300781 111.757812 143.300781 C 112.304688 143.300781 112.910156 143.128906 113.292969 143.074219 C 111.832031 144.390625 112.078125 144.890625 111.835938 145.316406 C 111.808594 145.332031 111.785156 145.347656 111.757812 145.363281 Z M 145.28125 111.835938 C 145.265625 111.863281 145.253906 111.890625 145.238281 111.917969 C 144.808594 112.160156 144.3125 111.914062 142.996094 113.375 C 143.046875 112.988281 143.21875 112.386719 143.21875 111.835938 C 143.21875 111.289062 143.046875 110.683594 142.996094 110.300781 C 144.3125 111.761719 144.808594 111.515625 145.238281 111.757812 C 145.253906 111.785156 145.265625 111.8125 145.28125 111.835938 Z M 111.757812 81.488281 C 111.761719 81.488281 111.765625 81.488281 111.769531 81.492188 C 111.765625 81.496094 111.761719 81.503906 111.757812 81.507812 C 111.753906 81.503906 111.746094 81.496094 111.742188 81.492188 C 111.746094 81.488281 111.753906 81.488281 111.757812 81.488281 Z M 81.40625 111.835938 C 81.40625 111.832031 81.410156 111.828125 81.410156 111.824219 C 81.417969 111.828125 81.421875 111.832031 81.425781 111.835938 C 81.421875 111.839844 81.417969 111.847656 81.410156 111.851562 C 81.410156 111.847656 81.40625 111.84375 81.40625 111.835938 Z M 111.757812 80.773438 C 111.878906 80.769531 112.019531 80.78125 112.175781 80.808594 C 112.84375 80.859375 115.554688 81.878906 119.171875 81.570312 C 122.871094 81.296875 127.722656 78.992188 129.304688 80.382812 C 129.570312 80.636719 129.722656 81.0625 129.515625 81.398438 C 129.074219 82.210938 127.488281 81.8125 127.867188 80.796875 C 127.972656 80.808594 128.082031 80.816406 128.183594 80.851562 C 128.3125 80.996094 128.335938 81.199219 128.402344 81.375 C 128.496094 81.253906 128.582031 81.125 128.664062 80.992188 C 128.445312 80.203125 128.148438 80.234375 127.53125 80.445312 C 127.445312 80.578125 127.359375 80.714844 127.292969 80.859375 C 127.21875 81.449219 127.34375 81.964844 127.980469 82.226562 C 130.402344 83.171875 131.472656 79.238281 127.539062 79.503906 C 128.355469 78.554688 127.621094 77.683594 126.621094 77.742188 C 126.347656 77.808594 126.1875 78.070312 126.0625 78.300781 C 126.007812 78.550781 126.074219 78.796875 126.195312 79.015625 C 126.429688 79.101562 126.703125 79.273438 126.941406 79.105469 C 127.125 79.023438 127.144531 78.8125 127.15625 78.636719 C 126.96875 78.671875 126.777344 78.773438 126.582031 78.710938 C 126.324219 78.347656 126.871094 77.929688 127.328125 78.429688 C 127.742188 79.28125 126.027344 79.609375 125.296875 79.820312 C 123.136719 80.488281 121.3125 80.132812 120.671875 79.761719 C 120.140625 79.449219 119.816406 78.703125 120.199219 78.152344 C 120.875 77.515625 121.675781 78.453125 121.234375 78.84375 C 121.125 78.964844 120.964844 78.855469 120.835938 78.84375 C 120.855469 78.660156 120.96875 78.480469 120.90625 78.300781 C 120.761719 78.347656 120.636719 78.429688 120.511719 78.507812 C 120.496094 79 120.457031 78.957031 120.871094 79.324219 C 121.0625 79.324219 121.25 79.316406 121.4375 79.296875 C 122.371094 78.382812 121.214844 77.03125 119.964844 77.628906 C 119.472656 78.125 119.347656 78.507812 119.566406 79.257812 C 119.25 78.949219 118.828125 78.792969 118.398438 78.71875 C 118.820312 78.449219 119.960938 77.804688 119.433594 76.722656 C 118.457031 75.25 116.074219 76.921875 117.734375 77.914062 C 118.554688 78.125 118.734375 77.824219 118.816406 77.113281 C 118.265625 76.546875 118.042969 76.84375 117.847656 77.136719 C 117.980469 77.15625 118.117188 77.175781 118.25 77.195312 C 118.246094 77.242188 118.238281 77.335938 118.234375 77.382812 C 117.179688 77.445312 117.777344 76.117188 118.847656 76.757812 C 119.644531 78.339844 116.808594 79.664062 112.03125 78 C 111.933594 77.96875 111.84375 77.9375 111.757812 77.902344 C 111.671875 77.9375 111.578125 77.96875 111.484375 78 C 106.703125 79.664062 103.867188 78.339844 104.667969 76.757812 C 105.738281 76.117188 106.332031 77.445312 105.28125 77.382812 C 105.277344 77.335938 105.265625 77.242188 105.261719 77.195312 C 105.398438 77.175781 105.53125 77.15625 105.667969 77.136719 C 105.46875 76.84375 105.246094 76.546875 104.699219 77.113281 C 104.777344 77.824219 104.960938 78.125 105.78125 77.914062 C 107.4375 76.921875 105.058594 75.25 104.078125 76.722656 C 103.550781 77.804688 104.695312 78.449219 105.117188 78.71875 C 104.6875 78.792969 104.265625 78.949219 103.945312 79.257812 C 104.164062 78.507812 104.039062 78.125 103.546875 77.628906 C 102.300781 77.03125 101.140625 78.382812 102.074219 79.296875 C 102.261719 79.316406 102.453125 79.324219 102.640625 79.324219 C 103.054688 78.957031 103.015625 79 103.003906 78.507812 C 102.878906 78.429688 102.75 78.347656 102.609375 78.300781 C 102.546875 78.480469 102.660156 78.660156 102.675781 78.84375 C 102.546875 78.855469 102.386719 78.964844 102.28125 78.84375 C 101.835938 78.453125 102.636719 77.515625 103.316406 78.152344 C 103.695312 78.703125 103.375 79.449219 102.839844 79.761719 C 102.203125 80.132812 100.375 80.488281 98.21875 79.820312 C 97.484375 79.609375 95.769531 79.28125 96.183594 78.429688 C 96.640625 77.929688 97.1875 78.347656 96.929688 78.710938 C 96.738281 78.773438 96.546875 78.671875 96.355469 78.636719 C 96.371094 78.8125 96.390625 79.023438 96.570312 79.105469 C 96.8125 79.273438 97.082031 79.101562 97.320312 79.015625 C 97.441406 78.796875 97.503906 78.550781 97.453125 78.300781 C 97.324219 78.070312 97.164062 77.808594 96.890625 77.742188 C 95.894531 77.683594 95.160156 78.554688 95.976562 79.503906 C 92.042969 79.238281 93.113281 83.171875 95.53125 82.226562 C 96.167969 81.964844 96.292969 81.449219 96.21875 80.859375 C 96.152344 80.714844 96.070312 80.578125 95.980469 80.445312 C 95.367188 80.234375 95.066406 80.203125 94.851562 80.992188 C 94.933594 81.125 95.015625 81.253906 95.113281 81.375 C 95.179688 81.199219 95.199219 80.996094 95.328125 80.851562 C 95.433594 80.816406 95.539062 80.808594 95.648438 80.796875 C 96.023438 81.8125 94.4375 82.210938 94 81.398438 C 93.792969 81.0625 93.945312 80.636719 94.210938 80.382812 C 95.789062 78.992188 100.640625 81.296875 104.34375 81.570312 C 107.957031 81.878906 110.671875 80.859375 111.335938 80.808594 C 111.496094 80.78125 111.632812 80.769531 111.757812 80.773438 Z M 80.691406 111.835938 C 80.6875 111.714844 80.699219 111.574219 80.730469 111.417969 C 80.78125 110.75 81.800781 108.039062 81.492188 104.421875 C 81.21875 100.722656 78.914062 95.871094 80.300781 94.289062 C 80.558594 94.023438 80.984375 93.871094 81.320312 94.078125 C 82.128906 94.519531 81.730469 96.105469 80.714844 95.726562 C 80.730469 95.621094 80.734375 95.511719 80.769531 95.410156 C 80.914062 95.28125 81.121094 95.257812 81.296875 95.191406 C 81.171875 95.097656 81.042969 95.011719 80.910156 94.929688 C 80.121094 95.148438 80.152344 95.445312 80.363281 96.0625 C 80.496094 96.148438 80.632812 96.234375 80.777344 96.300781 C 81.367188 96.375 81.886719 96.25 82.148438 95.613281 C 83.089844 93.195312 79.15625 92.121094 79.425781 96.054688 C 78.472656 95.238281 77.601562 95.972656 77.660156 96.972656 C 77.726562 97.246094 77.988281 97.40625 78.21875 97.53125 C 78.472656 97.585938 78.71875 97.519531 78.9375 97.398438 C 79.019531 97.164062 79.191406 96.890625 79.027344 96.652344 C 78.941406 96.46875 78.730469 96.449219 78.558594 96.4375 C 78.59375 96.625 78.691406 96.816406 78.628906 97.011719 C 78.265625 97.269531 77.847656 96.722656 78.347656 96.265625 C 79.203125 95.851562 79.53125 97.566406 79.738281 98.296875 C 80.40625 100.457031 80.054688 102.28125 79.683594 102.921875 C 79.367188 103.453125 78.621094 103.777344 78.070312 103.394531 C 77.433594 102.71875 78.371094 101.917969 78.761719 102.359375 C 78.882812 102.46875 78.773438 102.628906 78.761719 102.757812 C 78.582031 102.738281 78.402344 102.625 78.21875 102.6875 C 78.269531 102.832031 78.347656 102.957031 78.429688 103.082031 C 78.917969 103.097656 78.878906 103.136719 79.242188 102.722656 C 79.246094 102.53125 79.238281 102.34375 79.214844 102.15625 C 78.300781 101.222656 76.949219 102.378906 77.546875 103.628906 C 78.046875 104.121094 78.425781 104.246094 79.179688 104.027344 C 78.871094 104.34375 78.710938 104.765625 78.636719 105.199219 C 78.367188 104.773438 77.726562 103.632812 76.644531 104.160156 C 75.171875 105.136719 76.84375 107.519531 77.832031 105.863281 C 78.042969 105.039062 77.742188 104.859375 77.035156 104.777344 C 76.46875 105.328125 76.761719 105.550781 77.058594 105.746094 C 77.074219 105.613281 77.09375 105.476562 77.113281 105.34375 C 77.160156 105.347656 77.253906 105.355469 77.300781 105.359375 C 77.367188 106.414062 76.035156 105.816406 76.679688 104.746094 C 78.257812 103.949219 79.585938 106.785156 77.921875 111.566406 C 77.886719 111.660156 77.855469 111.75 77.824219 111.835938 C 77.855469 111.921875 77.886719 112.015625 77.921875 112.109375 C 79.585938 116.890625 78.257812 119.726562 76.679688 118.925781 C 76.035156 117.859375 77.367188 117.261719 77.300781 118.3125 C 77.253906 118.316406 77.160156 118.328125 77.113281 118.332031 C 77.09375 118.195312 77.074219 118.0625 77.058594 117.925781 C 76.761719 118.125 76.46875 118.347656 77.035156 118.898438 C 77.742188 118.816406 78.042969 118.632812 77.832031 117.8125 C 76.84375 116.15625 75.171875 118.535156 76.644531 119.515625 C 77.726562 120.042969 78.367188 118.898438 78.636719 118.476562 C 78.710938 118.90625 78.871094 119.328125 79.179688 119.648438 C 78.425781 119.429688 78.046875 119.554688 77.546875 120.046875 C 76.949219 121.296875 78.300781 122.453125 79.214844 121.519531 C 79.238281 121.332031 79.246094 121.144531 79.242188 120.953125 C 78.878906 120.539062 78.917969 120.578125 78.429688 120.589844 C 78.347656 120.714844 78.269531 120.84375 78.21875 120.988281 C 78.402344 121.046875 78.582031 120.933594 78.761719 120.917969 C 78.773438 121.046875 78.882812 121.207031 78.761719 121.3125 C 78.371094 121.757812 77.433594 120.957031 78.070312 120.277344 C 78.621094 119.898438 79.367188 120.21875 79.683594 120.753906 C 80.054688 121.390625 80.40625 123.21875 79.738281 125.375 C 79.53125 126.109375 79.203125 127.824219 78.347656 127.410156 C 77.847656 126.953125 78.265625 126.40625 78.628906 126.664062 C 78.691406 126.855469 78.59375 127.046875 78.558594 127.238281 C 78.730469 127.222656 78.941406 127.203125 79.027344 127.023438 C 79.191406 126.78125 79.019531 126.511719 78.9375 126.273438 C 78.71875 126.152344 78.472656 126.089844 78.21875 126.144531 C 77.988281 126.269531 77.726562 126.429688 77.660156 126.703125 C 77.601562 127.699219 78.472656 128.433594 79.425781 127.617188 C 79.15625 131.550781 83.089844 130.480469 82.148438 128.0625 C 81.886719 127.425781 81.367188 127.300781 80.777344 127.375 C 80.632812 127.441406 80.496094 127.523438 80.363281 127.613281 C 80.152344 128.226562 80.121094 128.527344 80.910156 128.742188 C 81.042969 128.660156 81.171875 128.578125 81.296875 128.484375 C 81.121094 128.414062 80.914062 128.394531 80.769531 128.265625 C 80.734375 128.164062 80.730469 128.054688 80.714844 127.945312 C 81.730469 127.570312 82.128906 129.15625 81.320312 129.59375 C 80.984375 129.800781 80.558594 129.648438 80.300781 129.382812 C 78.914062 127.804688 81.21875 122.953125 81.492188 119.25 C 81.800781 115.636719 80.78125 112.921875 80.730469 112.257812 C 80.699219 112.097656 80.6875 111.960938 80.691406 111.835938 Z M 111.757812 142.902344 C 111.632812 142.90625 111.496094 142.894531 111.335938 142.863281 C 110.671875 142.8125 107.957031 141.796875 104.34375 142.101562 C 100.640625 142.375 95.789062 144.679688 94.210938 143.292969 C 93.945312 143.035156 93.792969 142.613281 94 142.273438 C 94.4375 141.464844 96.023438 141.863281 95.648438 142.878906 C 95.539062 142.863281 95.433594 142.859375 95.328125 142.824219 C 95.199219 142.679688 95.179688 142.472656 95.113281 142.300781 C 95.015625 142.421875 94.933594 142.550781 94.851562 142.683594 C 95.066406 143.472656 95.367188 143.441406 95.984375 143.230469 C 96.070312 143.097656 96.152344 142.960938 96.21875 142.816406 C 96.292969 142.226562 96.167969 141.710938 95.53125 141.445312 C 93.113281 140.503906 92.042969 144.4375 95.976562 144.167969 C 95.160156 145.121094 95.894531 145.992188 96.890625 145.933594 C 97.164062 145.867188 97.324219 145.605469 97.453125 145.375 C 97.503906 145.121094 97.441406 144.878906 97.320312 144.65625 C 97.082031 144.574219 96.8125 144.402344 96.570312 144.566406 C 96.390625 144.652344 96.371094 144.863281 96.355469 145.035156 C 96.546875 145 96.738281 144.902344 96.929688 144.964844 C 97.1875 145.328125 96.640625 145.746094 96.183594 145.246094 C 95.769531 144.394531 97.484375 144.066406 98.21875 143.855469 C 100.375 143.1875 102.203125 143.539062 102.839844 143.914062 C 103.375 144.226562 103.695312 144.972656 103.316406 145.523438 C 102.636719 146.160156 101.835938 145.222656 102.28125 144.832031 C 102.386719 144.710938 102.546875 144.820312 102.675781 144.832031 C 102.660156 145.011719 102.546875 145.191406 102.609375 145.375 C 102.75 145.324219 102.878906 145.246094 103.003906 145.164062 C 103.015625 144.675781 103.054688 144.714844 102.640625 144.351562 C 102.453125 144.347656 102.261719 144.355469 102.074219 144.378906 C 101.140625 145.292969 102.300781 146.644531 103.546875 146.046875 C 104.042969 145.546875 104.164062 145.167969 103.949219 144.414062 C 104.265625 144.722656 104.6875 144.882812 105.117188 144.957031 C 104.695312 145.226562 103.550781 145.871094 104.078125 146.949219 C 105.058594 148.421875 107.4375 146.75 105.78125 145.761719 C 104.960938 145.550781 104.777344 145.851562 104.699219 146.558594 C 105.246094 147.125 105.46875 146.832031 105.667969 146.535156 C 105.53125 146.519531 105.398438 146.5 105.261719 146.480469 C 105.265625 146.433594 105.277344 146.339844 105.28125 146.292969 C 106.335938 146.226562 105.738281 147.558594 104.667969 146.914062 C 103.867188 145.335938 106.703125 144.007812 111.484375 145.675781 C 111.578125 145.707031 111.671875 145.738281 111.757812 145.769531 C 111.84375 145.738281 111.933594 145.707031 112.03125 145.675781 C 116.808594 144.007812 119.644531 145.335938 118.847656 146.914062 C 117.777344 147.558594 117.179688 146.226562 118.234375 146.292969 C 118.238281 146.339844 118.246094 146.433594 118.25 146.480469 C 118.117188 146.5 117.980469 146.519531 117.847656 146.535156 C 118.042969 146.832031 118.265625 147.125 118.816406 146.558594 C 118.734375 145.851562 118.554688 145.550781 117.734375 145.761719 C 116.074219 146.75 118.457031 148.421875 119.433594 146.949219 C 119.960938 145.871094 118.820312 145.226562 118.398438 144.957031 C 118.828125 144.882812 119.25 144.722656 119.566406 144.414062 C 119.347656 145.167969 119.472656 145.546875 119.964844 146.046875 C 121.214844 146.644531 122.371094 145.292969 121.4375 144.378906 C 121.25 144.355469 121.0625 144.347656 120.871094 144.351562 C 120.457031 144.714844 120.496094 144.675781 120.511719 145.164062 C 120.636719 145.246094 120.761719 145.324219 120.90625 145.375 C 120.96875 145.191406 120.855469 145.011719 120.835938 144.832031 C 120.964844 144.820312 121.125 144.710938 121.234375 144.832031 C 121.675781 145.222656 120.875 146.160156 120.199219 145.523438 C 119.816406 144.972656 120.140625 144.226562 120.671875 143.914062 C 121.3125 143.539062 123.136719 143.1875 125.296875 143.855469 C 126.027344 144.066406 127.742188 144.394531 127.328125 145.246094 C 126.871094 145.746094 126.324219 145.328125 126.582031 144.964844 C 126.777344 144.902344 126.96875 145 127.15625 145.035156 C 127.144531 144.863281 127.125 144.652344 126.941406 144.566406 C 126.703125 144.402344 126.429688 144.574219 126.195312 144.65625 C 126.074219 144.878906 126.011719 145.121094 126.0625 145.375 C 126.1875 145.605469 126.347656 145.867188 126.621094 145.933594 C 127.621094 145.992188 128.355469 145.121094 127.539062 144.167969 C 131.472656 144.4375 130.402344 140.503906 127.980469 141.445312 C 127.34375 141.710938 127.21875 142.226562 127.292969 142.816406 C 127.359375 142.960938 127.445312 143.097656 127.53125 143.230469 C 128.148438 143.441406 128.445312 143.472656 128.664062 142.683594 C 128.582031 142.550781 128.496094 142.421875 128.402344 142.300781 C 128.335938 142.472656 128.3125 142.679688 128.183594 142.824219 C 128.082031 142.859375 127.972656 142.863281 127.867188 142.878906 C 127.488281 141.863281 129.074219 141.464844 129.515625 142.273438 C 129.722656 142.613281 129.570312 143.035156 129.304688 143.292969 C 127.722656 144.679688 122.871094 142.375 119.171875 142.101562 C 115.554688 141.796875 112.84375 142.8125 112.175781 142.863281 C 112.019531 142.894531 111.878906 142.90625 111.757812 142.902344 Z M 142.820312 111.835938 C 142.824219 111.960938 142.8125 112.097656 142.785156 112.257812 C 142.734375 112.921875 141.714844 115.636719 142.023438 119.25 C 142.296875 122.953125 144.601562 127.804688 143.210938 129.382812 C 142.957031 129.648438 142.53125 129.800781 142.195312 129.59375 C 141.382812 129.15625 141.78125 127.570312 142.796875 127.945312 C 142.785156 128.054688 142.777344 128.164062 142.746094 128.265625 C 142.597656 128.394531 142.394531 128.414062 142.21875 128.484375 C 142.339844 128.578125 142.46875 128.660156 142.601562 128.742188 C 143.390625 128.527344 143.363281 128.226562 143.152344 127.613281 C 143.015625 127.523438 142.878906 127.441406 142.734375 127.375 C 142.144531 127.300781 141.628906 127.425781 141.367188 128.0625 C 140.421875 130.480469 144.355469 131.550781 144.089844 127.617188 C 145.039062 128.433594 145.910156 127.699219 145.851562 126.703125 C 145.785156 126.429688 145.523438 126.269531 145.292969 126.144531 C 145.042969 126.089844 144.796875 126.152344 144.578125 126.273438 C 144.492188 126.511719 144.320312 126.78125 144.488281 127.023438 C 144.570312 127.203125 144.78125 127.222656 144.957031 127.238281 C 144.921875 127.046875 144.820312 126.855469 144.882812 126.664062 C 145.246094 126.40625 145.664062 126.953125 145.164062 127.410156 C 144.3125 127.824219 143.984375 126.109375 143.773438 125.375 C 143.105469 123.21875 143.460938 121.390625 143.832031 120.753906 C 144.144531 120.21875 144.890625 119.898438 145.441406 120.277344 C 146.078125 120.957031 145.140625 121.757812 144.75 121.3125 C 144.628906 121.207031 144.738281 121.046875 144.753906 120.917969 C 144.933594 120.933594 145.113281 121.046875 145.292969 120.984375 C 145.246094 120.84375 145.164062 120.714844 145.085938 120.589844 C 144.59375 120.578125 144.636719 120.539062 144.269531 120.953125 C 144.269531 121.140625 144.277344 121.332031 144.296875 121.519531 C 145.210938 122.453125 146.5625 121.296875 145.964844 120.046875 C 145.46875 119.554688 145.085938 119.429688 144.335938 119.648438 C 144.644531 119.328125 144.800781 118.90625 144.875 118.476562 C 145.144531 118.898438 145.789062 120.042969 146.871094 119.515625 C 148.34375 118.535156 146.671875 116.15625 145.679688 117.8125 C 145.46875 118.632812 145.773438 118.816406 146.480469 118.898438 C 147.046875 118.347656 146.75 118.125 146.457031 117.925781 C 146.4375 118.0625 146.417969 118.195312 146.398438 118.332031 C 146.351562 118.328125 146.257812 118.316406 146.210938 118.3125 C 146.148438 117.261719 147.476562 117.855469 146.835938 118.925781 C 145.253906 119.726562 143.929688 116.890625 145.59375 112.109375 C 145.628906 112.015625 145.65625 111.921875 145.691406 111.835938 C 145.65625 111.75 145.628906 111.660156 145.59375 111.566406 C 143.929688 106.785156 145.253906 103.949219 146.835938 104.746094 C 147.476562 105.816406 146.148438 106.414062 146.210938 105.359375 C 146.257812 105.355469 146.351562 105.347656 146.398438 105.34375 C 146.417969 105.476562 146.4375 105.613281 146.457031 105.746094 C 146.75 105.550781 147.046875 105.328125 146.480469 104.777344 C 145.773438 104.859375 145.46875 105.039062 145.679688 105.863281 C 146.671875 107.519531 148.34375 105.136719 146.871094 104.160156 C 145.789062 103.632812 145.144531 104.773438 144.875 105.199219 C 144.800781 104.765625 144.644531 104.34375 144.335938 104.027344 C 145.085938 104.246094 145.46875 104.121094 145.964844 103.628906 C 146.5625 102.378906 145.210938 101.222656 144.296875 102.15625 C 144.277344 102.34375 144.269531 102.53125 144.269531 102.722656 C 144.636719 103.136719 144.59375 103.097656 145.085938 103.082031 C 145.164062 102.957031 145.246094 102.832031 145.292969 102.6875 C 145.113281 102.625 144.933594 102.738281 144.753906 102.757812 C 144.738281 102.628906 144.628906 102.46875 144.75 102.359375 C 145.140625 101.917969 146.078125 102.71875 145.441406 103.394531 C 144.890625 103.777344 144.144531 103.453125 143.832031 102.921875 C 143.460938 102.28125 143.105469 100.457031 143.773438 98.296875 C 143.984375 97.566406 144.3125 95.851562 145.164062 96.265625 C 145.664062 96.722656 145.246094 97.269531 144.882812 97.011719 C 144.820312 96.816406 144.921875 96.625 144.957031 96.4375 C 144.78125 96.449219 144.570312 96.46875 144.488281 96.652344 C 144.320312 96.890625 144.492188 97.164062 144.578125 97.398438 C 144.796875 97.519531 145.042969 97.585938 145.292969 97.53125 C 145.523438 97.40625 145.785156 97.246094 145.851562 96.972656 C 145.910156 95.972656 145.039062 95.238281 144.089844 96.054688 C 144.355469 92.121094 140.421875 93.195312 141.367188 95.613281 C 141.628906 96.25 142.144531 96.375 142.734375 96.300781 C 142.878906 96.234375 143.015625 96.148438 143.152344 96.0625 C 143.363281 95.445312 143.390625 95.148438 142.601562 94.929688 C 142.46875 95.011719 142.339844 95.097656 142.21875 95.191406 C 142.394531 95.257812 142.597656 95.28125 142.746094 95.410156 C 142.777344 95.511719 142.785156 95.621094 142.796875 95.726562 C 141.78125 96.105469 141.382812 94.519531 142.195312 94.078125 C 142.53125 93.871094 142.957031 94.023438 143.210938 94.289062 C 144.601562 95.871094 142.296875 100.722656 142.023438 104.421875 C 141.714844 108.039062 142.734375 110.75 142.785156 111.417969 C 142.8125 111.574219 142.824219 111.714844 142.820312 111.835938 Z M 142.820312 111.835938 " fill-opacity="1" fill-rule="nonzero"/><g fill="#000000" fill-opacity="1"><g transform="translate(87.284639, 104.399962)"><g><path d="M 0.644531 -7.238281 C 0.523438 -7.230469 0.46875 -7.164062 0.46875 -7.042969 L 0.46875 -6.144531 C 0.46875 -6.023438 0.542969 -5.957031 0.664062 -5.976562 L 1.242188 -6.050781 L 1.242188 -0.148438 C 1.242188 -0.0546875 1.289062 0 1.390625 0 L 2.363281 0 C 2.457031 0 2.511719 -0.0546875 2.511719 -0.148438 L 2.511719 -7.324219 C 2.511719 -7.417969 2.457031 -7.472656 2.363281 -7.472656 Z M 0.644531 -7.238281 "/></g></g></g><g fill="#000000" fill-opacity="1"><g transform="translate(90.544347, 104.399962)"><g><path d="M 0.46875 -3.304688 C 0.46875 -3.183594 0.53125 -3.121094 0.652344 -3.121094 L 1.503906 -3.121094 C 1.625 -3.121094 1.691406 -3.183594 1.691406 -3.304688 L 1.691406 -4.164062 C 1.691406 -4.285156 1.625 -4.351562 1.503906 -4.351562 L 0.652344 -4.351562 C 0.53125 -4.351562 0.46875 -4.285156 0.46875 -4.164062 Z M 0.46875 -0.1875 C 0.46875 -0.0664062 0.53125 0 0.652344 0 L 1.503906 0 C 1.625 0 1.691406 -0.0664062 1.691406 -0.1875 L 1.691406 -1.046875 C 1.691406 -1.167969 1.625 -1.234375 1.503906 -1.234375 L 0.652344 -1.234375 C 0.53125 -1.234375 0.46875 -1.167969 0.46875 -1.046875 Z M 0.46875 -0.1875 "/></g></g></g><g fill="#000000" fill-opacity="1"><g transform="translate(92.88872, 104.399962)"><g><path d="M 3.949219 -3.578125 C 4.128906 -3.671875 4.203125 -3.746094 4.203125 -3.921875 L 4.203125 -6.128906 C 4.203125 -7.003906 3.726562 -7.472656 2.859375 -7.472656 L 1.8125 -7.472656 C 0.933594 -7.472656 0.46875 -7.003906 0.46875 -6.128906 L 0.46875 -5.136719 C 0.46875 -5.042969 0.515625 -4.988281 0.617188 -4.988281 L 1.585938 -4.988281 C 1.679688 -4.988281 1.738281 -5.042969 1.738281 -5.136719 L 1.738281 -5.867188 C 1.738281 -6.109375 1.859375 -6.238281 2.109375 -6.238281 L 2.558594 -6.238281 C 2.792969 -6.238281 2.933594 -6.109375 2.933594 -5.867188 L 2.933594 -4.484375 L 0.710938 -3.289062 C 0.53125 -3.195312 0.46875 -3.121094 0.46875 -2.941406 L 0.46875 -0.1875 C 0.46875 -0.0664062 0.53125 0 0.652344 0 L 4.015625 0 C 4.136719 0 4.203125 -0.0664062 4.203125 -0.1875 L 4.203125 -1.617188 C 4.203125 -1.738281 4.136719 -1.800781 4.015625 -1.800781 L 3.121094 -1.800781 C 3 -1.800781 2.933594 -1.738281 2.933594 -1.617188 L 2.933594 -1.234375 L 1.925781 -1.234375 C 1.800781 -1.234375 1.738281 -1.296875 1.738281 -1.417969 L 1.738281 -2.230469 C 1.738281 -2.335938 1.773438 -2.402344 1.867188 -2.457031 Z M 3.949219 -3.578125 "/></g></g></g><g fill="#000000" fill-opacity="1"><g transform="translate(97.745593, 104.399962)"><g/></g></g><g fill="#000000" fill-opacity="1"><g transform="translate(100.267424, 104.399962)"><g><path d="M 1.8125 -7.472656 C 0.941406 -7.472656 0.46875 -7.003906 0.46875 -6.128906 L 0.46875 -3.921875 C 0.46875 -3.746094 0.550781 -3.632812 0.71875 -3.578125 L 2.933594 -2.847656 L 2.933594 -1.605469 C 2.933594 -1.355469 2.800781 -1.234375 2.558594 -1.234375 L 2.109375 -1.234375 C 1.878906 -1.234375 1.738281 -1.355469 1.738281 -1.605469 L 1.738281 -2.324219 C 1.738281 -2.429688 1.691406 -2.476562 1.585938 -2.476562 L 0.617188 -2.476562 C 0.523438 -2.476562 0.46875 -2.429688 0.46875 -2.324219 L 0.46875 -1.34375 C 0.46875 -0.46875 0.941406 0 1.8125 0 L 2.859375 0 C 3.734375 0 4.203125 -0.46875 4.203125 -1.34375 L 4.203125 -3.503906 C 4.203125 -3.679688 4.117188 -3.78125 3.960938 -3.847656 L 1.738281 -4.578125 L 1.738281 -5.867188 C 1.738281 -6.109375 1.878906 -6.238281 2.109375 -6.238281 L 2.558594 -6.238281 C 2.8125 -6.238281 2.933594 -6.109375 2.933594 -5.867188 L 2.933594 -5.136719 C 2.933594 -5.042969 2.988281 -4.988281 3.082031 -4.988281 L 4.054688 -4.988281 C 4.15625 -4.988281 4.203125 -5.042969 4.203125 -5.136719 L 4.203125 -6.128906 C 4.203125 -7.003906 3.734375 -7.472656 2.859375 -7.472656 Z M 1.8125 -7.472656 "/></g></g></g><g fill="#000000" fill-opacity="1"><g transform="translate(105.124298, 104.399962)"><g><path d="M 0.429688 -7.472656 C 0.335938 -7.472656 0.28125 -7.417969 0.28125 -7.324219 L 0.28125 -6.386719 C 0.28125 -6.296875 0.335938 -6.238281 0.429688 -6.238281 L 1.511719 -6.238281 L 1.511719 -0.148438 C 1.511719 -0.046875 1.570312 0 1.664062 0 L 2.632812 0 C 2.738281 0 2.785156 -0.046875 2.785156 -0.148438 L 2.785156 -6.238281 L 3.867188 -6.238281 C 3.96875 -6.238281 4.015625 -6.296875 4.015625 -6.386719 L 4.015625 -7.324219 C 4.015625 -7.417969 3.96875 -7.472656 3.867188 -7.472656 Z M 0.429688 -7.472656 "/></g></g></g><g fill="#000000" fill-opacity="1"><g transform="translate(109.60756, 104.399962)"><g><path d="M 4.96875 0 C 5.082031 0 5.117188 -0.0546875 5.101562 -0.160156 L 3.550781 -7.339844 C 3.53125 -7.433594 3.472656 -7.472656 3.390625 -7.472656 L 2.09375 -7.472656 C 2.007812 -7.472656 1.953125 -7.433594 1.933594 -7.339844 L 0.382812 -0.160156 C 0.355469 -0.0546875 0.402344 0 0.503906 0 L 1.503906 0 C 1.585938 0 1.632812 -0.046875 1.652344 -0.128906 L 1.90625 -1.496094 L 3.566406 -1.496094 L 3.828125 -0.128906 C 3.847656 -0.046875 3.894531 0 3.980469 0 Z M 3.335938 -2.578125 L 2.140625 -2.578125 L 2.738281 -5.835938 Z M 3.335938 -2.578125 "/></g></g></g><g fill="#000000" fill-opacity="1"><g transform="translate(115.267679, 104.399962)"><g><path d="M 4.203125 -7.324219 C 4.203125 -7.417969 4.148438 -7.472656 4.054688 -7.472656 L 0.617188 -7.472656 C 0.515625 -7.472656 0.46875 -7.417969 0.46875 -7.324219 L 0.46875 -0.148438 C 0.46875 -0.0546875 0.515625 0 0.617188 0 L 1.585938 0 C 1.679688 0 1.738281 -0.0546875 1.738281 -0.148438 L 1.738281 -3.128906 L 3.492188 -3.128906 C 3.585938 -3.128906 3.644531 -3.175781 3.644531 -3.277344 L 3.644531 -4.210938 C 3.644531 -4.304688 3.585938 -4.363281 3.492188 -4.363281 L 1.738281 -4.363281 L 1.738281 -6.238281 L 4.054688 -6.238281 C 4.148438 -6.238281 4.203125 -6.296875 4.203125 -6.386719 Z M 4.203125 -7.324219 "/></g></g></g><g fill="#000000" fill-opacity="1"><g transform="translate(120.124551, 104.399962)"><g><path d="M 4.203125 -7.324219 C 4.203125 -7.417969 4.148438 -7.472656 4.054688 -7.472656 L 0.617188 -7.472656 C 0.515625 -7.472656 0.46875 -7.417969 0.46875 -7.324219 L 0.46875 -0.148438 C 0.46875 -0.0546875 0.515625 0 0.617188 0 L 1.585938 0 C 1.679688 0 1.738281 -0.0546875 1.738281 -0.148438 L 1.738281 -3.128906 L 3.492188 -3.128906 C 3.585938 -3.128906 3.644531 -3.175781 3.644531 -3.277344 L 3.644531 -4.210938 C 3.644531 -4.304688 3.585938 -4.363281 3.492188 -4.363281 L 1.738281 -4.363281 L 1.738281 -6.238281 L 4.054688 -6.238281 C 4.148438 -6.238281 4.203125 -6.296875 4.203125 -6.386719 Z M 4.203125 -7.324219 "/></g></g></g><g fill="#000000" fill-opacity="1"><g transform="translate(124.981423, 104.399962)"><g/></g></g><g fill="#000000" fill-opacity="1"><g transform="translate(127.503256, 104.399962)"><g><path d="M 0.429688 -7.472656 C 0.335938 -7.472656 0.28125 -7.417969 0.28125 -7.324219 L 0.28125 -6.386719 C 0.28125 -6.296875 0.335938 -6.238281 0.429688 -6.238281 L 1.511719 -6.238281 L 1.511719 -0.148438 C 1.511719 -0.046875 1.570312 0 1.664062 0 L 2.632812 0 C 2.738281 0 2.785156 -0.046875 2.785156 -0.148438 L 2.785156 -6.238281 L 3.867188 -6.238281 C 3.96875 -6.238281 4.015625 -6.296875 4.015625 -6.386719 L 4.015625 -7.324219 C 4.015625 -7.417969 3.96875 -7.472656 3.867188 -7.472656 Z M 0.429688 -7.472656 "/></g></g></g><g fill="#000000" fill-opacity="1"><g transform="translate(131.986519, 104.399962)"><g><path d="M 0.46875 -1.34375 C 0.46875 -0.46875 0.933594 0 1.8125 0 L 2.859375 0 C 3.734375 0 4.203125 -0.46875 4.203125 -1.34375 L 4.203125 -6.128906 C 4.203125 -7.003906 3.734375 -7.472656 2.859375 -7.472656 L 1.8125 -7.472656 C 0.933594 -7.472656 0.46875 -7.003906 0.46875 -6.128906 Z M 2.082031 -1.203125 C 1.839844 -1.203125 1.710938 -1.328125 1.710938 -1.578125 L 1.710938 -5.894531 C 1.710938 -6.136719 1.839844 -6.265625 2.082031 -6.265625 L 2.625 -6.265625 C 2.867188 -6.265625 3 -6.136719 3 -5.894531 L 3 -1.578125 C 3 -1.328125 2.867188 -1.203125 2.625 -1.203125 Z M 2.082031 -1.203125 "/></g></g></g><g fill="#000000" fill-opacity="1"><g transform="translate(93.888363, 116.075053)"><g><path d="M 4.304688 -6.128906 C 4.304688 -7.003906 3.839844 -7.472656 2.960938 -7.472656 L 0.617188 -7.472656 C 0.523438 -7.472656 0.46875 -7.417969 0.46875 -7.324219 L 0.46875 -0.148438 C 0.46875 -0.0546875 0.523438 0 0.617188 0 L 1.585938 0 C 1.679688 0 1.738281 -0.0546875 1.738281 -0.148438 L 1.738281 -2.503906 L 2.382812 -2.503906 L 3.007812 -0.128906 C 3.027344 -0.046875 3.074219 0 3.167969 0 L 4.136719 0 C 4.242188 0 4.296875 -0.0546875 4.269531 -0.167969 L 3.625 -2.613281 C 4.074219 -2.8125 4.304688 -3.222656 4.304688 -3.847656 Z M 1.738281 -3.734375 L 1.738281 -6.238281 L 2.660156 -6.238281 C 2.90625 -6.238281 3.035156 -6.109375 3.035156 -5.867188 L 3.035156 -4.109375 C 3.035156 -3.867188 2.90625 -3.734375 2.660156 -3.734375 Z M 1.738281 -3.734375 "/></g></g></g><g fill="#000000" fill-opacity="1"><g transform="translate(98.84798, 116.075053)"><g><path d="M 4.195312 -7.324219 C 4.195312 -7.417969 4.15625 -7.472656 4.042969 -7.472656 L 0.605469 -7.472656 C 0.523438 -7.472656 0.46875 -7.417969 0.46875 -7.324219 L 0.46875 -0.148438 C 0.46875 -0.0546875 0.523438 0 0.605469 0 L 4.042969 0 C 4.15625 0 4.195312 -0.0546875 4.195312 -0.148438 L 4.195312 -1.082031 C 4.195312 -1.1875 4.15625 -1.234375 4.042969 -1.234375 L 1.710938 -1.234375 L 1.710938 -3.121094 L 3.492188 -3.121094 C 3.585938 -3.121094 3.644531 -3.175781 3.644531 -3.277344 L 3.644531 -4.203125 C 3.644531 -4.304688 3.585938 -4.363281 3.492188 -4.363281 L 1.710938 -4.363281 L 1.710938 -6.230469 L 4.042969 -6.230469 C 4.15625 -6.230469 4.195312 -6.296875 4.195312 -6.386719 Z M 4.195312 -7.324219 "/></g></g></g><g fill="#000000" fill-opacity="1"><g transform="translate(103.695507, 116.075053)"><g><path d="M 1.8125 -7.472656 C 0.941406 -7.472656 0.46875 -7.003906 0.46875 -6.128906 L 0.46875 -3.921875 C 0.46875 -3.746094 0.550781 -3.632812 0.71875 -3.578125 L 2.933594 -2.847656 L 2.933594 -1.605469 C 2.933594 -1.355469 2.800781 -1.234375 2.558594 -1.234375 L 2.109375 -1.234375 C 1.878906 -1.234375 1.738281 -1.355469 1.738281 -1.605469 L 1.738281 -2.324219 C 1.738281 -2.429688 1.691406 -2.476562 1.585938 -2.476562 L 0.617188 -2.476562 C 0.523438 -2.476562 0.46875 -2.429688 0.46875 -2.324219 L 0.46875 -1.34375 C 0.46875 -0.46875 0.941406 0 1.8125 0 L 2.859375 0 C 3.734375 0 4.203125 -0.46875 4.203125 -1.34375 L 4.203125 -3.503906 C 4.203125 -3.679688 4.117188 -3.78125 3.960938 -3.847656 L 1.738281 -4.578125 L 1.738281 -5.867188 C 1.738281 -6.109375 1.878906 -6.238281 2.109375 -6.238281 L 2.558594 -6.238281 C 2.8125 -6.238281 2.933594 -6.109375 2.933594 -5.867188 L 2.933594 -5.136719 C 2.933594 -5.042969 2.988281 -4.988281 3.082031 -4.988281 L 4.054688 -4.988281 C 4.15625 -4.988281 4.203125 -5.042969 4.203125 -5.136719 L 4.203125 -6.128906 C 4.203125 -7.003906 3.734375 -7.472656 2.859375 -7.472656 Z M 1.8125 -7.472656 "/></g></g></g><g fill="#000000" fill-opacity="1"><g transform="translate(108.55238, 116.075053)"><g><path d="M 0.617188 -7.472656 C 0.515625 -7.472656 0.46875 -7.417969 0.46875 -7.324219 L 0.46875 -0.148438 C 0.46875 -0.0546875 0.515625 0 0.617188 0 L 1.585938 0 C 1.679688 0 1.738281 -0.0546875 1.738281 -0.148438 L 1.738281 -7.324219 C 1.738281 -7.417969 1.679688 -7.472656 1.585938 -7.472656 Z M 0.617188 -7.472656 "/></g></g></g><g fill="#000000" fill-opacity="1"><g transform="translate(110.943451, 116.075053)"><g><path d="M 0.46875 -0.148438 C 0.46875 -0.046875 0.515625 0 0.617188 0 L 2.859375 0 C 3.734375 0 4.203125 -0.46875 4.203125 -1.34375 L 4.203125 -6.117188 C 4.203125 -6.996094 3.734375 -7.472656 2.859375 -7.472656 L 0.617188 -7.472656 C 0.515625 -7.472656 0.46875 -7.417969 0.46875 -7.324219 Z M 1.738281 -1.234375 L 1.738281 -6.238281 L 2.597656 -6.238281 C 2.839844 -6.238281 2.96875 -6.109375 2.96875 -5.855469 L 2.96875 -1.605469 C 2.96875 -1.355469 2.839844 -1.234375 2.597656 -1.234375 Z M 1.738281 -1.234375 "/></g></g></g><g fill="#000000" fill-opacity="1"><g transform="translate(115.800325, 116.075053)"><g><path d="M 4.195312 -7.324219 C 4.195312 -7.417969 4.15625 -7.472656 4.042969 -7.472656 L 0.605469 -7.472656 C 0.523438 -7.472656 0.46875 -7.417969 0.46875 -7.324219 L 0.46875 -0.148438 C 0.46875 -0.0546875 0.523438 0 0.605469 0 L 4.042969 0 C 4.15625 0 4.195312 -0.0546875 4.195312 -0.148438 L 4.195312 -1.082031 C 4.195312 -1.1875 4.15625 -1.234375 4.042969 -1.234375 L 1.710938 -1.234375 L 1.710938 -3.121094 L 3.492188 -3.121094 C 3.585938 -3.121094 3.644531 -3.175781 3.644531 -3.277344 L 3.644531 -4.203125 C 3.644531 -4.304688 3.585938 -4.363281 3.492188 -4.363281 L 1.710938 -4.363281 L 1.710938 -6.230469 L 4.042969 -6.230469 C 4.15625 -6.230469 4.195312 -6.296875 4.195312 -6.386719 Z M 4.195312 -7.324219 "/></g></g></g><g fill="#000000" fill-opacity="1"><g transform="translate(120.647851, 116.075053)"><g><path d="M 3.335938 -7.472656 C 3.230469 -7.472656 3.183594 -7.417969 3.183594 -7.324219 L 3.183594 -3.382812 L 3.128906 -3.382812 L 1.710938 -7.351562 C 1.679688 -7.433594 1.625 -7.472656 1.542969 -7.472656 L 0.617188 -7.472656 C 0.523438 -7.472656 0.46875 -7.417969 0.46875 -7.324219 L 0.46875 -0.148438 C 0.46875 -0.0546875 0.523438 0 0.617188 0 L 1.585938 0 C 1.691406 0 1.738281 -0.0546875 1.738281 -0.148438 L 1.738281 -4.109375 L 1.785156 -4.109375 L 3.214844 -0.121094 C 3.242188 -0.0390625 3.296875 0 3.382812 0 L 4.304688 0 C 4.398438 0 4.457031 -0.0546875 4.457031 -0.148438 L 4.457031 -7.324219 C 4.457031 -7.417969 4.398438 -7.472656 4.304688 -7.472656 Z M 3.335938 -7.472656 "/></g></g></g><g fill="#000000" fill-opacity="1"><g transform="translate(125.756912, 116.075053)"><g><path d="M 0.429688 -7.472656 C 0.335938 -7.472656 0.28125 -7.417969 0.28125 -7.324219 L 0.28125 -6.386719 C 0.28125 -6.296875 0.335938 -6.238281 0.429688 -6.238281 L 1.511719 -6.238281 L 1.511719 -0.148438 C 1.511719 -0.046875 1.570312 0 1.664062 0 L 2.632812 0 C 2.738281 0 2.785156 -0.046875 2.785156 -0.148438 L 2.785156 -6.238281 L 3.867188 -6.238281 C 3.96875 -6.238281 4.015625 -6.296875 4.015625 -6.386719 L 4.015625 -7.324219 C 4.015625 -7.417969 3.96875 -7.472656 3.867188 -7.472656 Z M 0.429688 -7.472656 "/></g></g></g><g fill="#000000" fill-opacity="1"><g transform="translate(100.893418, 127.750145)"><g><path d="M 4.304688 -6.128906 C 4.304688 -7.003906 3.839844 -7.472656 2.960938 -7.472656 L 0.617188 -7.472656 C 0.523438 -7.472656 0.46875 -7.417969 0.46875 -7.324219 L 0.46875 -0.148438 C 0.46875 -0.0546875 0.523438 0 0.617188 0 L 1.585938 0 C 1.679688 0 1.738281 -0.0546875 1.738281 -0.148438 L 1.738281 -2.503906 L 2.382812 -2.503906 L 3.007812 -0.128906 C 3.027344 -0.046875 3.074219 0 3.167969 0 L 4.136719 0 C 4.242188 0 4.296875 -0.0546875 4.269531 -0.167969 L 3.625 -2.613281 C 4.074219 -2.8125 4.304688 -3.222656 4.304688 -3.847656 Z M 1.738281 -3.734375 L 1.738281 -6.238281 L 2.660156 -6.238281 C 2.90625 -6.238281 3.035156 -6.109375 3.035156 -5.867188 L 3.035156 -4.109375 C 3.035156 -3.867188 2.90625 -3.734375 2.660156 -3.734375 Z M 1.738281 -3.734375 "/></g></g></g><g fill="#000000" fill-opacity="1"><g transform="translate(105.853035, 127.750145)"><g><path d="M 4.96875 0 C 5.082031 0 5.117188 -0.0546875 5.101562 -0.160156 L 3.550781 -7.339844 C 3.53125 -7.433594 3.472656 -7.472656 3.390625 -7.472656 L 2.09375 -7.472656 C 2.007812 -7.472656 1.953125 -7.433594 1.933594 -7.339844 L 0.382812 -0.160156 C 0.355469 -0.0546875 0.402344 0 0.503906 0 L 1.503906 0 C 1.585938 0 1.632812 -0.046875 1.652344 -0.128906 L 1.90625 -1.496094 L 3.566406 -1.496094 L 3.828125 -0.128906 C 3.847656 -0.046875 3.894531 0 3.980469 0 Z M 3.335938 -2.578125 L 2.140625 -2.578125 L 2.738281 -5.835938 Z M 3.335938 -2.578125 "/></g></g></g><g fill="#000000" fill-opacity="1"><g transform="translate(111.513153, 127.750145)"><g><path d="M 0.429688 -7.472656 C 0.335938 -7.472656 0.28125 -7.417969 0.28125 -7.324219 L 0.28125 -6.386719 C 0.28125 -6.296875 0.335938 -6.238281 0.429688 -6.238281 L 1.511719 -6.238281 L 1.511719 -0.148438 C 1.511719 -0.046875 1.570312 0 1.664062 0 L 2.632812 0 C 2.738281 0 2.785156 -0.046875 2.785156 -0.148438 L 2.785156 -6.238281 L 3.867188 -6.238281 C 3.96875 -6.238281 4.015625 -6.296875 4.015625 -6.386719 L 4.015625 -7.324219 C 4.015625 -7.417969 3.96875 -7.472656 3.867188 -7.472656 Z M 0.429688 -7.472656 "/></g></g></g><g fill="#000000" fill-opacity="1"><g transform="translate(115.996415, 127.750145)"><g><path d="M 0.617188 -7.472656 C 0.515625 -7.472656 0.46875 -7.417969 0.46875 -7.324219 L 0.46875 -0.148438 C 0.46875 -0.0546875 0.515625 0 0.617188 0 L 1.585938 0 C 1.679688 0 1.738281 -0.0546875 1.738281 -0.148438 L 1.738281 -7.324219 C 1.738281 -7.417969 1.679688 -7.472656 1.585938 -7.472656 Z M 0.617188 -7.472656 "/></g></g></g><g fill="#000000" fill-opacity="1"><g transform="translate(118.387486, 127.750145)"><g><path d="M 0.46875 -1.34375 C 0.46875 -0.46875 0.933594 0 1.8125 0 L 2.859375 0 C 3.734375 0 4.203125 -0.46875 4.203125 -1.34375 L 4.203125 -6.128906 C 4.203125 -7.003906 3.734375 -7.472656 2.859375 -7.472656 L 1.8125 -7.472656 C 0.933594 -7.472656 0.46875 -7.003906 0.46875 -6.128906 Z M 2.082031 -1.203125 C 1.839844 -1.203125 1.710938 -1.328125 1.710938 -1.578125 L 1.710938 -5.894531 C 1.710938 -6.136719 1.839844 -6.265625 2.082031 -6.265625 L 2.625 -6.265625 C 2.867188 -6.265625 3 -6.136719 3 -5.894531 L 3 -1.578125 C 3 -1.328125 2.867188 -1.203125 2.625 -1.203125 Z M 2.082031 -1.203125 "/></g></g></g></svg>