<svg xmlns="http://www.w3.org/2000/svg" xmlns:xlink="http://www.w3.org/1999/xlink" width="200" zoomAndPan="magnify" viewBox="0 0 150 248.25" height="331" preserveAspectRatio="xMidYMid meet" xmlns:v="https://vecta.io/nano"><style><![CDATA[.B{clip-rule:nonzero}.C{fill:#f2cc5d}.D{fill-rule:evenodd}]]></style><defs><clipPath id="A"><path d="M.227 10.789h149.547v236.699H.227zm0 0" class="B"/></clipPath><clipPath id="B"><path d="M31.406 198H48v16H31.406zm0 0" class="B"/></clipPath><clipPath id="C"><path d="M101 198h16.395v16H101zm0 0" class="B"/></clipPath><clipPath id="D"><path d="M1.176 0h148.598v15.703H1.176zm0 0" class="B"/></clipPath><clipPath id="E"><path d="M72.48 29.063h5.984v8.223H72.48zm0 0" class="B"/></clipPath><path id="F" d="M39.799 224.381v-4.187h1.016v.625l.078.016c.102-.238.238-.41.406-.516.164-.113.363-.172.594-.172.238 0 .422.043.547.125l-.187.906-.078.016c-.062-.02-.125-.035-.187-.047a.79.79 0 0 0-.234-.031.79.79 0 0 0-.672.313c-.156.211-.234.543-.234 1v1.953zm0 0"/><path id="G" d="M44.918 224.459c-.418 0-.781-.082-1.094-.25-.305-.164-.543-.41-.719-.734-.168-.332-.25-.727-.25-1.187s.082-.848.25-1.172c.176-.332.414-.582.719-.75.313-.164.676-.25 1.094-.25.406 0 .766.086 1.078.25a1.69 1.69 0 0 1 .719.75c.176.324.266.715.266 1.172s-.09.855-.266 1.188c-.168.324-.406.57-.719.734s-.672.25-1.078.25zm0-.891c.645 0 .969-.426.969-1.281 0-.445-.086-.77-.25-.969-.168-.207-.406-.312-.719-.312-.656 0-.984.43-.984 1.281s.328 1.281.984 1.281zm0 0"/><path id="H" d="M58.621 226.162c-.687 0-1.199-.105-1.531-.312-.336-.199-.5-.48-.5-.844 0-.219.066-.402.203-.547.145-.133.352-.227.625-.281v-.078c-.148-.082-.25-.176-.312-.281s-.094-.227-.094-.375c0-.332.219-.555.656-.672v-.078c-.219-.133-.387-.297-.5-.484s-.172-.414-.172-.687c0-.281.063-.523.188-.734.125-.219.313-.383.563-.5s.547-.172.891-.172.617.059.828.172a1.3 1.3 0 0 0 .234-.641l.078-.047.75.188c-.023.199-.078.367-.172.5s-.242.258-.437.359v.078c.238.211.359.5.359.875 0 .262-.07.496-.203.703-.125.199-.312.359-.562.484-.25.117-.543.172-.875.172h-.156l-.219-.016a.36.36 0 0 0-.234.078.27.27 0 0 0-.078.203c0 .094.035.168.109.219.07.043.176.07.313.078l.938.031c.926.023 1.391.418 1.391 1.188a1.32 1.32 0 0 1-.203.719c-.137.219-.359.391-.672.516s-.715.188-1.203.188zm.016-3.937c.195 0 .352-.055.469-.172.113-.125.172-.297.172-.516s-.059-.383-.172-.5c-.117-.125-.273-.187-.469-.187-.211 0-.371.063-.484.188-.105.117-.156.281-.156.5s.051.391.156.516c.113.117.273.172.484.172zm-.016 3.172c.363 0 .625-.055.781-.156.164-.105.25-.234.25-.391 0-.137-.043-.234-.125-.297s-.219-.094-.406-.094l-.828-.047h-.078-.062c-.18 0-.312.035-.406.109a.4.4 0 0 0-.141.313c0 .176.082.313.25.406.176.102.43.156.766.156zm0 0"/><path id="I" d="M81.477 222.522h-2.687c.031.367.133.633.313.797s.414.25.719.25c.238 0 .43-.039.578-.125.156-.094.281-.234.375-.422h.078l.688.453a1.73 1.73 0 0 1-.625.719c-.273.18-.637.266-1.094.266-.437 0-.812-.082-1.125-.25a1.75 1.75 0 0 1-.734-.734c-.168-.32-.25-.719-.25-1.187 0-.477.086-.879.266-1.203.188-.32.43-.562.734-.719a2.12 2.12 0 0 1 1.031-.25c.594 0 1.047.156 1.359.469.32.313.484.773.484 1.375 0 .23-.012.402-.031.516zm-.906-.672c-.012-.32-.086-.555-.219-.703s-.34-.219-.609-.219c-.531 0-.844.309-.937.922zm0 0"/></defs><g clip-path="url(#A)"><path fill="#fff" d="M.227 10.789h149.316v236.422H.227zm0 0"/></g><g clip-path="url(#B)" class="C D"><path d="M36.688 203.238c-.336 0-3.879.363-4.496.391a.83.83 0 0 0-.816.781v.141c0 .223.113.418.281.586l.141.082 2.672 2.344a.65.65 0 0 0 .141.113c.141.137.309.305.477.418-.055.141-1.039 4.492-1.039 4.629a.89.89 0 0 0 .844.84c.336 0 .785-.336 1.152-.531l2.668-1.59.535-.336 3.707 2.203c.395.223.816.418 1.238 0 .477-.445.168-1.004.027-1.73l-.816-3.484 2.785-2.398c.309-.281.926-.727.926-1.145 0-.531-.281-.867-.785-.922l-4.527-.391c0-.137-1.488-3.484-1.602-3.793-.082-.195-.168-.418-.309-.586-.309-.391-.953-.391-1.293-.027-.168.223-1.402 3.18-1.629 3.738l-.281.668zm0 0"/></g><path d="M54.25 203.238c-.336 0-3.875.363-4.496.391a.82.82 0 0 0-.812.781v.141c0 .223.109.418.281.586.055.055.082.055.141.082l2.641 2.344a.65.65 0 0 1 .141.113l.504.418c-.055.141-1.039 4.492-1.039 4.629 0 .418.395.84.816.84.363 0 .813-.336 1.152-.531l2.695-1.59.535-.336 3.711 2.203c.363.223.813.418 1.207 0 .477-.445.195-1.004.027-1.73l-.785-3.484 2.781-2.398c.309-.281.926-.727.926-1.145 0-.531-.309-.867-.785-.922l-4.523-.391c-.031-.137-1.492-3.484-1.633-3.793-.082-.195-.141-.418-.281-.586-.309-.391-.953-.391-1.293-.027-.168.223-1.402 3.18-1.656 3.738-.055.141-.254.531-.254.668zm17.563 0c-.363 0-3.902.363-4.496.391-.504.027-.812.391-.84.781v.141a.85.85 0 0 0 .309.586.27.27 0 0 0 .113.082l2.668 2.344c.055.055.086.055.141.113l.504.418c-.082.141-1.039 4.492-1.039 4.629 0 .418.367.84.816.84.363 0 .785-.336 1.152-.531l2.668-1.59.563-.336 3.711 2.203c.363.223.785.418 1.207 0 .477-.445.168-1.004.027-1.73l-.812-3.484 2.781-2.398c.336-.281.953-.727.953-1.145 0-.531-.309-.867-.812-.922l-4.523-.391c0-.137-1.461-3.484-1.602-3.793-.086-.195-.172-.418-.281-.586-.312-.391-.957-.391-1.293-.027-.199.223-1.434 3.18-1.66 3.738-.055.141-.254.531-.254.668zm17.539 0c-.34 0-3.879.363-4.469.391-.508.027-.816.391-.844.781v.141a.87.87 0 0 0 .309.586.27.27 0 0 0 .113.082l2.668 2.344a.9.9 0 0 0 .141.113c.141.137.309.305.477.418-.055.141-1.039 4.492-1.039 4.629a.89.89 0 0 0 .844.84c.367 0 .789-.336 1.152-.531l2.668-1.59.535-.336 3.738 2.203c.363.223.785.418 1.207 0 .48-.445.168-1.004.027-1.73l-.812-3.484 2.781-2.398c.336-.281.957-.727.957-1.145 0-.531-.309-.867-.816-.922l-4.523-.391c0-.137-1.488-3.484-1.602-3.793-.086-.195-.168-.418-.281-.586-.34-.391-.984-.391-1.293-.027-.195.223-1.434 3.18-1.66 3.738l-.277.668zm0 0" class="C D"/><g clip-path="url(#C)" class="C D"><path d="M106.914 203.238c-.34 0-3.879.363-4.496.391-.508.027-.789.391-.816.781v.141c0 .223.113.418.281.586.055.055.086.055.141.082l2.668 2.344.113.113.508.418a133.23 133.23 0 0 0-1.039 4.629c0 .418.391.84.84.84.34 0 .789-.336 1.152-.531l2.672-1.59.531-.336 3.711 2.203c.395.223.816.418 1.238 0 .477-.445.168-1.004 0-1.73l-.789-3.484 2.781-2.398c.309-.281.93-.727.93-1.145 0-.531-.281-.867-.789-.922l-4.523-.391c-.027-.137-1.488-3.484-1.602-3.793-.113-.195-.168-.418-.309-.586-.309-.391-.957-.391-1.293-.027-.168.223-1.406 3.18-1.629 3.738-.086.141-.254.531-.281.668zm0 0"/></g><g clip-path="url(#D)"><path fill="#737373" d="M7.039.273c-1.621.43-3.445 1.684-4.527 3.121-.418.559-.961 1.699-1.16 2.445-.148.555-.176.777-.176 1.578 0 .707.027 1.027.109 1.352.578 2.066 2.473 3.668 5.184 4.371 1.188.309 1.941.398 3.543.438a24.5 24.5 0 0 0 6.613-.723l.918-.219.609.414c1.074.73 2.195 1.227 3.633 1.609 3.336.875 7.363 1.035 11.746.48 4.164-.535 8.285-1.602 13.891-3.609l1.594-.574.945.516c2.473 1.332 5.078 2.395 7.125 2.895 1.512.375 2.301.477 3.547.473 1.336 0 1.816-.098 2.707-.535 1.051-.523 1.684-1.441 1.684-2.445 0-.355-.238-.891-.473-1.082-.539-.418-1.207-.437-1.848-.047-.5.305-.621.453-.625.754 0 .289.23.504.551.504.422 0 .613-.445.344-.793l-.129-.16.219-.105c.719-.34 1.531.254 1.422 1.039-.125.945-.863 1.613-2.121 1.93-.66.16-2.125.148-3.203-.039-1.641-.277-3.516-.844-5.305-1.59-1.168-.488-3.645-1.711-3.59-1.762.09-.086 3.277-1.23 4.949-1.785 2.594-.855 4.117-1.246 6.027-1.543 1.008-.156 1.289-.176 2.789-.168 1.691 0 2.52.078 3.543.309.367.082.563.18.953.465 1.488 1.066 2.727 2.355 3.547 3.68.473.773 1.07 2.164 1.281 3.012.074.313.191.367.191.105 0-.25-.539-1.824-.867-2.52-.613-1.312-1.621-2.594-2.902-3.691-.391-.328-.691-.605-.684-.621.043-.051 1.352.484 2.113.859.891.438 1.648.918 2.371 1.512.512.418 1.441 1.375 1.441 1.484 0 .039-.16.313-.352.602-.469.707-.699 1.223-.699 1.582-.008.246.012.289.129.309.102.012.258-.16.762-.887.348-.496.652-.902.68-.902s.332.395.672.875.656.891.707.91c.145.055.293-.117.262-.305-.082-.398-.34-.937-.723-1.512-.227-.34-.41-.652-.41-.676 0-.098 1.172-1.258 1.656-1.641.629-.496 1.406-.98 2.16-1.352.668-.324 2.078-.891 2.121-.852.016.012-.141.16-.344.328-.496.406-1.5 1.398-1.891 1.859a10.11 10.11 0 0 0-1.309 2.066c-.352.746-.922 2.352-.922 2.609 0 .289.148.09.289-.387.633-2.195 1.781-3.953 3.602-5.523 1.473-1.273 1.676-1.379 3.223-1.578 2.973-.391 5.918-.059 9.676 1.09 1.813.551 6.348 2.148 6.484 2.277.059.051-1.828 1.012-3.012 1.531-2.402 1.055-4.77 1.738-6.773 1.957-1.633.176-3.074-.148-3.793-.844-.977-.937-.738-2.316.395-2.316.215 0 .609.148.609.23 0 .02-.043.078-.094.129-.418.426.113.992.664.711.41-.219.301-.703-.234-1.059-.461-.293-.738-.398-1.086-.398-.922.008-1.562.871-1.363 1.836.242 1.191 1.203 2.039 2.723 2.426.809.199 2.391.199 3.59-.008 2.691-.457 5.805-1.621 8.875-3.32l.773-.426 1.871.672c4.973 1.789 9.102 2.883 12.898 3.418 1.867.262 3.027.359 4.77.406 5.113.121 9.238-.793 11.586-2.57l.336-.258.785.199c1.094.27 2.297.496 3.313.617 1.164.145 3.727.203 4.707.105 2.82-.277 4.898-1.152 6.27-2.645.883-.961 1.262-1.863 1.313-3.145.063-1.652-.391-3.074-1.449-4.484-.973-1.309-2.945-2.641-4.434-2.992-.73-.176-1.633-.176-2.191 0-.91.281-1.469 1.125-1.07 1.633.102.129.188.168.371.168.27 0 .418-.121.488-.406.063-.242.301-.41.723-.5.781-.164 1.781.031 2.781.547 2.352 1.203 3.852 3.418 3.859 5.703 0 1.066-.246 1.812-.852 2.574-1.098 1.371-2.816 2.219-5.332 2.621-1.039.164-4.184.16-5.473-.008-.797-.102-3.094-.516-3.141-.566-.012-.012.121-.207.297-.437a5.86 5.86 0 0 0 .902-1.848 6.25 6.25 0 0 0 0-2.742c-.496-1.75-1.848-3.188-4.02-4.262-1.711-.844-3.133-1.262-5.387-1.578-4.754-.668-9.375.145-13.605 2.391l-.73.391-1.062-.23c-5.73-1.262-10.617-1.512-15.801-.805-2.211.297-5.074.992-6.953 1.688a24.6 24.6 0 0 0-3.531 1.66c-.301.172-.613.289-1.051.379-.801.18-2.113.613-3.012.996-1.711.734-3.031 1.617-4.176 2.797l-.535.547-.363-.414c-1.551-1.719-4.293-3.199-7.227-3.898-.566-.137-.855-.246-1.445-.574-2.113-1.164-4.168-1.926-6.918-2.562-1.859-.43-3.094-.629-5.383-.863-1.398-.141-5.363-.16-6.793-.031-2.332.211-4.746.594-7.062 1.113l-.883.199-1.07-.547C35.082 1.727 31.984.969 28.438.961c-4.031 0-7.551.867-9.926 2.465-1.578 1.062-2.621 2.477-2.898 3.934a7.18 7.18 0 0 0 0 2.086c.18.824.68 1.867 1.148 2.363.09.094.148.191.129.211-.055.059-1.488.34-2.391.477-1.367.211-2.621.281-4.16.242-3.434-.082-5.672-.859-7.184-2.504-.781-.848-1.102-1.773-1.035-3.035.113-2.285 1.582-4.352 3.918-5.531.785-.391 1.32-.527 2.086-.527.57 0 .715.02.965.148.246.117.309.188.371.406.098.313.367.469.66.367.5-.18.379-1.039-.215-1.469C9.289.145 8.059.008 7.039.273zm21.813 1.027c2.391.125 4.473.582 6.75 1.488.977.387 2.922 1.352 2.848 1.41-.023.023-.246.094-.496.16-.719.18-2.98.945-4.199 1.414-.613.238-2.191.898-3.504 1.457-4.664 1.996-7.012 2.914-9.344 3.68-1.48.484-3.473 1.027-3.605.98-.16-.059-.609-.645-.898-1.191-.832-1.551-.738-3.535.242-5.047 1.621-2.496 5.32-4.102 9.996-4.344l.996-.059c.035-.008.582.02 1.215.051zm96.438.07c2.34.207 4.363.75 6.047 1.605 1.148.578 2.441 1.684 3.059 2.617 1.043 1.57 1.141 3.602.242 5.207-.262.477-.77 1.121-.883 1.121-.148 0-2.441-.637-3.371-.934-2.203-.715-5.215-1.906-10.125-4.008-2.824-1.211-5.004-2.023-6.793-2.523-.402-.109-.762-.234-.793-.266-.07-.062 1.82-1.012 2.813-1.402a20.49 20.49 0 0 1 9.805-1.418zM54.547 3.066c3.441.348 6.516 1.043 8.957 2.008 1.086.43 2.57 1.133 2.641 1.25.039.063.02.074-.07.035-.238-.09-2.914-.121-3.742-.043-2.555.25-5.035.895-9.379 2.426l-2.68.945-.937.336-.246-.121c-.488-.234-2.16-1.258-4.891-3L40.68 4.68c-.66-.391-.715-.441-.582-.496.262-.094 2.57-.551 3.652-.719 1.262-.195 3.16-.414 4.242-.488 1.262-.086 5.375-.035 6.555.09zm49.66 0c2.141.223 4.082.52 5.891.914l1.035.238c.016.004-.504.332-1.145.727A188.29 188.29 0 0 0 106.738 7c-2.113 1.355-3.793 2.398-4.551 2.813l-.414.23-1.41-.508c-5.215-1.895-8.016-2.719-10.445-3.082-1.078-.164-3.254-.238-4.293-.145-.383.035-.719.051-.73.039-.031-.031 1.422-.754 2.109-1.043 1.625-.687 3.406-1.211 5.734-1.687 1.465-.301 2.934-.488 5.254-.668.801-.062 5.305.027 6.215.117zM39.828 4.965c.461.277 1.723 1.113 2.813 1.848l4.934 3.277c.289.18.535.34.535.359 0 .059-3.699 1.34-5.191 1.801-4.16 1.281-7.805 2.094-11.535 2.551-1.172.141-5.453.168-6.535.031-2.328-.281-4.094-.746-5.41-1.41-.711-.359-1.473-.855-1.402-.918.027-.02.387-.137.789-.254 1.879-.539 4.184-1.461 9.227-3.676 3.992-1.75 4.711-2.051 6.516-2.727 1.355-.504 4.031-1.352 4.352-1.387.047-.004.457.227.91.504zm73.355-.215c2.852.82 4.41 1.43 11.398 4.5 2.426 1.063 4.621 1.965 5.879 2.41.895.313 2.355.777 2.465.777.227 0 .105.16-.344.457-1.609 1.055-4 1.738-6.973 1.988a48.52 48.52 0 0 1-5 0c-4.363-.367-10.09-1.73-15.812-3.758l-1.773-.633c-.066-.02.043-.113.313-.281a238.57 238.57 0 0 0 3.043-2.023l3.391-2.27c.828-.555 2.289-1.461 2.352-1.461.027 0 .5.129 1.063.293zm0 0"/></g><g clip-path="url(#E)"><path fill="#737373" d="M75.473 29.063c-1.648 0-2.988 1.289-2.988 2.879 0 2.16 2.988 5.344 2.988 5.344s2.988-3.184 2.988-5.344c0-1.59-1.336-2.879-2.988-2.879zm0 3.906c-.59 0-1.066-.461-1.066-1.027s.477-1.027 1.066-1.027 1.066.461 1.066 1.027-.477 1.027-1.066 1.027zm0 0"/></g><g fill="#a6a6a6"><path d="M36.896 224.381v-3.359h-.594v-.828h.594a2.11 2.11 0 0 1-.062-.5c0-.27.055-.5.172-.687a1.13 1.13 0 0 1 .531-.422c.227-.102.5-.156.813-.156.469 0 .813.078 1.031.234l-.234.781-.078.016c-.168-.113-.371-.172-.609-.172-.187 0-.336.047-.437.141-.094.094-.141.219-.141.375a1.1 1.1 0 0 0 .016.203 1.09 1.09 0 0 0 .047.188h1.203v.828h-1.203v3.359zm0 0"/><use xlink:href="#F"/><use xlink:href="#G"/><path d="M47.964 224.381v-4.187h1v.563l.078.016c.145-.227.305-.395.484-.5.188-.102.422-.156.703-.156.32 0 .578.063.766.188a1.05 1.05 0 0 1 .422.547h.078c.133-.25.301-.43.5-.547.207-.125.461-.187.766-.187.863 0 1.297.484 1.297 1.453v2.813h-1.047v-2.687c0-.25-.047-.426-.141-.531s-.25-.156-.469-.156c-.574 0-.859.387-.859 1.156v2.219H50.48v-2.687c0-.25-.047-.426-.141-.531s-.25-.156-.469-.156a.81.81 0 0 0-.641.266c-.148.18-.219.465-.219.859v2.25zm0 0"/><use xlink:href="#H"/><use xlink:href="#G" x="18.331"/><use xlink:href="#G" x="23.207"/><use xlink:href="#H" x="14.113"/><path d="M76.659 224.459c-.375 0-.664-.098-.859-.297-.199-.207-.297-.52-.297-.937v-4.719h1.047v4.672c0 .262.109.391.328.391.063 0 .125-.008.188-.031l.063.016.094.813a.73.73 0 0 1-.234.063c-.094.02-.203.031-.328.031zm0 0"/><use xlink:href="#I"/><use xlink:href="#F" x="44.543"/><use xlink:href="#I" x="9.687"/><path d="M94.474 224.381h-1.266l-1.547-4.187h1.109l1.031 2.984h.094l1.047-2.984h1.078zm2.744-4.687c-.187 0-.344-.055-.469-.172a.6.6 0 0 1-.172-.453c0-.176.055-.32.172-.437.125-.113.281-.172.469-.172a.68.68 0 0 1 .328.078.57.57 0 0 1 .234.219.55.55 0 0 1 .094.313.55.55 0 0 1-.094.313.67.67 0 0 1-.234.234c-.094.055-.203.078-.328.078zm-.516 4.688v-4.187h1.047v4.188zm0 0"/><use xlink:href="#I" x="21.017"/><path d="M105.163 224.381h-1.109l-.984-4.187h.969l.625 2.828h.078l.797-2.828h.906l.828 2.828h.078l.594-2.828h.953l-.984 4.188h-1.109l-.797-2.859h-.078zm5.837.078a3.08 3.08 0 0 1-.781-.094c-.242-.07-.445-.164-.609-.281a1.12 1.12 0 0 1-.375-.406l.594-.625h.078a1.31 1.31 0 0 0 .484.422 1.43 1.43 0 0 0 .625.141c.207 0 .363-.035.469-.109s.156-.18.156-.328a.35.35 0 0 0-.125-.266c-.074-.07-.195-.129-.359-.172l-.547-.125c-.418-.102-.727-.254-.922-.453-.187-.207-.281-.469-.281-.781 0-.258.066-.484.203-.672a1.17 1.17 0 0 1 .563-.437 2.14 2.14 0 0 1 .844-.156c.375 0 .688.059.938.172.25.105.441.246.578.422l-.562.609h-.078c-.117-.133-.246-.227-.391-.281a1.23 1.23 0 0 0-.484-.094c-.418 0-.625.125-.625.375 0 .117.035.211.109.281.082.063.223.117.422.156l.516.125c.426.086.734.23.922.438.195.199.297.469.297.813 0 .262-.07.496-.203.703-.125.199-.312.355-.562.469a2.35 2.35 0 0 1-.891.156zm0 0"/></g></svg>